Bitter-Thin.ufo
<glyph name="exclam" format="2">
  <advance width="344"/>
  <unicode hex="0021"/>
  <guideline x="172" y="628" angle="90"/>
  <outline>
    <contour>
      <point x="162" y="201" type="line"/>
      <point x="182" y="203" type="line"/>
      <point x="184" y="692" type="line"/>
      <point x="160" y="692" type="line"/>
    </contour>
    <contour>
      <point x="147" y="20" type="curve" smooth="yes"/>
      <point x="147" y="4"/>
      <point x="157" y="-6"/>
      <point x="172" y="-6" type="curve" smooth="yes"/>
      <point x="185" y="-6"/>
      <point x="197" y="4"/>
      <point x="197" y="20" type="curve" smooth="yes"/>
      <point x="197" y="36"/>
      <point x="187" y="46"/>
      <point x="172" y="46" type="curve" smooth="yes"/>
      <point x="159" y="46"/>
      <point x="147" y="36"/>
    </contour>
  </outline>
</glyph>
<glyph name="ampersand" format="2">
  <advance width="709"/>
  <unicode hex="0026"/>
  <outline>
    <contour>
      <point x="338" y="-6" type="curve" smooth="yes"/>
      <point x="467" y="-6"/>
      <point x="558" y="63"/>
      <point x="558" y="208" type="curve" smooth="yes"/>
      <point x="558" y="362" type="line"/>
      <point x="551" y="354" type="line"/>
      <point x="644" y="368" type="line"/>
      <point x="644" y="383" type="line"/>
      <point x="364" y="383" type="line" smooth="yes"/>
      <point x="230" y="383"/>
      <point x="155" y="439"/>
      <point x="155" y="525" type="curve" smooth="yes"/>
      <point x="155" y="634"/>
      <point x="228" y="678"/>
      <point x="347" y="678" type="curve" smooth="yes"/>
      <point x="408" y="678"/>
      <point x="458" y="670"/>
      <point x="509" y="654" type="curve"/>
      <point x="503" y="661" type="line"/>
      <point x="513" y="537" type="line"/>
      <point x="528" y="537" type="line"/>
      <point x="533" y="665" type="line"/>
      <point x="476" y="686"/>
      <point x="418" y="698"/>
      <point x="349" y="698" type="curve" smooth="yes"/>
      <point x="218" y="698"/>
      <point x="134" y="644"/>
      <point x="134" y="523" type="curve" smooth="yes"/>
      <point x="134" y="452"/>
      <point x="182" y="385"/>
      <point x="291" y="372" type="curve"/>
      <point x="291" y="373" type="line"/>
      <point x="171" y="362"/>
      <point x="116" y="279"/>
      <point x="116" y="194" type="curve" smooth="yes"/>
      <point x="116" y="63"/>
      <point x="208" y="-6"/>
    </contour>
    <contour>
      <point x="340" y="13" type="curve" smooth="yes"/>
      <point x="220" y="13"/>
      <point x="137" y="79"/>
      <point x="137" y="196" type="curve" smooth="yes"/>
      <point x="137" y="282"/>
      <point x="201" y="363"/>
      <point x="359" y="363" type="curve" smooth="yes"/>
      <point x="545" y="363" type="line"/>
      <point x="538" y="370" type="line"/>
      <point x="538" y="205" type="line" smooth="yes"/>
      <point x="538" y="74"/>
      <point x="458" y="13"/>
    </contour>
  </outline>
</glyph>
<glyph name="quotesingle" format="2">
  <advance width="210"/>
  <unicode hex="0027"/>
  <outline>
    <contour>
      <point x="97" y="554" type="line"/>
      <point x="113" y="554" type="line"/>
      <point x="120" y="762" type="line"/>
      <point x="90" y="762" type="line"/>
    </contour>
  </outline>
</glyph>
<glyph name="parenleft" format="2">
  <advance width="301"/>
  <unicode hex="0028"/>
  <guideline x="120" y="858" angle="0"/>
  <guideline x="120" y="-94" angle="0"/>
  <outline>
    <contour>
      <point x="268" y="836" type="curve"/>
      <point x="255" y="847" type="line"/>
      <point x="137" y="705"/>
      <point x="78" y="531"/>
      <point x="78" y="372" type="curve" smooth="yes"/>
      <point x="78" y="213"/>
      <point x="137" y="40"/>
      <point x="255" y="-103" type="curve"/>
      <point x="268" y="-92" type="line"/>
      <point x="156" y="51"/>
      <point x="99" y="219"/>
      <point x="99" y="372" type="curve" smooth="yes"/>
      <point x="99" y="526"/>
      <point x="156" y="694"/>
    </contour>
  </outline>
</glyph>
<glyph name="parenright" format="2">
  <advance width="301"/>
  <unicode hex="0029"/>
  <guideline x="120" y="838" angle="0"/>
  <guideline x="120" y="-94" angle="0"/>
  <outline>
    <contour>
      <point x="33" y="-92" type="curve"/>
      <point x="46" y="-103" type="line"/>
      <point x="164" y="39"/>
      <point x="223" y="213"/>
      <point x="223" y="372" type="curve" smooth="yes"/>
      <point x="223" y="531"/>
      <point x="164" y="704"/>
      <point x="46" y="847" type="curve"/>
      <point x="33" y="836" type="line"/>
      <point x="145" y="693"/>
      <point x="202" y="525"/>
      <point x="202" y="372" type="curve" smooth="yes"/>
      <point x="202" y="218"/>
      <point x="145" y="50"/>
    </contour>
  </outline>
</glyph>
<glyph name="plus" format="2">
  <advance width="595"/>
  <unicode hex="002B"/>
  <outline>
    <contour>
      <point x="297" y="358" type="line"/>
      <point x="68" y="358" type="line"/>
      <point x="68" y="339" type="line"/>
      <point x="297" y="339" type="line"/>
      <point x="288" y="348" type="line"/>
      <point x="288" y="114" type="line"/>
      <point x="307" y="114" type="line"/>
      <point x="307" y="348" type="line"/>
      <point x="298" y="339" type="line"/>
      <point x="527" y="339" type="line"/>
      <point x="527" y="358" type="line"/>
      <point x="298" y="358" type="line"/>
      <point x="307" y="349" type="line"/>
      <point x="307" y="583" type="line"/>
      <point x="288" y="583" type="line"/>
      <point x="288" y="349" type="line"/>
    </contour>
  </outline>
</glyph>
<glyph name="four" format="2">
  <advance width="560"/>
  <unicode hex="0034"/>
  <outline>
    <contour>
      <point x="381" y="203" type="line"/>
      <point x="381" y="0" type="line"/>
      <point x="401" y="0" type="line"/>
      <point x="401" y="203" type="line"/>
      <point x="394" y="196" type="line"/>
      <point x="539" y="196" type="line"/>
      <point x="539" y="216" type="line"/>
      <point x="394" y="216" type="line"/>
      <point x="401" y="209" type="line"/>
      <point x="401" y="692" type="line"/>
      <point x="377" y="701" type="line"/>
      <point x="17" y="213" type="line"/>
      <point x="22" y="196" type="line"/>
      <point x="388" y="196" type="line"/>
    </contour>
    <contour>
      <point x="388" y="216" type="line"/>
      <point x="36" y="216" type="line"/>
      <point x="39" y="210" type="line"/>
      <point x="385" y="681" type="line"/>
      <point x="381" y="682" type="line"/>
      <point x="381" y="209" type="line"/>
    </contour>
  </outline>
</glyph>
<glyph name="six" format="2">
  <advance width="582"/>
  <unicode hex="0036"/>
  <outline>
    <contour>
      <point x="94" y="299" type="line"/>
      <point x="163" y="355"/>
      <point x="247" y="384"/>
      <point x="320" y="384" type="curve" smooth="yes"/>
      <point x="419" y="384"/>
      <point x="500" y="330"/>
      <point x="500" y="208" type="curve" smooth="yes"/>
      <point x="500" y="89"/>
      <point x="425" y="14"/>
      <point x="307" y="14" type="curve" smooth="yes"/>
      <point x="177" y="14"/>
      <point x="101" y="105"/>
      <point x="101" y="301" type="curve" smooth="yes"/>
      <point x="101" y="524"/>
      <point x="200" y="678"/>
      <point x="384" y="678" type="curve" smooth="yes"/>
      <point x="412" y="678"/>
      <point x="444" y="675"/>
      <point x="478" y="667" type="curve"/>
      <point x="482" y="686" type="line"/>
      <point x="448" y="694"/>
      <point x="416" y="698"/>
      <point x="386" y="698" type="curve" smooth="yes"/>
      <point x="195" y="698"/>
      <point x="80" y="541"/>
      <point x="80" y="298" type="curve" smooth="yes"/>
      <point x="80" y="93"/>
      <point x="163" y="-6"/>
      <point x="305" y="-6" type="curve" smooth="yes"/>
      <point x="435" y="-6"/>
      <point x="522" y="78"/>
      <point x="522" y="208" type="curve" smooth="yes"/>
      <point x="522" y="340"/>
      <point x="432" y="404"/>
      <point x="321" y="404" type="curve" smooth="yes"/>
      <point x="248" y="404"/>
      <point x="166" y="378"/>
      <point x="95" y="322" type="curve"/>
    </contour>
  </outline>
</glyph>
<glyph name="nine" format="2">
  <advance width="581"/>
  <unicode hex="0039"/>
  <outline>
    <contour>
      <point x="486" y="402" type="line"/>
      <point x="417" y="346"/>
      <point x="335" y="313"/>
      <point x="258" y="313" type="curve" smooth="yes"/>
      <point x="162" y="313"/>
      <point x="81" y="364"/>
      <point x="81" y="486" type="curve" smooth="yes"/>
      <point x="81" y="604"/>
      <point x="156" y="678"/>
      <point x="274" y="678" type="curve" smooth="yes"/>
      <point x="404" y="678"/>
      <point x="480" y="588"/>
      <point x="480" y="392" type="curve" smooth="yes"/>
      <point x="480" y="170"/>
      <point x="382" y="15"/>
      <point x="195" y="15" type="curve" smooth="yes"/>
      <point x="169" y="15"/>
      <point x="137" y="18"/>
      <point x="103" y="26" type="curve"/>
      <point x="99" y="7" type="line"/>
      <point x="133" y="-1"/>
      <point x="165" y="-5"/>
      <point x="194" y="-5" type="curve" smooth="yes"/>
      <point x="391" y="-5"/>
      <point x="501" y="159"/>
      <point x="501" y="395" type="curve" smooth="yes"/>
      <point x="501" y="600"/>
      <point x="418" y="698"/>
      <point x="276" y="698" type="curve" smooth="yes"/>
      <point x="146" y="698"/>
      <point x="56" y="615"/>
      <point x="59" y="482" type="curve" smooth="yes"/>
      <point x="62" y="352"/>
      <point x="151" y="293"/>
      <point x="259" y="293" type="curve" smooth="yes"/>
      <point x="333" y="293"/>
      <point x="415" y="321"/>
      <point x="486" y="379" type="curve"/>
    </contour>
  </outline>
</glyph>
<glyph name="less" format="2">
  <advance width="578"/>
  <unicode hex="003C"/>
  <outline>
    <contour>
      <point x="484" y="148" type="line"/>
      <point x="491" y="166" type="line"/>
      <point x="84" y="353" type="line"/>
      <point x="84" y="345" type="line"/>
      <point x="491" y="544" type="line"/>
      <point x="484" y="561" type="line"/>
      <point x="72" y="359" type="line"/>
      <point x="72" y="338" type="line"/>
    </contour>
  </outline>
</glyph>
<glyph name="question" format="2">
  <advance width="387"/>
  <unicode hex="003F"/>
  <outline>
    <contour>
      <point x="125" y="211" type="curve"/>
      <point x="144" y="213" type="line"/>
      <point x="143" y="232"/>
      <point x="141" y="259"/>
      <point x="141" y="271" type="curve" smooth="yes"/>
      <point x="141" y="387"/>
      <point x="327" y="435"/>
      <point x="327" y="578" type="curve" smooth="yes"/>
      <point x="327" y="662"/>
      <point x="264" y="698"/>
      <point x="183" y="698" type="curve" smooth="yes"/>
      <point x="145" y="698"/>
      <point x="102" y="690"/>
      <point x="60" y="674" type="curve"/>
      <point x="66" y="657" type="line"/>
      <point x="107" y="671"/>
      <point x="147" y="679"/>
      <point x="182" y="679" type="curve" smooth="yes"/>
      <point x="253" y="679"/>
      <point x="306" y="648"/>
      <point x="306" y="577" type="curve" smooth="yes"/>
      <point x="306" y="444"/>
      <point x="120" y="393"/>
      <point x="120" y="276" type="curve" smooth="yes"/>
      <point x="120" y="261"/>
      <point x="123" y="232"/>
    </contour>
    <contour>
      <point x="123" y="20" type="curve" smooth="yes"/>
      <point x="123" y="4"/>
      <point x="133" y="-6"/>
      <point x="148" y="-6" type="curve" smooth="yes"/>
      <point x="161" y="-6"/>
      <point x="173" y="4"/>
      <point x="173" y="20" type="curve" smooth="yes"/>
      <point x="173" y="36"/>
      <point x="163" y="46"/>
      <point x="148" y="46" type="curve" smooth="yes"/>
      <point x="135" y="46"/>
      <point x="123" y="36"/>
    </contour>
  </outline>
</glyph>
<glyph name="A" format="2">
  <advance width="704"/>
  <unicode hex="0041"/>
  <anchor x="354" y="0" name="bottom"/>
  <anchor x="618" y="0" name="ogonek"/>
  <anchor x="359" y="692" name="top"/>
  <outline>
    <contour>
      <point x="605" y="22" type="line"/>
      <point x="368" y="693" type="line"/>
      <point x="349" y="691" type="line"/>
      <point x="97" y="22" type="line"/>
      <point x="105" y="29" type="line"/>
      <point x="6" y="15" type="line"/>
      <point x="6" y="0" type="line"/>
      <point x="235" y="0" type="line"/>
      <point x="235" y="15" type="line"/>
      <point x="113" y="29" type="line"/>
      <point x="118" y="22" type="line"/>
      <point x="189" y="213" type="line"/>
      <point x="179" y="206" type="line"/>
      <point x="525" y="206" type="line"/>
      <point x="517" y="211" type="line"/>
      <point x="583" y="22" type="line"/>
      <point x="587" y="29" type="line"/>
      <point x="464" y="15" type="line"/>
      <point x="464" y="0" type="line"/>
      <point x="698" y="0" type="line"/>
      <point x="698" y="15" type="line"/>
      <point x="596" y="29" type="line"/>
    </contour>
    <contour>
      <point x="191" y="219" type="line"/>
      <point x="360" y="672" type="line"/>
      <point x="356" y="672" type="line"/>
      <point x="514" y="220" type="line"/>
      <point x="518" y="225" type="line"/>
      <point x="185" y="225" type="line"/>
    </contour>
  </outline>
</glyph>
<glyph name="B" format="2">
  <advance width="644"/>
  <unicode hex="0042"/>
  <guideline x="520" y="425" angle="90" identifier="DP46m7Kxu7"/>
  <anchor x="312" y="0" name="bottom"/>
  <anchor x="312" y="692" name="top"/>
  <outline>
    <contour>
      <point x="365" y="354" type="line"/>
      <point x="487" y="377"/>
      <point x="530" y="442"/>
      <point x="530" y="525" type="curve" smooth="yes"/>
      <point x="530" y="622"/>
      <point x="469" y="692"/>
      <point x="326" y="692" type="curve" smooth="yes"/>
      <point x="182" y="692" type="line"/>
      <point x="61" y="687" type="line"/>
      <point x="61" y="672" type="line"/>
      <point x="168" y="662" type="line"/>
      <point x="161" y="670" type="line"/>
      <point x="161" y="21" type="line"/>
      <point x="168" y="29" type="line"/>
      <point x="61" y="15" type="line"/>
      <point x="61" y="0" type="line"/>
      <point x="320" y="0" type="line" smooth="yes"/>
      <point x="494" y="0"/>
      <point x="557" y="83"/>
      <point x="557" y="183" type="curve" smooth="yes"/>
      <point x="557" y="276"/>
      <point x="500" y="354"/>
      <point x="368" y="358" type="curve"/>
    </contour>
    <contour>
      <point x="321" y="673" type="line" smooth="yes"/>
      <point x="452" y="673"/>
      <point x="508" y="612"/>
      <point x="508" y="523" type="curve" smooth="yes"/>
      <point x="508" y="432"/>
      <point x="449" y="364"/>
      <point x="293" y="364" type="curve" smooth="yes"/>
      <point x="174" y="364" type="line"/>
      <point x="181" y="357" type="line"/>
      <point x="181" y="680" type="line"/>
      <point x="174" y="673" type="line"/>
    </contour>
    <contour>
      <point x="320" y="19" type="curve" smooth="yes"/>
      <point x="174" y="19" type="line"/>
      <point x="181" y="12" type="line"/>
      <point x="181" y="352" type="line"/>
      <point x="174" y="345" type="line"/>
      <point x="348" y="345" type="line" smooth="yes"/>
      <point x="479" y="345"/>
      <point x="535" y="271"/>
      <point x="535" y="181" type="curve" smooth="yes"/>
      <point x="535" y="91"/>
      <point x="478" y="19"/>
    </contour>
  </outline>
</glyph>
<glyph name="D" format="2">
  <advance width="724"/>
  <unicode hex="0044"/>
  <anchor x="358" y="0" name="bottom"/>
  <anchor x="221" y="355" name="center"/>
  <anchor x="337" y="692" name="top"/>
  <outline>
    <contour>
      <point x="344" y="692" type="curve" smooth="yes"/>
      <point x="211" y="692" type="line"/>
      <point x="61" y="687" type="line"/>
      <point x="61" y="672" type="line"/>
      <point x="168" y="662" type="line"/>
      <point x="161" y="670" type="line"/>
      <point x="161" y="21" type="line"/>
      <point x="168" y="29" type="line"/>
      <point x="61" y="15" type="line"/>
      <point x="61" y="0" type="line"/>
      <point x="332" y="0" type="line" smooth="yes"/>
      <point x="503" y="0"/>
      <point x="646" y="120"/>
      <point x="646" y="355" type="curve" smooth="yes"/>
      <point x="646" y="591"/>
      <point x="501" y="692"/>
    </contour>
    <contour>
      <point x="332" y="19" type="curve" smooth="yes"/>
      <point x="174" y="19" type="line"/>
      <point x="181" y="12" type="line"/>
      <point x="181" y="680" type="line"/>
      <point x="174" y="673" type="line"/>
      <point x="343" y="673" type="line" smooth="yes"/>
      <point x="494" y="673"/>
      <point x="624" y="570"/>
      <point x="624" y="351" type="curve" smooth="yes"/>
      <point x="624" y="126"/>
      <point x="487" y="19"/>
    </contour>
  </outline>
</glyph>
<glyph name="G" format="2">
  <advance width="759"/>
  <unicode hex="0047"/>
  <guideline x="608" y="433" angle="90"/>
  <anchor x="392" y="0" name="bottom"/>
  <anchor x="390" y="692" name="top"/>
  <outline>
    <contour>
      <point x="390" y="-5" type="curve" smooth="yes"/>
      <point x="461" y="-5"/>
      <point x="537" y="11"/>
      <point x="618" y="45" type="curve"/>
      <point x="618" y="294" type="line"/>
      <point x="611" y="286" type="line"/>
      <point x="713" y="300" type="line"/>
      <point x="713" y="315" type="line"/>
      <point x="498" y="310" type="line"/>
      <point x="498" y="295" type="line"/>
      <point x="605" y="287" type="line"/>
      <point x="598" y="294" type="line"/>
      <point x="598" y="51" type="line"/>
      <point x="603" y="60" type="line"/>
      <point x="528" y="30"/>
      <point x="458" y="15"/>
      <point x="393" y="15" type="curve" smooth="yes"/>
      <point x="214" y="15"/>
      <point x="101" y="127"/>
      <point x="101" y="337" type="curve" smooth="yes"/>
      <point x="101" y="546"/>
      <point x="214" y="678"/>
      <point x="390" y="678" type="curve" smooth="yes"/>
      <point x="454" y="678"/>
      <point x="531" y="661"/>
      <point x="595" y="637" type="curve"/>
      <point x="591" y="646" type="line"/>
      <point x="601" y="516" type="line"/>
      <point x="616" y="516" type="line"/>
      <point x="621" y="650" type="line"/>
      <point x="544" y="683"/>
      <point x="466" y="698"/>
      <point x="400" y="698" type="curve" smooth="yes"/>
      <point x="204" y="698"/>
      <point x="79" y="566"/>
      <point x="79" y="337" type="curve" smooth="yes"/>
      <point x="79" y="112"/>
      <point x="199" y="-5"/>
    </contour>
  </outline>
</glyph>
<glyph name="I" format="2">
  <advance width="341"/>
  <unicode hex="0049"/>
  <anchor x="171" y="0" name="bottom"/>
  <anchor x="251" y="0" name="ogonek"/>
  <anchor x="171" y="692" name="top"/>
  <anchor x="31" y="692" name="topleft"/>
  <outline>
    <contour>
      <point x="281" y="677" type="line"/>
      <point x="281" y="692" type="line"/>
      <point x="61" y="687" type="line"/>
      <point x="61" y="672" type="line"/>
      <point x="168" y="663" type="line"/>
      <point x="161" y="671" type="line"/>
      <point x="161" y="21" type="line"/>
      <point x="168" y="29" type="line"/>
      <point x="61" y="15" type="line"/>
      <point x="61" y="0" type="line"/>
      <point x="281" y="0" type="line"/>
      <point x="281" y="15" type="line"/>
      <point x="174" y="29" type="line"/>
      <point x="181" y="21" type="line"/>
      <point x="181" y="671" type="line"/>
      <point x="174" y="663" type="line"/>
    </contour>
  </outline>
</glyph>
<glyph name="K" format="2">
  <advance width="701"/>
  <unicode hex="004B"/>
  <anchor x="348" y="0" name="bottom"/>
  <anchor x="348" y="692" name="top"/>
  <outline>
    <contour>
      <point x="591" y="23" type="line"/>
      <point x="347" y="364" type="line"/>
      <point x="347" y="353" type="line"/>
      <point x="543" y="670" type="line"/>
      <point x="532" y="663" type="line"/>
      <point x="635" y="677" type="line"/>
      <point x="635" y="692" type="line"/>
      <point x="419" y="687" type="line"/>
      <point x="419" y="672" type="line"/>
      <point x="526" y="664" type="line"/>
      <point x="522" y="670" type="line"/>
      <point x="329" y="358" type="line"/>
      <point x="340" y="364" type="line"/>
      <point x="174" y="364" type="line"/>
      <point x="181" y="357" type="line"/>
      <point x="181" y="671" type="line"/>
      <point x="174" y="663" type="line"/>
      <point x="281" y="677" type="line"/>
      <point x="281" y="692" type="line"/>
      <point x="61" y="687" type="line"/>
      <point x="61" y="672" type="line"/>
      <point x="168" y="663" type="line"/>
      <point x="161" y="671" type="line"/>
      <point x="161" y="21" type="line"/>
      <point x="168" y="29" type="line"/>
      <point x="61" y="15" type="line"/>
      <point x="61" y="0" type="line"/>
      <point x="281" y="0" type="line"/>
      <point x="281" y="15" type="line"/>
      <point x="174" y="29" type="line"/>
      <point x="181" y="21" type="line"/>
      <point x="181" y="352" type="line"/>
      <point x="174" y="345" type="line"/>
      <point x="346" y="345" type="line"/>
      <point x="333" y="350" type="line"/>
      <point x="567" y="23" type="line"/>
      <point x="571" y="28" type="line"/>
      <point x="468" y="15" type="line"/>
      <point x="468" y="0" type="line"/>
      <point x="683" y="0" type="line"/>
      <point x="683" y="15" type="line"/>
      <point x="580" y="28" type="line"/>
    </contour>
  </outline>
</glyph>
<glyph name="Q" format="2">
  <advance width="770"/>
  <unicode hex="0051"/>
  <anchor x="385" y="0" name="bottom"/>
  <anchor x="385" y="692" name="top"/>
  <outline>
    <contour>
      <point x="677" y="-154" type="curve" smooth="yes"/>
      <point x="712" y="-154"/>
      <point x="744" y="-139"/>
      <point x="795" y="-109" type="curve"/>
      <point x="785" y="-94" type="line"/>
      <point x="738" y="-121"/>
      <point x="708" y="-134"/>
      <point x="677" y="-134" type="curve" smooth="yes"/>
      <point x="620" y="-134"/>
      <point x="563" y="-89"/>
      <point x="401" y="-2" type="curve"/>
      <point x="403" y="-5" type="line"/>
      <point x="563" y="8"/>
      <point x="691" y="135"/>
      <point x="691" y="356" type="curve" smooth="yes"/>
      <point x="691" y="591"/>
      <point x="546" y="698"/>
      <point x="389" y="698" type="curve" smooth="yes"/>
      <point x="225" y="698"/>
      <point x="79" y="581"/>
      <point x="79" y="341" type="curve" smooth="yes"/>
      <point x="79" y="109"/>
      <point x="214" y="-4"/>
      <point x="373" y="-6" type="curve"/>
      <point x="362" y="-2" type="line"/>
      <point x="548" y="-104"/>
      <point x="615" y="-154"/>
    </contour>
    <contour>
      <point x="101" y="342" type="curve" smooth="yes"/>
      <point x="101" y="568"/>
      <point x="235" y="678"/>
      <point x="388" y="678" type="curve" smooth="yes"/>
      <point x="539" y="678"/>
      <point x="669" y="570"/>
      <point x="669" y="353" type="curve" smooth="yes"/>
      <point x="669" y="129"/>
      <point x="532" y="14"/>
      <point x="378" y="14" type="curve" smooth="yes"/>
      <point x="229" y="14"/>
      <point x="101" y="121"/>
    </contour>
  </outline>
</glyph>
<glyph name="R" format="2">
  <advance width="648"/>
  <unicode hex="0052"/>
  <anchor x="345" y="0" name="bottom"/>
  <anchor x="305" y="692" name="top"/>
  <outline>
    <contour>
      <point x="61" y="0" type="line"/>
      <point x="306" y="0" type="line"/>
      <point x="306" y="15" type="line"/>
      <point x="174" y="29" type="line"/>
      <point x="181" y="21" type="line"/>
      <point x="181" y="334" type="line"/>
      <point x="174" y="327" type="line"/>
      <point x="260" y="327" type="line" smooth="yes"/>
      <point x="375" y="327"/>
      <point x="406" y="293"/>
      <point x="448" y="202" type="curve" smooth="yes"/>
      <point x="541" y="0" type="line"/>
      <point x="624" y="0" type="line"/>
      <point x="624" y="15" type="line"/>
      <point x="546" y="29" type="line"/>
      <point x="556" y="22" type="line"/>
      <point x="467" y="208" type="line" smooth="yes"/>
      <point x="431" y="283"/>
      <point x="405" y="323"/>
      <point x="328" y="336" type="curve"/>
      <point x="330" y="333" type="line"/>
      <point x="463" y="344"/>
      <point x="533" y="413"/>
      <point x="533" y="520" type="curve" smooth="yes"/>
      <point x="533" y="632"/>
      <point x="459" y="692"/>
      <point x="318" y="692" type="curve" smooth="yes"/>
      <point x="182" y="692" type="line"/>
      <point x="61" y="687" type="line"/>
      <point x="61" y="672" type="line"/>
      <point x="168" y="663" type="line"/>
      <point x="161" y="671" type="line"/>
      <point x="161" y="21" type="line"/>
      <point x="168" y="29" type="line"/>
      <point x="61" y="15" type="line"/>
    </contour>
    <contour>
      <point x="181" y="339" type="line"/>
      <point x="181" y="680" type="line"/>
      <point x="174" y="673" type="line"/>
      <point x="316" y="673" type="line" smooth="yes"/>
      <point x="444" y="673"/>
      <point x="511" y="620"/>
      <point x="511" y="519" type="curve" smooth="yes"/>
      <point x="511" y="406"/>
      <point x="427" y="346"/>
      <point x="282" y="346" type="curve" smooth="yes"/>
      <point x="174" y="346" type="line"/>
    </contour>
  </outline>
</glyph>
<glyph name="T" format="2">
  <advance width="558"/>
  <unicode hex="0054"/>
  <anchor x="279" y="0" name="bottom"/>
  <anchor x="279" y="355" name="center"/>
  <anchor x="279" y="692" name="top"/>
  <outline>
    <contour>
      <point x="154" y="0" type="line"/>
      <point x="404" y="0" type="line"/>
      <point x="404" y="15" type="line"/>
      <point x="282" y="29" type="line"/>
      <point x="289" y="21" type="line"/>
      <point x="289" y="680" type="line"/>
      <point x="282" y="673" type="line"/>
      <point x="503" y="673" type="line"/>
      <point x="495" y="680" type="line"/>
      <point x="510" y="552" type="line"/>
      <point x="525" y="552" type="line"/>
      <point x="525" y="692" type="line"/>
      <point x="33" y="692" type="line"/>
      <point x="33" y="552" type="line"/>
      <point x="48" y="552" type="line"/>
      <point x="63" y="680" type="line"/>
      <point x="55" y="673" type="line"/>
      <point x="276" y="673" type="line"/>
      <point x="269" y="680" type="line"/>
      <point x="269" y="21" type="line"/>
      <point x="276" y="29" type="line"/>
      <point x="154" y="15" type="line"/>
    </contour>
  </outline>
</glyph>
<glyph name="Y" format="2">
  <advance width="635"/>
  <unicode hex="0059"/>
  <anchor x="317" y="0" name="bottom"/>
  <anchor x="317" y="692" name="top"/>
  <outline>
    <contour>
      <point x="207" y="0" type="line"/>
      <point x="427" y="0" type="line"/>
      <point x="427" y="15" type="line"/>
      <point x="320" y="29" type="line"/>
      <point x="327" y="21" type="line"/>
      <point x="327" y="268" type="line"/>
      <point x="323" y="251" type="line"/>
      <point x="538" y="670" type="line"/>
      <point x="528" y="663" type="line"/>
      <point x="630" y="677" type="line"/>
      <point x="630" y="692" type="line"/>
      <point x="398" y="687" type="line"/>
      <point x="398" y="672" type="line"/>
      <point x="522" y="664" type="line"/>
      <point x="518" y="670" type="line"/>
      <point x="315" y="275" type="line"/>
      <point x="321" y="275" type="line"/>
      <point x="119" y="670" type="line"/>
      <point x="115" y="663" type="line"/>
      <point x="240" y="677" type="line"/>
      <point x="240" y="692" type="line"/>
      <point x="5" y="687" type="line"/>
      <point x="5" y="672" type="line"/>
      <point x="108" y="663" type="line"/>
      <point x="98" y="670" type="line"/>
      <point x="311" y="251" type="line"/>
      <point x="307" y="268" type="line"/>
      <point x="307" y="21" type="line"/>
      <point x="314" y="29" type="line"/>
      <point x="207" y="15" type="line"/>
    </contour>
  </outline>
</glyph>
<glyph name="bracketright" format="2">
  <advance width="341"/>
  <unicode hex="005D"/>
  <guideline x="120" y="-94" angle="0"/>
  <outline>
    <contour>
      <point x="203" y="838" type="line"/>
      <point x="19" y="833" type="line"/>
      <point x="19" y="817" type="line"/>
      <point x="183" y="815" type="line"/>
      <point x="183" y="-71" type="line"/>
      <point x="19" y="-73" type="line"/>
      <point x="19" y="-89" type="line"/>
      <point x="203" y="-94" type="line"/>
    </contour>
  </outline>
</glyph>
<glyph name="b" format="2">
  <advance width="568"/>
  <unicode hex="0062"/>
  <outline>
    <contour>
      <point x="251" y="-6" type="curve" smooth="yes"/>
      <point x="407" y="-6"/>
      <point x="504" y="83"/>
      <point x="504" y="265" type="curve" smooth="yes"/>
      <point x="504" y="433"/>
      <point x="416" y="528"/>
      <point x="307" y="528" type="curve" smooth="yes"/>
      <point x="249" y="528"/>
      <point x="185" y="500"/>
      <point x="124" y="441" type="curve"/>
      <point x="128" y="437" type="line"/>
      <point x="128" y="765" type="line"/>
      <point x="18" y="760" type="line"/>
      <point x="18" y="745" type="line"/>
      <point x="117" y="731" type="line"/>
      <point x="108" y="741" type="line"/>
      <point x="108" y="15" type="line"/>
      <point x="160" y="1"/>
      <point x="208" y="-6"/>
    </contour>
    <contour>
      <point x="255" y="13" type="curve" smooth="yes"/>
      <point x="216" y="13"/>
      <point x="171" y="20"/>
      <point x="123" y="33" type="curve"/>
      <point x="128" y="22" type="line"/>
      <point x="128" y="432" type="line"/>
      <point x="124" y="417" type="line"/>
      <point x="184" y="480"/>
      <point x="248" y="509"/>
      <point x="305" y="509" type="curve" smooth="yes"/>
      <point x="404" y="509"/>
      <point x="483" y="420"/>
      <point x="483" y="264" type="curve" smooth="yes"/>
      <point x="483" y="97"/>
      <point x="398" y="13"/>
    </contour>
  </outline>
</glyph>
<glyph name="c" format="2">
  <advance width="509"/>
  <unicode hex="0063"/>
  <anchor x="271" y="0" name="bottom"/>
  <anchor x="285" y="522" name="top"/>
  <outline>
    <contour>
      <point x="271" y="-6" type="curve" smooth="yes"/>
      <point x="328" y="-6"/>
      <point x="393" y="17"/>
      <point x="458" y="66" type="curve"/>
      <point x="447" y="82" type="line"/>
      <point x="388" y="36"/>
      <point x="328" y="14"/>
      <point x="275" y="14" type="curve" smooth="yes"/>
      <point x="166" y="14"/>
      <point x="83" y="103"/>
      <point x="83" y="255" type="curve" smooth="yes"/>
      <point x="83" y="412"/>
      <point x="168" y="509"/>
      <point x="290" y="509" type="curve" smooth="yes"/>
      <point x="322" y="509"/>
      <point x="373" y="502"/>
      <point x="418" y="479" type="curve"/>
      <point x="413" y="488" type="line"/>
      <point x="425" y="382" type="line"/>
      <point x="444" y="382" type="line"/>
      <point x="447" y="486" type="line"/>
      <point x="397" y="516"/>
      <point x="335" y="528"/>
      <point x="294" y="528" type="curve" smooth="yes"/>
      <point x="165" y="528"/>
      <point x="62" y="431"/>
      <point x="62" y="253" type="curve" smooth="yes"/>
      <point x="62" y="91"/>
      <point x="153" y="-6"/>
    </contour>
  </outline>
</glyph>
<glyph name="d" format="2">
  <advance width="582"/>
  <unicode hex="0064"/>
  <anchor x="289" y="0" name="bottom"/>
  <anchor x="289" y="261" name="center"/>
  <anchor x="568" y="762" name="topright"/>
  <outline>
    <contour>
      <point x="261" y="-6" type="curve" smooth="yes"/>
      <point x="319" y="-6"/>
      <point x="383" y="22"/>
      <point x="444" y="80" type="curve"/>
      <point x="440" y="83" type="line"/>
      <point x="445" y="-2" type="line"/>
      <point x="550" y="2" type="line"/>
      <point x="550" y="17" type="line"/>
      <point x="453" y="27" type="line"/>
      <point x="460" y="19" type="line"/>
      <point x="460" y="765" type="line"/>
      <point x="345" y="760" type="line"/>
      <point x="345" y="746" type="line"/>
      <point x="447" y="731" type="line"/>
      <point x="440" y="739" type="line"/>
      <point x="440" y="502" type="line"/>
      <point x="447" y="506" type="line"/>
      <point x="397" y="520"/>
      <point x="351" y="528"/>
      <point x="309" y="528" type="curve" smooth="yes"/>
      <point x="159" y="528"/>
      <point x="64" y="431"/>
      <point x="64" y="256" type="curve" smooth="yes"/>
      <point x="64" y="89"/>
      <point x="152" y="-6"/>
    </contour>
    <contour>
      <point x="263" y="13" type="curve" smooth="yes"/>
      <point x="164" y="13"/>
      <point x="85" y="102"/>
      <point x="85" y="257" type="curve" smooth="yes"/>
      <point x="85" y="417"/>
      <point x="168" y="509"/>
      <point x="308" y="509" type="curve" smooth="yes"/>
      <point x="349" y="509"/>
      <point x="395" y="501"/>
      <point x="445" y="484" type="curve"/>
      <point x="440" y="491" type="line"/>
      <point x="440" y="92" type="line"/>
      <point x="444" y="104" type="line"/>
      <point x="384" y="42"/>
      <point x="320" y="13"/>
    </contour>
  </outline>
</glyph>
<glyph name="g" format="2">
  <advance width="544"/>
  <unicode hex="0067"/>
  <guideline x="48" y="258" angle="90"/>
  <guideline x="354" y="605" angle="0"/>
  <anchor x="270" y="-230" name="bottom"/>
  <anchor x="267" y="522" name="top"/>
  <outline>
    <contour>
      <point x="270" y="-236" type="curve" smooth="yes"/>
      <point x="418" y="-236"/>
      <point x="498" y="-182"/>
      <point x="498" y="-82" type="curve" smooth="yes"/>
      <point x="498" y="9"/>
      <point x="432" y="57"/>
      <point x="309" y="57" type="curve" smooth="yes"/>
      <point x="118" y="57" type="line"/>
      <point x="123" y="49" type="line"/>
      <point x="159" y="203" type="line"/>
      <point x="154" y="198" type="line"/>
      <point x="184" y="182"/>
      <point x="219" y="174"/>
      <point x="259" y="174" type="curve" smooth="yes"/>
      <point x="377" y="174"/>
      <point x="451" y="244"/>
      <point x="451" y="356" type="curve" smooth="yes"/>
      <point x="451" y="412"/>
      <point x="432" y="457"/>
      <point x="396" y="488" type="curve"/>
      <point x="392" y="484" type="line"/>
      <point x="497" y="504" type="line"/>
      <point x="497" y="521" type="line"/>
      <point x="351" y="511" type="line"/>
      <point x="362" y="509" type="line"/>
      <point x="336" y="521"/>
      <point x="304" y="528"/>
      <point x="267" y="528" type="curve" smooth="yes"/>
      <point x="148" y="528"/>
      <point x="74" y="459"/>
      <point x="74" y="347" type="curve" smooth="yes"/>
      <point x="74" y="281"/>
      <point x="101" y="230"/>
      <point x="150" y="201" type="curve"/>
      <point x="147" y="206" type="line"/>
      <point x="107" y="86"/>
      <point x="106" y="81"/>
      <point x="106" y="63" type="curve" smooth="yes"/>
      <point x="106" y="44"/>
      <point x="119" y="37"/>
      <point x="153" y="37" type="curve"/>
      <point x="150" y="40" type="line"/>
      <point x="84" y="-1"/>
      <point x="48" y="-50"/>
      <point x="48" y="-103" type="curve" smooth="yes"/>
      <point x="48" y="-189"/>
      <point x="123" y="-236"/>
    </contour>
    <contour>
      <point x="270" y="-217" type="curve" smooth="yes"/>
      <point x="136" y="-217"/>
      <point x="69" y="-177"/>
      <point x="69" y="-101" type="curve" smooth="yes"/>
      <point x="69" y="-50"/>
      <point x="104" y="-5"/>
      <point x="175" y="40" type="curve"/>
      <point x="162" y="37" type="line"/>
      <point x="305" y="37" type="line" smooth="yes"/>
      <point x="419" y="37"/>
      <point x="477" y="-3"/>
      <point x="477" y="-82" type="curve" smooth="yes"/>
      <point x="477" y="-171"/>
      <point x="406" y="-217"/>
    </contour>
    <contour>
      <point x="260" y="193" type="curve" smooth="yes"/>
      <point x="156" y="193"/>
      <point x="96" y="250"/>
      <point x="96" y="348" type="curve" smooth="yes"/>
      <point x="96" y="450"/>
      <point x="158" y="509"/>
      <point x="265" y="509" type="curve" smooth="yes"/>
      <point x="370" y="509"/>
      <point x="430" y="453"/>
      <point x="430" y="354" type="curve" smooth="yes"/>
      <point x="430" y="253"/>
      <point x="367" y="193"/>
    </contour>
  </outline>
</glyph>
<glyph name="p" format="2">
  <advance width="583"/>
  <unicode hex="0070"/>
  <anchor x="291" y="0" name="bottom"/>
  <anchor x="291" y="522" name="top"/>
  <outline>
    <contour>
      <point x="33" y="-230" type="line"/>
      <point x="248" y="-230" type="line"/>
      <point x="248" y="-215" type="line"/>
      <point x="135" y="-201" type="line"/>
      <point x="143" y="-209" type="line"/>
      <point x="143" y="21" type="line"/>
      <point x="136" y="15" type="line"/>
      <point x="186" y="1"/>
      <point x="232" y="-7"/>
      <point x="274" y="-7" type="curve" smooth="yes"/>
      <point x="424" y="-7"/>
      <point x="519" y="90"/>
      <point x="519" y="265" type="curve" smooth="yes"/>
      <point x="519" y="433"/>
      <point x="431" y="528"/>
      <point x="322" y="528" type="curve" smooth="yes"/>
      <point x="264" y="528"/>
      <point x="200" y="500"/>
      <point x="139" y="441" type="curve"/>
      <point x="143" y="439" type="line"/>
      <point x="138" y="525" type="line"/>
      <point x="33" y="520" type="line"/>
      <point x="33" y="505" type="line"/>
      <point x="130" y="491" type="line"/>
      <point x="123" y="499" type="line"/>
      <point x="123" y="-209" type="line"/>
      <point x="130" y="-201" type="line"/>
      <point x="33" y="-215" type="line"/>
    </contour>
    <contour>
      <point x="275" y="12" type="curve" smooth="yes"/>
      <point x="234" y="12"/>
      <point x="188" y="20"/>
      <point x="138" y="37" type="curve"/>
      <point x="143" y="28" type="line"/>
      <point x="143" y="430" type="line"/>
      <point x="139" y="417" type="line"/>
      <point x="199" y="480"/>
      <point x="263" y="509"/>
      <point x="320" y="509" type="curve" smooth="yes"/>
      <point x="419" y="509"/>
      <point x="498" y="420"/>
      <point x="498" y="264" type="curve" smooth="yes"/>
      <point x="498" y="104"/>
      <point x="415" y="12"/>
    </contour>
  </outline>
</glyph>
<glyph name="q" format="2">
  <advance width="567"/>
  <unicode hex="0071"/>
  <anchor x="284" y="0" name="bottom"/>
  <anchor x="284" y="522" name="top"/>
  <outline>
    <contour>
      <point x="335" y="-230" type="line"/>
      <point x="550" y="-230" type="line"/>
      <point x="550" y="-215" type="line"/>
      <point x="453" y="-201" type="line"/>
      <point x="460" y="-209" type="line"/>
      <point x="460" y="502" type="line"/>
      <point x="405" y="519"/>
      <point x="355" y="528"/>
      <point x="309" y="528" type="curve" smooth="yes"/>
      <point x="159" y="528"/>
      <point x="64" y="431"/>
      <point x="64" y="256" type="curve" smooth="yes"/>
      <point x="64" y="88"/>
      <point x="152" y="-7"/>
      <point x="261" y="-7" type="curve" smooth="yes"/>
      <point x="319" y="-7"/>
      <point x="383" y="21"/>
      <point x="444" y="80" type="curve"/>
      <point x="440" y="83" type="line"/>
      <point x="440" y="-209" type="line"/>
      <point x="447" y="-201" type="line"/>
      <point x="335" y="-215" type="line"/>
    </contour>
    <contour>
      <point x="263" y="12" type="curve" smooth="yes"/>
      <point x="164" y="12"/>
      <point x="85" y="101"/>
      <point x="85" y="257" type="curve" smooth="yes"/>
      <point x="85" y="417"/>
      <point x="168" y="509"/>
      <point x="308" y="509" type="curve" smooth="yes"/>
      <point x="349" y="509"/>
      <point x="395" y="501"/>
      <point x="445" y="484" type="curve"/>
      <point x="440" y="493" type="line"/>
      <point x="440" y="92" type="line"/>
      <point x="444" y="104" type="line"/>
      <point x="384" y="41"/>
      <point x="320" y="12"/>
    </contour>
  </outline>
</glyph>
<glyph name="s" format="2">
  <advance width="475"/>
  <unicode hex="0073"/>
  <anchor x="244" y="0" name="bottom"/>
  <anchor x="250" y="522" name="top"/>
  <outline>
    <contour>
      <point x="96" y="400" type="curve" smooth="yes"/>
      <point x="96" y="476"/>
      <point x="165" y="509"/>
      <point x="250" y="509" type="curve" smooth="yes"/>
      <point x="289" y="509"/>
      <point x="330" y="502"/>
      <point x="366" y="490" type="curve"/>
      <point x="360" y="500" type="line"/>
      <point x="373" y="411" type="line"/>
      <point x="388" y="411" type="line"/>
      <point x="391" y="500" type="line"/>
      <point x="341" y="520"/>
      <point x="291" y="528"/>
      <point x="252" y="528" type="curve" smooth="yes"/>
      <point x="160" y="528"/>
      <point x="77" y="487"/>
      <point x="77" y="397" type="curve" smooth="yes"/>
      <point x="77" y="218"/>
      <point x="390" y="307"/>
      <point x="390" y="137" type="curve" smooth="yes"/>
      <point x="390" y="54"/>
      <point x="311" y="11"/>
      <point x="211" y="11" type="curve" smooth="yes"/>
      <point x="172" y="11"/>
      <point x="128" y="19"/>
      <point x="94" y="27" type="curve"/>
      <point x="100" y="19" type="line"/>
      <point x="91" y="127" type="line"/>
      <point x="77" y="127" type="line"/>
      <point x="70" y="14" type="line"/>
      <point x="116" y="2"/>
      <point x="158" y="-6"/>
      <point x="208" y="-6" type="curve" smooth="yes"/>
      <point x="318" y="-6"/>
      <point x="409" y="41"/>
      <point x="409" y="140" type="curve" smooth="yes"/>
      <point x="409" y="326"/>
      <point x="96" y="236"/>
    </contour>
  </outline>
</glyph>
<glyph name="braceleft" format="2">
  <advance width="320"/>
  <unicode hex="007B"/>
  <guideline x="120" y="858" angle="0"/>
  <guideline x="120" y="-94" angle="0"/>
  <outline>
    <contour>
      <point x="250" y="-94" type="curve" smooth="yes"/>
      <point x="279" y="-94" type="line"/>
      <point x="279" y="-78" type="line"/>
      <point x="181" y="-78"/>
      <point x="162" y="-59"/>
      <point x="162" y="31" type="curve" smooth="yes"/>
      <point x="162" y="259" type="line" smooth="yes"/>
      <point x="162" y="364"/>
      <point x="108" y="376"/>
      <point x="63" y="376" type="curve"/>
      <point x="63" y="368" type="line"/>
      <point x="108" y="368"/>
      <point x="162" y="380"/>
      <point x="162" y="485" type="curve" smooth="yes"/>
      <point x="162" y="713" type="line" smooth="yes"/>
      <point x="162" y="803"/>
      <point x="181" y="822"/>
      <point x="279" y="822" type="curve"/>
      <point x="279" y="838" type="line"/>
      <point x="250" y="838" type="line" smooth="yes"/>
      <point x="170" y="838"/>
      <point x="142" y="808"/>
      <point x="142" y="718" type="curve" smooth="yes"/>
      <point x="142" y="489" type="line" smooth="yes"/>
      <point x="142" y="427"/>
      <point x="121" y="382"/>
      <point x="50" y="382" type="curve"/>
      <point x="50" y="362" type="line"/>
      <point x="121" y="362"/>
      <point x="142" y="317"/>
      <point x="142" y="255" type="curve" smooth="yes"/>
      <point x="142" y="26" type="line" smooth="yes"/>
      <point x="142" y="-64"/>
      <point x="169" y="-94"/>
    </contour>
  </outline>
</glyph>
<glyph name="braceright" format="2">
  <advance width="320"/>
  <unicode hex="007D"/>
  <guideline x="120" y="858" angle="0"/>
  <guideline x="120" y="-94" angle="0"/>
  <outline>
    <contour>
      <point x="70" y="-94" type="curve" smooth="yes"/>
      <point x="41" y="-94" type="line"/>
      <point x="41" y="-78" type="line"/>
      <point x="139" y="-78"/>
      <point x="158" y="-59"/>
      <point x="158" y="31" type="curve" smooth="yes"/>
      <point x="158" y="259" type="line" smooth="yes"/>
      <point x="158" y="364"/>
      <point x="212" y="376"/>
      <point x="257" y="376" type="curve"/>
      <point x="257" y="368" type="line"/>
      <point x="212" y="368"/>
      <point x="158" y="380"/>
      <point x="158" y="485" type="curve" smooth="yes"/>
      <point x="158" y="713" type="line" smooth="yes"/>
      <point x="158" y="803"/>
      <point x="139" y="822"/>
      <point x="41" y="822" type="curve"/>
      <point x="41" y="838" type="line"/>
      <point x="70" y="838" type="line" smooth="yes"/>
      <point x="150" y="838"/>
      <point x="178" y="808"/>
      <point x="178" y="718" type="curve" smooth="yes"/>
      <point x="178" y="489" type="line" smooth="yes"/>
      <point x="178" y="427"/>
      <point x="199" y="382"/>
      <point x="270" y="382" type="curve"/>
      <point x="270" y="362" type="line"/>
      <point x="199" y="362"/>
      <point x="178" y="317"/>
      <point x="178" y="255" type="curve" smooth="yes"/>
      <point x="178" y="26" type="line" smooth="yes"/>
      <point x="178" y="-64"/>
      <point x="151" y="-94"/>
    </contour>
  </outline>
</glyph>
<glyph name="exclamdown" format="2">
  <advance width="344"/>
  <unicode hex="00A1"/>
  <outline>
    <contour>
      <point x="182" y="261" type="line"/>
      <point x="162" y="259" type="line"/>
      <point x="160" y="-230" type="line"/>
      <point x="184" y="-230" type="line"/>
    </contour>
    <contour>
      <point x="197" y="442" type="curve" smooth="yes"/>
      <point x="197" y="458"/>
      <point x="187" y="468"/>
      <point x="172" y="468" type="curve" smooth="yes"/>
      <point x="159" y="468"/>
      <point x="147" y="458"/>
      <point x="147" y="442" type="curve" smooth="yes"/>
      <point x="147" y="426"/>
      <point x="157" y="416"/>
      <point x="172" y="416" type="curve" smooth="yes"/>
      <point x="185" y="416"/>
      <point x="197" y="426"/>
    </contour>
  </outline>
</glyph>
<glyph name="sterling" format="2">
  <advance width="707"/>
  <unicode hex="00A3"/>
  <outline>
    <contour>
      <point x="97" y="0" type="line"/>
      <point x="579" y="0" type="line"/>
      <point x="579" y="142" type="line"/>
      <point x="564" y="142" type="line"/>
      <point x="549" y="10" type="line"/>
      <point x="559" y="19" type="line"/>
      <point x="192" y="22" type="line"/>
      <point x="196" y="19" type="line"/>
      <point x="244" y="50"/>
      <point x="259" y="111"/>
      <point x="259" y="184" type="curve" smooth="yes"/>
      <point x="259" y="240"/>
      <point x="250" y="302"/>
      <point x="242" y="363" type="curve"/>
      <point x="234" y="357" type="line"/>
      <point x="445" y="357" type="line"/>
      <point x="445" y="376" type="line"/>
      <point x="231" y="376" type="line"/>
      <point x="241" y="370" type="line"/>
      <point x="233" y="429"/>
      <point x="225" y="490"/>
      <point x="225" y="530" type="curve" smooth="yes"/>
      <point x="225" y="640"/>
      <point x="287" y="678"/>
      <point x="399" y="678" type="curve" smooth="yes"/>
      <point x="440" y="678"/>
      <point x="493" y="673"/>
      <point x="550" y="661" type="curve"/>
      <point x="542" y="671" type="line"/>
      <point x="553" y="543" type="line"/>
      <point x="568" y="543" type="line"/>
      <point x="573" y="677" type="line"/>
      <point x="510" y="690"/>
      <point x="452" y="698"/>
      <point x="401" y="698" type="curve" smooth="yes"/>
      <point x="281" y="698"/>
      <point x="203" y="653"/>
      <point x="203" y="527" type="curve" smooth="yes"/>
      <point x="203" y="486"/>
      <point x="211" y="428"/>
      <point x="219" y="370" type="curve"/>
      <point x="227" y="376" type="line"/>
      <point x="97" y="372" type="line"/>
      <point x="97" y="357" type="line"/>
      <point x="229" y="357" type="line"/>
      <point x="219" y="363" type="line"/>
      <point x="227" y="301"/>
      <point x="236" y="239"/>
      <point x="236" y="183" type="curve" smooth="yes"/>
      <point x="236" y="116"/>
      <point x="223" y="58"/>
      <point x="182" y="29" type="curve"/>
      <point x="195" y="34" type="line"/>
      <point x="97" y="15" type="line"/>
    </contour>
  </outline>
</glyph>
<glyph name="registered" format="2">
  <advance width="796"/>
  <unicode hex="00AE"/>
  <outline>
    <contour>
      <point x="261" y="287" type="line"/>
      <point x="395" y="287" type="line"/>
      <point x="395" y="298" type="line"/>
      <point x="324" y="309" type="line"/>
      <point x="330" y="301" type="line"/>
      <point x="330" y="460" type="line"/>
      <point x="324" y="452" type="line"/>
      <point x="367" y="452" type="line" smooth="yes"/>
      <point x="410" y="452"/>
      <point x="436" y="451"/>
      <point x="465" y="392" type="curve" smooth="yes"/>
      <point x="517" y="287" type="line"/>
      <point x="567" y="287" type="line"/>
      <point x="567" y="298" type="line"/>
      <point x="526" y="307" type="line"/>
      <point x="534" y="298" type="line"/>
      <point x="485" y="395" type="line" smooth="yes"/>
      <point x="465" y="434"/>
      <point x="448" y="458"/>
      <point x="406" y="463" type="curve"/>
      <point x="406" y="457" type="line"/>
      <point x="482" y="463"/>
      <point x="518" y="501"/>
      <point x="518" y="547" type="curve" smooth="yes"/>
      <point x="518" y="601"/>
      <point x="476" y="630"/>
      <point x="399" y="630" type="curve" smooth="yes"/>
      <point x="329" y="630" type="line"/>
      <point x="261" y="628" type="line"/>
      <point x="261" y="616" type="line"/>
      <point x="319" y="611" type="line"/>
      <point x="310" y="619" type="line"/>
      <point x="310" y="301" type="line"/>
      <point x="319" y="309" type="line"/>
      <point x="261" y="298" type="line"/>
    </contour>
    <contour>
      <point x="330" y="464" type="line"/>
      <point x="330" y="623" type="line"/>
      <point x="324" y="611" type="line"/>
      <point x="398" y="611" type="line" smooth="yes"/>
      <point x="465" y="611"/>
      <point x="497" y="587"/>
      <point x="497" y="547" type="curve" smooth="yes"/>
      <point x="497" y="500"/>
      <point x="457" y="471"/>
      <point x="378" y="471" type="curve" smooth="yes"/>
      <point x="324" y="471" type="line"/>
    </contour>
    <contour>
      <point x="390" y="173" type="curve" smooth="yes"/>
      <point x="556" y="174"/>
      <point x="685" y="299"/>
      <point x="685" y="460" type="curve" smooth="yes"/>
      <point x="685" y="622"/>
      <point x="566" y="736"/>
      <point x="399" y="737" type="curve" smooth="yes"/>
      <point x="235" y="736"/>
      <point x="113" y="613"/>
      <point x="113" y="450" type="curve" smooth="yes"/>
      <point x="112" y="286"/>
      <point x="225" y="174"/>
    </contour>
    <contour>
      <point x="391" y="192" type="curve" smooth="yes"/>
      <point x="236" y="192"/>
      <point x="133" y="297"/>
      <point x="134" y="451" type="curve" smooth="yes"/>
      <point x="133" y="605"/>
      <point x="244" y="718"/>
      <point x="398" y="718" type="curve" smooth="yes"/>
      <point x="554" y="718"/>
      <point x="665" y="611"/>
      <point x="665" y="459" type="curve" smooth="yes"/>
      <point x="665" y="307"/>
      <point x="547" y="192"/>
    </contour>
  </outline>
</glyph>
<glyph name="degree" format="2">
  <advance width="449"/>
  <unicode hex="00B0"/>
  <outline>
    <contour>
      <point x="194" y="457" type="curve" smooth="yes"/>
      <point x="275" y="457"/>
      <point x="329" y="511"/>
      <point x="329" y="593" type="curve" smooth="yes"/>
      <point x="329" y="674"/>
      <point x="276" y="728"/>
      <point x="196" y="728" type="curve" smooth="yes"/>
      <point x="114" y="728"/>
      <point x="60" y="674"/>
      <point x="60" y="593" type="curve" smooth="yes"/>
      <point x="60" y="510"/>
      <point x="112" y="457"/>
    </contour>
    <contour>
      <point x="195" y="475" type="curve" smooth="yes"/>
      <point x="125" y="476"/>
      <point x="80" y="522"/>
      <point x="79" y="594" type="curve" smooth="yes"/>
      <point x="80" y="665"/>
      <point x="124" y="710"/>
      <point x="195" y="710" type="curve" smooth="yes"/>
      <point x="264" y="710"/>
      <point x="310" y="663"/>
      <point x="309" y="593" type="curve" smooth="yes"/>
      <point x="309" y="520"/>
      <point x="265" y="475"/>
    </contour>
  </outline>
</glyph>
<glyph name="guillemetright" format="2">
  <advance width="460"/>
  <unicode hex="00BB"/>
  <guideline x="27" y="75" angle="0"/>
  <outline>
    <contour>
      <point x="251" y="460" type="line"/>
      <point x="239" y="450" type="line"/>
      <point x="378" y="263" type="line"/>
      <point x="378" y="277" type="line"/>
      <point x="239" y="91" type="line"/>
      <point x="251" y="81" type="line"/>
      <point x="393" y="260" type="line"/>
      <point x="393" y="281" type="line"/>
    </contour>
    <contour>
      <point x="93" y="460" type="line"/>
      <point x="81" y="450" type="line"/>
      <point x="220" y="263" type="line"/>
      <point x="220" y="277" type="line"/>
      <point x="81" y="91" type="line"/>
      <point x="93" y="81" type="line"/>
      <point x="235" y="260" type="line"/>
      <point x="235" y="281" type="line"/>
    </contour>
  </outline>
</glyph>
<glyph name="questiondown" format="2">
  <advance width="402"/>
  <unicode hex="00BF"/>
  <outline>
    <contour>
      <point x="258" y="311" type="curve"/>
      <point x="239" y="309" type="line"/>
      <point x="240" y="290"/>
      <point x="242" y="263"/>
      <point x="242" y="251" type="curve" smooth="yes"/>
      <point x="242" y="135"/>
      <point x="56" y="87"/>
      <point x="56" y="-56" type="curve" smooth="yes"/>
      <point x="56" y="-140"/>
      <point x="119" y="-176"/>
      <point x="200" y="-176" type="curve" smooth="yes"/>
      <point x="238" y="-176"/>
      <point x="281" y="-168"/>
      <point x="323" y="-152" type="curve"/>
      <point x="317" y="-135" type="line"/>
      <point x="276" y="-149"/>
      <point x="236" y="-157"/>
      <point x="201" y="-157" type="curve" smooth="yes"/>
      <point x="130" y="-157"/>
      <point x="77" y="-126"/>
      <point x="77" y="-55" type="curve" smooth="yes"/>
      <point x="77" y="78"/>
      <point x="263" y="129"/>
      <point x="263" y="246" type="curve" smooth="yes"/>
      <point x="263" y="261"/>
      <point x="260" y="290"/>
    </contour>
    <contour>
      <point x="260" y="502" type="curve" smooth="yes"/>
      <point x="260" y="518"/>
      <point x="250" y="528"/>
      <point x="235" y="528" type="curve" smooth="yes"/>
      <point x="222" y="528"/>
      <point x="210" y="518"/>
      <point x="210" y="502" type="curve" smooth="yes"/>
      <point x="210" y="486"/>
      <point x="220" y="476"/>
      <point x="235" y="476" type="curve" smooth="yes"/>
      <point x="248" y="476"/>
      <point x="260" y="486"/>
    </contour>
  </outline>
</glyph>
<glyph name="AE" format="2">
  <advance width="949"/>
  <unicode hex="00C6"/>
  <anchor x="470" y="0" name="bottom"/>
  <anchor x="589" y="692" name="top"/>
  <outline>
    <contour>
      <point x="0" y="0" type="line"/>
      <point x="229" y="0" type="line"/>
      <point x="229" y="15" type="line"/>
      <point x="108" y="29" type="line"/>
      <point x="112" y="22" type="line"/>
      <point x="226" y="232" type="line"/>
      <point x="216" y="226" type="line"/>
      <point x="488" y="226" type="line"/>
      <point x="481" y="233" type="line"/>
      <point x="481" y="21" type="line"/>
      <point x="488" y="29" type="line"/>
      <point x="381" y="15" type="line"/>
      <point x="381" y="0" type="line"/>
      <point x="865" y="0" type="line"/>
      <point x="865" y="141" type="line"/>
      <point x="850" y="141" type="line"/>
      <point x="835" y="12" type="line"/>
      <point x="843" y="19" type="line"/>
      <point x="494" y="19" type="line"/>
      <point x="501" y="12" type="line"/>
      <point x="501" y="366" type="line"/>
      <point x="494" y="359" type="line"/>
      <point x="784" y="359" type="line"/>
      <point x="784" y="378" type="line"/>
      <point x="494" y="378" type="line"/>
      <point x="501" y="371" type="line"/>
      <point x="501" y="680" type="line"/>
      <point x="494" y="673" type="line"/>
      <point x="830" y="673" type="line"/>
      <point x="822" y="680" type="line"/>
      <point x="837" y="556" type="line"/>
      <point x="852" y="556" type="line"/>
      <point x="852" y="692" type="line"/>
      <point x="502" y="692" type="line"/>
      <point x="348" y="687" type="line"/>
      <point x="348" y="672" type="line"/>
      <point x="447" y="664" type="line"/>
      <point x="443" y="671" type="line"/>
      <point x="90" y="22" type="line"/>
      <point x="100" y="29" type="line"/>
      <point x="0" y="15" type="line"/>
    </contour>
    <contour>
      <point x="230" y="239" type="line"/>
      <point x="469" y="679" type="line"/>
      <point x="459" y="673" type="line"/>
      <point x="488" y="673" type="line"/>
      <point x="481" y="680" type="line"/>
      <point x="481" y="238" type="line"/>
      <point x="488" y="245" type="line"/>
      <point x="226" y="245" type="line"/>
    </contour>
  </outline>
</glyph>
<glyph name="Eth" format="2">
  <advance width="724"/>
  <unicode hex="00D0"/>
  <guideline x="68" y="249" angle="90"/>
  <outline>
    <contour>
      <point x="60.935599999999994" y="345" type="line"/>
      <point x="380.9362" y="345" type="line"/>
      <point x="380.9362" y="364" type="line"/>
      <point x="60.935599999999994" y="364" type="line"/>
    </contour>
    <component base="D"/>
  </outline>
</glyph>
<glyph name="multiply" format="2">
  <advance width="513"/>
  <unicode hex="00D7"/>
  <outline>
    <contour>
      <point x="94" y="172" type="line"/>
      <point x="263" y="341" type="line"/>
      <point x="250" y="341" type="line"/>
      <point x="419" y="172" type="line"/>
      <point x="433" y="186" type="line"/>
      <point x="264" y="355" type="line"/>
      <point x="264" y="342" type="line"/>
      <point x="433" y="511" type="line"/>
      <point x="419" y="525" type="line"/>
      <point x="250" y="356" type="line"/>
      <point x="263" y="356" type="line"/>
      <point x="94" y="525" type="line"/>
      <point x="80" y="511" type="line"/>
      <point x="249" y="342" type="line"/>
      <point x="249" y="355" type="line"/>
      <point x="80" y="186" type="line"/>
    </contour>
  </outline>
</glyph>
<glyph name="idieresis" format="2">
  <advance width="278"/>
  <unicode hex="00EF"/>
  <guideline x="154" y="663" angle="0"/>
  <anchor x="146" y="0" name="bottom"/>
  <anchor x="246" y="0" name="ogonek"/>
  <outline>
    <contour>
      <point x="223" y="663" type="curve" smooth="yes"/>
      <point x="236" y="663"/>
      <point x="248" y="674"/>
      <point x="248" y="692" type="curve" smooth="yes"/>
      <point x="248" y="711"/>
      <point x="238" y="722"/>
      <point x="223" y="722" type="curve" smooth="yes"/>
      <point x="209" y="722"/>
      <point x="198" y="711"/>
      <point x="198" y="692" type="curve" smooth="yes"/>
      <point x="198" y="674"/>
      <point x="208" y="663"/>
    </contour>
    <contour>
      <point x="51" y="663" type="curve" smooth="yes"/>
      <point x="64" y="663"/>
      <point x="76" y="674"/>
      <point x="76" y="692" type="curve" smooth="yes"/>
      <point x="76" y="711"/>
      <point x="66" y="722"/>
      <point x="51" y="722" type="curve" smooth="yes"/>
      <point x="37" y="722"/>
      <point x="26" y="711"/>
      <point x="26" y="692" type="curve" smooth="yes"/>
      <point x="26" y="674"/>
      <point x="36" y="663"/>
    </contour>
    <contour>
      <point x="156" y="21" type="line"/>
      <point x="156" y="525" type="line"/>
      <point x="46" y="520" type="line"/>
      <point x="46" y="505" type="line"/>
      <point x="143" y="491" type="line"/>
      <point x="136" y="499" type="line"/>
      <point x="136" y="21" type="line"/>
      <point x="143" y="29" type="line"/>
      <point x="46" y="15" type="line"/>
      <point x="46" y="0" type="line"/>
      <point x="246" y="0" type="line"/>
      <point x="246" y="15" type="line"/>
      <point x="149" y="29" type="line"/>
    </contour>
  </outline>
</glyph>
<glyph name="eth" format="2">
  <advance width="588"/>
  <unicode hex="00F0"/>
  <outline>
    <contour>
      <point x="277" y="-6" type="curve" smooth="yes"/>
      <point x="416" y="-6"/>
      <point x="511" y="94"/>
      <point x="511" y="312" type="curve" smooth="yes"/>
      <point x="511" y="545"/>
      <point x="403" y="768"/>
      <point x="160" y="768" type="curve"/>
      <point x="157" y="749" type="line"/>
      <point x="349" y="749"/>
      <point x="458" y="601"/>
      <point x="487" y="396" type="curve"/>
      <point x="490" y="396" type="line"/>
      <point x="454" y="479"/>
      <point x="389" y="528"/>
      <point x="296" y="528" type="curve" smooth="yes"/>
      <point x="156" y="528"/>
      <point x="64" y="418"/>
      <point x="64" y="246" type="curve" smooth="yes"/>
      <point x="64" y="89"/>
      <point x="141" y="-6"/>
    </contour>
    <contour>
      <point x="277" y="13" type="curve" smooth="yes"/>
      <point x="158" y="13"/>
      <point x="85" y="102"/>
      <point x="85" y="251" type="curve" smooth="yes"/>
      <point x="85" y="404"/>
      <point x="162" y="509"/>
      <point x="296" y="509" type="curve" smooth="yes"/>
      <point x="421" y="509"/>
      <point x="490" y="418"/>
      <point x="490" y="277" type="curve" smooth="yes"/>
      <point x="490" y="127"/>
      <point x="413" y="13"/>
    </contour>
    <contour>
      <point x="228" y="613" type="line"/>
      <point x="469" y="752" type="line"/>
      <point x="459" y="768" type="line"/>
      <point x="218" y="629" type="line"/>
    </contour>
  </outline>
</glyph>
<glyph name="oslash" format="2">
  <advance width="574"/>
  <unicode hex="00F8"/>
  <guideline x="303" y="445" angle="90"/>
  <anchor x="287" y="0" name="bottom"/>
  <anchor x="332" y="0" name="ogonek"/>
  <anchor x="287" y="522" name="top"/>
  <outline>
    <contour>
      <point x="483" y="590" type="line"/>
      <point x="419" y="485" type="line"/>
      <point x="416" y="480" type="line"/>
      <point x="153" y="48" type="line"/>
      <point x="150" y="43" type="line"/>
      <point x="87" y="-60" type="line"/>
      <point x="104" y="-71" type="line"/>
      <point x="167" y="33" type="line"/>
      <point x="170" y="38" type="line"/>
      <point x="431" y="467" type="line"/>
      <point x="434" y="471" type="line"/>
      <point x="500" y="580" type="line"/>
    </contour>
    <contour>
      <point x="293" y="528" type="curve" smooth="yes"/>
      <point x="151" y="528"/>
      <point x="64" y="418"/>
      <point x="64" y="249" type="curve" smooth="yes"/>
      <point x="64" y="84"/>
      <point x="146" y="-6"/>
      <point x="277" y="-6" type="curve" smooth="yes"/>
      <point x="424" y="-6"/>
      <point x="511" y="106"/>
      <point x="511" y="270" type="curve" smooth="yes"/>
      <point x="511" y="432"/>
      <point x="426" y="528"/>
    </contour>
    <contour>
      <point x="291" y="509" type="curve" smooth="yes"/>
      <point x="414" y="509"/>
      <point x="490" y="418"/>
      <point x="490" y="267" type="curve" smooth="yes"/>
      <point x="490" y="116"/>
      <point x="413" y="13"/>
      <point x="279" y="13" type="curve" smooth="yes"/>
      <point x="158" y="13"/>
      <point x="85" y="98"/>
      <point x="85" y="251" type="curve" smooth="yes"/>
      <point x="85" y="407"/>
      <point x="161" y="509"/>
    </contour>
  </outline>
</glyph>
<glyph name="hbar" format="2">
  <advance width="610"/>
  <unicode hex="0127"/>
  <guideline x="33" y="702" angle="90"/>
  <outline>
    <contour>
      <point x="33" y="641" type="line"/>
      <point x="33" y="622" type="line"/>
      <point x="348" y="622" type="line"/>
      <point x="348" y="641" type="line"/>
    </contour>
    <contour>
      <point x="33" y="0" type="line"/>
      <point x="233" y="0" type="line"/>
      <point x="233" y="15" type="line"/>
      <point x="136" y="29" type="line"/>
      <point x="143" y="21" type="line"/>
      <point x="143" y="414" type="line"/>
      <point x="139" y="403" type="line"/>
      <point x="208" y="476"/>
      <point x="285" y="509"/>
      <point x="347" y="509" type="curve" smooth="yes"/>
      <point x="426" y="509"/>
      <point x="478" y="463"/>
      <point x="476" y="363" type="curve"/>
      <point x="476" y="21" type="line"/>
      <point x="483" y="29" type="line"/>
      <point x="386" y="15" type="line"/>
      <point x="386" y="0" type="line"/>
      <point x="586" y="0" type="line"/>
      <point x="586" y="15" type="line"/>
      <point x="489" y="29" type="line"/>
      <point x="496" y="21" type="line"/>
      <point x="496" y="368" type="line" smooth="yes"/>
      <point x="498" y="477"/>
      <point x="436" y="528"/>
      <point x="348" y="528" type="curve" smooth="yes"/>
      <point x="283" y="528"/>
      <point x="206" y="497"/>
      <point x="139" y="427" type="curve"/>
      <point x="143" y="424" type="line"/>
      <point x="143" y="765" type="line"/>
      <point x="33" y="760" type="line"/>
      <point x="33" y="745" type="line"/>
      <point x="130" y="731" type="line"/>
      <point x="123" y="739" type="line"/>
      <point x="123" y="21" type="line"/>
      <point x="130" y="29" type="line"/>
      <point x="33" y="15" type="line"/>
    </contour>
  </outline>
</glyph>
<glyph name="imacron" format="2">
  <advance width="278"/>
  <unicode hex="012B"/>
  <guideline x="52" y="594" angle="90"/>
  <guideline x="252" y="594" angle="90"/>
  <outline>
    <contour>
      <point x="243" y="702" type="line"/>
      <point x="52" y="702" type="line"/>
      <point x="52" y="681" type="line"/>
      <point x="243" y="681" type="line"/>
    </contour>
    <component base="idotless"/>
  </outline>
</glyph>
<glyph name="kgreenlandic" format="2">
  <advance width="559"/>
  <unicode hex="0138"/>
  <guideline x="293" y="303" angle="0"/>
  <guideline x="293" y="284" angle="0"/>
  <outline>
    <contour>
      <point x="46" y="0" type="line"/>
      <point x="260" y="0" type="line"/>
      <point x="260" y="15" type="line"/>
      <point x="149" y="29" type="line"/>
      <point x="156" y="21" type="line"/>
      <point x="156" y="286" type="line"/>
      <point x="149" y="278" type="line"/>
      <point x="302" y="278" type="line"/>
      <point x="293" y="285" type="line"/>
      <point x="462" y="0" type="line"/>
      <point x="555" y="0" type="line"/>
      <point x="555" y="14" type="line"/>
      <point x="461" y="31" type="line"/>
      <point x="471" y="24" type="line"/>
      <point x="306" y="300" type="line"/>
      <point x="307" y="288" type="line"/>
      <point x="431" y="502" type="line"/>
      <point x="421" y="495" type="line"/>
      <point x="517" y="511" type="line"/>
      <point x="517" y="525" type="line"/>
      <point x="318" y="520" type="line"/>
      <point x="318" y="506" type="line"/>
      <point x="415" y="495" type="line"/>
      <point x="412" y="502" type="line"/>
      <point x="288" y="292" type="line"/>
      <point x="297" y="297" type="line"/>
      <point x="149" y="297" type="line"/>
      <point x="156" y="291" type="line"/>
      <point x="156" y="525" type="line"/>
      <point x="46" y="520" type="line"/>
      <point x="46" y="505" type="line"/>
      <point x="143" y="491" type="line"/>
      <point x="136" y="499" type="line"/>
      <point x="136" y="21" type="line"/>
      <point x="143" y="29" type="line"/>
      <point x="46" y="15" type="line"/>
    </contour>
  </outline>
</glyph>
<glyph name="napostrophe" format="2">
  <advance width="684"/>
  <unicode hex="0149"/>
  <outline>
    <contour>
      <point x="36" y="745" type="curve" smooth="yes"/>
      <point x="36" y="727"/>
      <point x="52" y="723"/>
      <point x="52" y="704" type="curve" smooth="yes"/>
      <point x="52" y="690"/>
      <point x="47" y="662"/>
      <point x="21" y="613" type="curve"/>
      <point x="33" y="605" type="line"/>
      <point x="71" y="666"/>
      <point x="86" y="720"/>
      <point x="86" y="741" type="curve" smooth="yes"/>
      <point x="86" y="761"/>
      <point x="73" y="771"/>
      <point x="60" y="771" type="curve" smooth="yes"/>
      <point x="48" y="771"/>
      <point x="36" y="762"/>
    </contour>
    <component base="n" xOffset="61"/>
  </outline>
</glyph>
<glyph name="Eng" format="2">
  <advance width="812"/>
  <unicode hex="014A"/>
  <outline>
    <contour>
      <point x="532" y="-236" type="curve" smooth="yes"/>
      <point x="597" y="-236"/>
      <point x="664" y="-212"/>
      <point x="664" y="-107" type="curve" smooth="yes"/>
      <point x="664" y="671" type="line"/>
      <point x="657" y="663" type="line"/>
      <point x="764" y="677" type="line"/>
      <point x="764" y="692" type="line"/>
      <point x="529" y="687" type="line"/>
      <point x="529" y="671" type="line"/>
      <point x="651" y="665" type="line"/>
      <point x="644" y="672" type="line"/>
      <point x="644" y="28" type="line"/>
      <point x="648" y="29" type="line"/>
      <point x="186" y="692" type="line"/>
      <point x="61" y="687" type="line"/>
      <point x="61" y="672" type="line"/>
      <point x="168" y="663" type="line"/>
      <point x="161" y="671" type="line"/>
      <point x="161" y="21" type="line"/>
      <point x="168" y="29" type="line"/>
      <point x="61" y="15" type="line"/>
      <point x="61" y="0" type="line"/>
      <point x="296" y="0" type="line"/>
      <point x="296" y="15" type="line"/>
      <point x="174" y="29" type="line"/>
      <point x="181" y="21" type="line"/>
      <point x="181" y="670" type="line"/>
      <point x="177" y="669" type="line"/>
      <point x="648" y="-9" type="line"/>
      <point x="644" y="4" type="line"/>
      <point x="644" y="-107" type="line" smooth="yes"/>
      <point x="644" y="-185"/>
      <point x="609" y="-217"/>
      <point x="532" y="-217" type="curve" smooth="yes"/>
      <point x="521" y="-217"/>
      <point x="510" y="-216"/>
      <point x="497" y="-215" type="curve"/>
      <point x="495" y="-234" type="line"/>
      <point x="507" y="-235"/>
      <point x="519" y="-236"/>
    </contour>
  </outline>
</glyph>
<glyph name="eng" format="2">
  <advance width="609"/>
  <unicode hex="014B"/>
  <outline>
    <contour>
      <point x="374" y="-236" type="curve" smooth="yes"/>
      <point x="494" y="-236"/>
      <point x="509" y="-163"/>
      <point x="509" y="-68" type="curve" smooth="yes"/>
      <point x="509" y="368" type="line" smooth="yes"/>
      <point x="509" y="477"/>
      <point x="449" y="528"/>
      <point x="361" y="528" type="curve" smooth="yes"/>
      <point x="296" y="528"/>
      <point x="219" y="497"/>
      <point x="152" y="427" type="curve"/>
      <point x="156" y="424" type="line"/>
      <point x="151" y="525" type="line"/>
      <point x="46" y="520" type="line"/>
      <point x="46" y="505" type="line"/>
      <point x="143" y="491" type="line"/>
      <point x="136" y="499" type="line"/>
      <point x="136" y="21" type="line"/>
      <point x="143" y="29" type="line"/>
      <point x="46" y="15" type="line"/>
      <point x="46" y="0" type="line"/>
      <point x="246" y="0" type="line"/>
      <point x="246" y="15" type="line"/>
      <point x="149" y="29" type="line"/>
      <point x="156" y="21" type="line"/>
      <point x="156" y="414" type="line"/>
      <point x="152" y="403" type="line"/>
      <point x="221" y="476"/>
      <point x="298" y="509"/>
      <point x="360" y="509" type="curve" smooth="yes"/>
      <point x="439" y="509"/>
      <point x="489" y="463"/>
      <point x="489" y="363" type="curve" smooth="yes"/>
      <point x="489" y="-77" type="line" smooth="yes"/>
      <point x="489" y="-179"/>
      <point x="457" y="-217"/>
      <point x="376" y="-217" type="curve" smooth="yes"/>
      <point x="366" y="-217"/>
      <point x="355" y="-216"/>
      <point x="343" y="-215" type="curve"/>
      <point x="341" y="-234" type="line"/>
      <point x="353" y="-235"/>
      <point x="364" y="-236"/>
    </contour>
  </outline>
</glyph>
<glyph name="Tbar" format="2">
  <advance width="558"/>
  <unicode hex="0166"/>
  <outline>
    <contour>
      <point x="118.9356" y="345" type="line"/>
      <point x="438.9362" y="345" type="line"/>
      <point x="438.9362" y="364" type="line"/>
      <point x="118.9356" y="364" type="line"/>
    </contour>
    <component base="T"/>
  </outline>
</glyph>
<glyph name="tbar" format="2">
  <advance width="340"/>
  <unicode hex="0167"/>
  <guideline x="25" y="454" angle="90"/>
  <guideline x="306" y="454" angle="90"/>
  <outline>
    <contour>
      <point x="19" y="291" type="line"/>
      <point x="298" y="291" type="line"/>
      <point x="298" y="310" type="line"/>
      <point x="19" y="310" type="line"/>
    </contour>
    <component base="t"/>
  </outline>
</glyph>
<glyph name="ohorn" format="2">
  <advance width="574"/>
  <unicode hex="01A1"/>
  <guideline x="333" y="656" angle="0"/>
  <anchor x="287" y="0" name="bottom"/>
  <anchor x="295" y="522" name="top"/>
  <outline>
    <contour>
      <point x="277" y="-6" type="curve" smooth="yes"/>
      <point x="424" y="-6"/>
      <point x="511" y="106"/>
      <point x="511" y="270" type="curve" smooth="yes"/>
      <point x="511" y="432"/>
      <point x="426" y="528"/>
      <point x="293" y="528" type="curve" smooth="yes"/>
      <point x="151" y="528"/>
      <point x="64" y="418"/>
      <point x="64" y="249" type="curve" smooth="yes"/>
      <point x="64" y="84"/>
      <point x="146" y="-6"/>
    </contour>
    <contour>
      <point x="279" y="13" type="curve" smooth="yes"/>
      <point x="158" y="13"/>
      <point x="85" y="98"/>
      <point x="85" y="251" type="curve" smooth="yes"/>
      <point x="85" y="407"/>
      <point x="161" y="509"/>
      <point x="291" y="509" type="curve" smooth="yes"/>
      <point x="414" y="509"/>
      <point x="490" y="418"/>
      <point x="490" y="267" type="curve" smooth="yes"/>
      <point x="490" y="116"/>
      <point x="413" y="13"/>
    </contour>
    <contour>
      <point x="395" y="494" type="line"/>
      <point x="481" y="497"/>
      <point x="524" y="526"/>
      <point x="524" y="585" type="curve" smooth="yes"/>
      <point x="524" y="605"/>
      <point x="520" y="628"/>
      <point x="510" y="656" type="curve"/>
      <point x="490" y="649" type="line"/>
      <point x="498" y="625"/>
      <point x="502" y="604"/>
      <point x="502" y="587" type="curve" smooth="yes"/>
      <point x="502" y="533"/>
      <point x="459" y="513"/>
      <point x="365" y="512" type="curve"/>
    </contour>
  </outline>
</glyph>
<glyph name="commaturnedmod" format="2">
  <advance width="115"/>
  <unicode hex="02BB"/>
  <outline>
    <contour>
      <point x="80" y="663" type="curve" smooth="yes"/>
      <point x="80" y="681"/>
      <point x="64" y="685"/>
      <point x="64" y="704" type="curve" smooth="yes"/>
      <point x="64" y="718"/>
      <point x="69" y="746"/>
      <point x="95" y="795" type="curve"/>
      <point x="83" y="803" type="line"/>
      <point x="45" y="742"/>
      <point x="30" y="688"/>
      <point x="30" y="667" type="curve" smooth="yes"/>
      <point x="30" y="647"/>
      <point x="43" y="637"/>
      <point x="56" y="637" type="curve" smooth="yes"/>
      <point x="68" y="637"/>
      <point x="80" y="646"/>
    </contour>
  </outline>
</glyph>
<glyph name="ringhalfright" format="2">
  <advance width="270"/>
  <unicode hex="02BE"/>
  <outline>
    <contour>
      <point x="96" y="627" type="line"/>
      <point x="147" y="627"/>
      <point x="174" y="663"/>
      <point x="174" y="700" type="curve" smooth="yes"/>
      <point x="174" y="735"/>
      <point x="149" y="770"/>
      <point x="98" y="770" type="curve"/>
      <point x="97" y="751" type="line"/>
      <point x="134" y="751"/>
      <point x="152" y="725"/>
      <point x="152" y="698" type="curve" smooth="yes"/>
      <point x="152" y="672"/>
      <point x="135" y="646"/>
      <point x="97" y="646" type="curve"/>
    </contour>
  </outline>
</glyph>
<glyph name="ringhalfleft" format="2">
  <advance width="266"/>
  <unicode hex="02BF"/>
  <outline>
    <contour>
      <point x="173" y="627" type="curve"/>
      <point x="173" y="646" type="line"/>
      <point x="138" y="646"/>
      <point x="118" y="668"/>
      <point x="118" y="698" type="curve" smooth="yes"/>
      <point x="118" y="729"/>
      <point x="138" y="751"/>
      <point x="173" y="751" type="curve"/>
      <point x="173" y="770" type="line"/>
      <point x="133" y="770"/>
      <point x="96" y="744"/>
      <point x="96" y="697" type="curve" smooth="yes"/>
      <point x="96" y="648"/>
      <point x="135" y="627"/>
    </contour>
  </outline>
</glyph>
<glyph name="caron" format="2">
  <advance width="381"/>
  <unicode hex="02C7"/>
  <outline>
    <contour>
      <point x="306" y="768" type="line"/>
      <point x="184" y="664" type="line"/>
      <point x="193" y="664" type="line"/>
      <point x="67" y="768" type="line"/>
      <point x="55" y="755" type="line"/>
      <point x="181" y="641" type="line"/>
      <point x="196" y="641" type="line"/>
      <point x="318" y="755" type="line"/>
    </contour>
  </outline>
</glyph>
<glyph name="verticallinemod" format="2">
  <advance width="246"/>
  <unicode hex="02C8"/>
  <anchor x="123" y="522" name="_top"/>
  <outline>
    <contour>
      <point x="112" y="634" type="line"/>
      <point x="134" y="634" type="line"/>
      <point x="134" y="809" type="line"/>
      <point x="112" y="809" type="line"/>
    </contour>
  </outline>
</glyph>
<glyph name="ogonek" format="2">
  <advance width="310"/>
  <unicode hex="02DB"/>
  <guideline x="233" y="-113" angle="90"/>
  <outline>
    <contour>
      <point x="171" y="-216" type="curve" smooth="yes"/>
      <point x="189" y="-216"/>
      <point x="210" y="-213"/>
      <point x="233" y="-207" type="curve"/>
      <point x="230" y="-190" type="line"/>
      <point x="210" y="-195"/>
      <point x="192" y="-197"/>
      <point x="176" y="-197" type="curve" smooth="yes"/>
      <point x="114" y="-197"/>
      <point x="82" y="-166"/>
      <point x="82" y="-128" type="curve" smooth="yes"/>
      <point x="82" y="-81"/>
      <point x="130" y="-24"/>
      <point x="233" y="0" type="curve"/>
      <point x="227" y="13" type="line"/>
      <point x="113" y="-10"/>
      <point x="61" y="-75"/>
      <point x="61" y="-130" type="curve" smooth="yes"/>
      <point x="61" y="-177"/>
      <point x="99" y="-216"/>
    </contour>
  </outline>
</glyph>
<glyph name="tilde" format="2">
  <advance width="498"/>
  <unicode hex="02DC"/>
  <outline>
    <contour>
      <point x="314" y="657" type="curve" smooth="yes"/>
      <point x="346" y="657"/>
      <point x="372" y="676"/>
      <point x="393" y="721" type="curve"/>
      <point x="378" y="728" type="line"/>
      <point x="359" y="692"/>
      <point x="340" y="678"/>
      <point x="316" y="678" type="curve" smooth="yes"/>
      <point x="273" y="678"/>
      <point x="235" y="730"/>
      <point x="183" y="730" type="curve" smooth="yes"/>
      <point x="152" y="730"/>
      <point x="126" y="712"/>
      <point x="105" y="667" type="curve"/>
      <point x="120" y="660" type="line"/>
      <point x="138" y="695"/>
      <point x="157" y="709"/>
      <point x="181" y="709" type="curve" smooth="yes"/>
      <point x="226" y="709"/>
      <point x="262" y="657"/>
    </contour>
  </outline>
</glyph>
<glyph name="hungarumlaut" format="2">
  <advance width="369"/>
  <unicode hex="02DD"/>
  <outline>
    <contour>
      <point x="216" y="634" type="line"/>
      <point x="286" y="758" type="line"/>
      <point x="261" y="772" type="line"/>
      <point x="200" y="643" type="line"/>
    </contour>
    <contour>
      <point x="105" y="634" type="line"/>
      <point x="173" y="759" type="line"/>
      <point x="147" y="772" type="line"/>
      <point x="89" y="642" type="line"/>
    </contour>
  </outline>
</glyph>
<glyph name="breveinvertedcomb" format="2">
  <unicode hex="0311"/>
  <anchor x="195" y="522" name="_top"/>
  <anchor x="195" y="692" name="top"/>
  <outline>
    <contour>
      <point x="194" y="727" type="curve" smooth="yes"/>
      <point x="130" y="727"/>
      <point x="88" y="687"/>
      <point x="88" y="628" type="curve"/>
      <point x="106" y="629" type="line"/>
      <point x="110" y="675"/>
      <point x="144" y="705"/>
      <point x="193" y="705" type="curve" smooth="yes"/>
      <point x="242" y="705"/>
      <point x="279" y="674"/>
      <point x="284" y="628" type="curve"/>
      <point x="302" y="630" type="line"/>
      <point x="300" y="688"/>
      <point x="257" y="727"/>
    </contour>
  </outline>
</glyph>
<glyph name="commaturnedabovecomb" format="2">
  <unicode hex="0312"/>
  <guideline x="11" y="637" angle="0"/>
  <guideline x="17" y="770" angle="0"/>
  <guideline x="8" y="724" angle="0"/>
  <guideline x="8" y="663" angle="0"/>
  <anchor x="76" y="522" name="_top"/>
  <anchor x="78" y="692" name="top"/>
  <outline>
    <contour>
      <point x="99" y="811" type="line"/>
      <point x="67" y="761"/>
      <point x="50" y="717"/>
      <point x="50" y="694" type="curve" smooth="yes"/>
      <point x="50" y="673"/>
      <point x="63" y="663"/>
      <point x="76" y="663" type="curve" smooth="yes"/>
      <point x="89" y="663"/>
      <point x="102" y="673"/>
      <point x="102" y="690" type="curve" smooth="yes"/>
      <point x="102" y="710"/>
      <point x="86" y="711"/>
      <point x="86" y="729" type="curve" smooth="yes"/>
      <point x="86" y="739"/>
      <point x="91" y="768"/>
      <point x="111" y="803" type="curve"/>
    </contour>
  </outline>
</glyph>
<glyph name="horncomb" format="2">
  <unicode hex="031B"/>
  <anchor x="71" y="522" name="_topright"/>
  <anchor x="71" y="522" name="topright"/>
  <outline>
    <contour>
      <point x="50" y="504" type="line"/>
      <point x="110" y="500"/>
      <point x="148" y="528"/>
      <point x="148" y="584" type="curve" smooth="yes"/>
      <point x="148" y="604"/>
      <point x="144" y="627"/>
      <point x="134" y="654" type="curve"/>
      <point x="114" y="647" type="line"/>
      <point x="122" y="622"/>
      <point x="126" y="601"/>
      <point x="126" y="584" type="curve" smooth="yes"/>
      <point x="126" y="540"/>
      <point x="100" y="524"/>
      <point x="50" y="522" type="curve"/>
    </contour>
  </outline>
</glyph>
<glyph name="strokeshortcomb" format="2">
  <unicode hex="0335"/>
  <anchor x="215" y="300" name="_center"/>
  <outline>
    <contour>
      <point x="60" y="290" type="line"/>
      <point x="370" y="290" type="line"/>
      <point x="370" y="309" type="line"/>
      <point x="60" y="309" type="line"/>
    </contour>
  </outline>
</glyph>
<glyph name="pi" format="2">
  <advance width="611"/>
  <unicode hex="03C0"/>
  <outline>
    <contour>
      <point x="45" y="0" type="line"/>
      <point x="245" y="0" type="line"/>
      <point x="245" y="15" type="line"/>
      <point x="148" y="29" type="line"/>
      <point x="155" y="21" type="line"/>
      <point x="155" y="512" type="line"/>
      <point x="147" y="504" type="line"/>
      <point x="452" y="503" type="line"/>
      <point x="443" y="512" type="line"/>
      <point x="443" y="141" type="line" smooth="yes"/>
      <point x="443" y="44"/>
      <point x="473" y="-6"/>
      <point x="532" y="-6" type="curve" smooth="yes"/>
      <point x="551" y="-6"/>
      <point x="574" y="-1"/>
      <point x="599" y="8" type="curve"/>
      <point x="593" y="28" type="line"/>
      <point x="571" y="19"/>
      <point x="552" y="15"/>
      <point x="536" y="15" type="curve" smooth="yes"/>
      <point x="485" y="15"/>
      <point x="463" y="61"/>
      <point x="463" y="145" type="curve" smooth="yes"/>
      <point x="463" y="499" type="line"/>
      <point x="455" y="492" type="line"/>
      <point x="553" y="508" type="line"/>
      <point x="553" y="522" type="line"/>
      <point x="147" y="522" type="line"/>
      <point x="45" y="520" type="line"/>
      <point x="45" y="506" type="line"/>
      <point x="141" y="495" type="line"/>
      <point x="135" y="502" type="line"/>
      <point x="135" y="21" type="line"/>
      <point x="142" y="29" type="line"/>
      <point x="45" y="15" type="line"/>
    </contour>
  </outline>
</glyph>
<glyph name="Dzhe-cy" format="2">
  <advance width="777"/>
  <unicode hex="040F"/>
  <outline>
    <contour>
      <point x="382" y="-163" type="line"/>
      <point x="397" y="-163" type="line"/>
      <point x="405" y="8" type="line"/>
      <point x="397" y="0" type="line"/>
      <point x="717" y="0" type="line"/>
      <point x="717" y="15" type="line"/>
      <point x="610" y="29" type="line"/>
      <point x="617" y="15" type="line"/>
      <point x="617" y="671" type="line"/>
      <point x="610" y="663" type="line"/>
      <point x="717" y="677" type="line"/>
      <point x="717" y="692" type="line"/>
      <point x="497" y="687" type="line"/>
      <point x="497" y="672" type="line"/>
      <point x="604" y="664" type="line"/>
      <point x="597" y="671" type="line"/>
      <point x="597" y="11" type="line"/>
      <point x="604" y="19" type="line"/>
      <point x="174" y="19" type="line"/>
      <point x="181" y="11" type="line"/>
      <point x="181" y="671" type="line"/>
      <point x="174" y="663" type="line"/>
      <point x="281" y="677" type="line"/>
      <point x="281" y="692" type="line"/>
      <point x="61" y="687" type="line"/>
      <point x="61" y="672" type="line"/>
      <point x="168" y="663" type="line"/>
      <point x="161" y="671" type="line"/>
      <point x="161" y="21" type="line"/>
      <point x="168" y="29" type="line"/>
      <point x="61" y="15" type="line"/>
      <point x="61" y="0" type="line"/>
      <point x="384" y="0" type="line"/>
      <point x="374" y="7" type="line"/>
    </contour>
  </outline>
</glyph>
<glyph name="Zhe-cy" format="2">
  <advance width="980"/>
  <unicode hex="0416"/>
  <guideline x="493" y="681" angle="90"/>
  <anchor x="955" y="0" name="bottomright"/>
  <anchor x="493" y="692" name="top"/>
  <outline>
    <contour>
      <point x="26" y="0" type="line"/>
      <point x="245" y="0" type="line"/>
      <point x="245" y="15" type="line"/>
      <point x="142" y="29" type="line"/>
      <point x="147" y="23" type="line"/>
      <point x="375" y="350" type="line"/>
      <point x="363" y="345" type="line"/>
      <point x="490" y="345" type="line"/>
      <point x="483" y="354" type="line"/>
      <point x="483" y="21" type="line"/>
      <point x="490" y="29" type="line"/>
      <point x="388" y="15" type="line"/>
      <point x="388" y="0" type="line"/>
      <point x="598" y="0" type="line"/>
      <point x="598" y="15" type="line"/>
      <point x="496" y="29" type="line"/>
      <point x="503" y="21" type="line"/>
      <point x="503" y="352" type="line"/>
      <point x="496" y="345" type="line"/>
      <point x="617" y="345" type="line"/>
      <point x="604" y="350" type="line"/>
      <point x="835" y="23" type="line"/>
      <point x="839" y="29" type="line"/>
      <point x="736" y="15" type="line"/>
      <point x="736" y="0" type="line"/>
      <point x="955" y="0" type="line"/>
      <point x="955" y="15" type="line"/>
      <point x="848" y="29" type="line"/>
      <point x="859" y="23" type="line"/>
      <point x="618" y="364" type="line"/>
      <point x="618" y="353" type="line"/>
      <point x="811" y="670" type="line"/>
      <point x="800" y="663" type="line"/>
      <point x="907" y="677" type="line"/>
      <point x="907" y="692" type="line"/>
      <point x="687" y="687" type="line"/>
      <point x="687" y="672" type="line"/>
      <point x="794" y="664" type="line"/>
      <point x="790" y="670" type="line"/>
      <point x="600" y="358" type="line"/>
      <point x="611" y="364" type="line"/>
      <point x="496" y="364" type="line"/>
      <point x="503" y="357" type="line"/>
      <point x="503" y="671" type="line"/>
      <point x="496" y="663" type="line"/>
      <point x="598" y="677" type="line"/>
      <point x="598" y="692" type="line"/>
      <point x="383" y="687" type="line"/>
      <point x="383" y="672" type="line"/>
      <point x="490" y="663" type="line"/>
      <point x="483" y="671" type="line"/>
      <point x="483" y="359" type="line"/>
      <point x="490" y="364" type="line"/>
      <point x="369" y="364" type="line"/>
      <point x="379" y="358" type="line"/>
      <point x="191" y="670" type="line"/>
      <point x="187" y="664" type="line"/>
      <point x="294" y="672" type="line"/>
      <point x="294" y="687" type="line"/>
      <point x="74" y="692" type="line"/>
      <point x="74" y="677" type="line"/>
      <point x="181" y="663" type="line"/>
      <point x="168" y="670" type="line"/>
      <point x="361" y="353" type="line"/>
      <point x="363" y="364" type="line"/>
      <point x="124" y="23" type="line"/>
      <point x="133" y="29" type="line"/>
      <point x="26" y="15" type="line"/>
    </contour>
  </outline>
</glyph>
<glyph name="Ze-cy" format="2">
  <advance width="571"/>
  <unicode hex="0417"/>
  <guideline x="15" y="526" angle="0"/>
  <anchor x="269" y="0" name="bottom"/>
  <anchor x="269" y="692" name="top"/>
  <outline>
    <contour>
      <point x="121" y="11"/>
      <point x="188" y="-6"/>
      <point x="251" y="-6" type="curve" smooth="yes"/>
      <point x="375" y="-6"/>
      <point x="478" y="59"/>
      <point x="478" y="192" type="curve" smooth="yes"/>
      <point x="478" y="292"/>
      <point x="420" y="361"/>
      <point x="299" y="369" type="curve"/>
      <point x="299" y="367" type="line"/>
      <point x="409" y="375"/>
      <point x="458" y="437"/>
      <point x="458" y="531" type="curve" smooth="yes"/>
      <point x="458" y="649"/>
      <point x="381" y="698"/>
      <point x="269" y="698" type="curve" smooth="yes"/>
      <point x="212" y="698"/>
      <point x="145" y="685"/>
      <point x="76" y="661" type="curve"/>
      <point x="83" y="524" type="line"/>
      <point x="98" y="524" type="line"/>
      <point x="109" y="659" type="line"/>
      <point x="103" y="651" type="line"/>
      <point x="160" y="668"/>
      <point x="216" y="678"/>
      <point x="266" y="678" type="curve" smooth="yes"/>
      <point x="366" y="678"/>
      <point x="436" y="638"/>
      <point x="436" y="530" type="curve" smooth="yes"/>
      <point x="436" y="434"/>
      <point x="381" y="378"/>
      <point x="254" y="378" type="curve" smooth="yes"/>
      <point x="175" y="378" type="line"/>
      <point x="175" y="358" type="line"/>
      <point x="249" y="358" type="line" smooth="yes"/>
      <point x="403" y="358"/>
      <point x="457" y="282"/>
      <point x="457" y="190" type="curve" smooth="yes"/>
      <point x="457" y="71"/>
      <point x="366" y="14"/>
      <point x="255" y="14" type="curve" smooth="yes"/>
      <point x="195" y="14"/>
      <point x="129" y="31"/>
      <point x="68" y="62" type="curve"/>
      <point x="58" y="43" type="line"/>
    </contour>
  </outline>
</glyph>
<glyph name="Ef-cy" format="2">
  <advance width="788"/>
  <unicode hex="0424"/>
  <outline>
    <contour>
      <point x="504" y="697" type="line"/>
      <point x="504" y="712" type="line"/>
      <point x="284" y="707" type="line"/>
      <point x="284" y="692" type="line"/>
      <point x="391" y="683" type="line"/>
      <point x="384" y="691" type="line"/>
      <point x="384" y="1" type="line"/>
      <point x="391" y="9" type="line"/>
      <point x="284" y="-5" type="line"/>
      <point x="284" y="-20" type="line"/>
      <point x="504" y="-20" type="line"/>
      <point x="504" y="-5" type="line"/>
      <point x="397" y="9" type="line"/>
      <point x="404" y="1" type="line"/>
      <point x="404" y="691" type="line"/>
      <point x="397" y="683" type="line"/>
    </contour>
    <contour>
      <point x="384" y="102" type="curve" smooth="yes"/>
      <point x="582" y="102"/>
      <point x="724" y="175"/>
      <point x="724" y="354" type="curve" smooth="yes"/>
      <point x="724" y="534"/>
      <point x="579" y="591"/>
      <point x="400" y="591" type="curve" smooth="yes"/>
      <point x="210" y="591"/>
      <point x="64" y="527"/>
      <point x="64" y="343" type="curve" smooth="yes"/>
      <point x="64" y="163"/>
      <point x="203" y="102"/>
    </contour>
    <contour>
      <point x="385" y="122" type="curve" smooth="yes"/>
      <point x="214" y="122"/>
      <point x="86" y="174"/>
      <point x="86" y="344" type="curve" smooth="yes"/>
      <point x="86" y="517"/>
      <point x="220" y="571"/>
      <point x="397" y="571" type="curve" smooth="yes"/>
      <point x="572" y="571"/>
      <point x="702" y="518"/>
      <point x="702" y="351" type="curve" smooth="yes"/>
      <point x="702" y="180"/>
      <point x="566" y="122"/>
    </contour>
  </outline>
</glyph>
<glyph name="Hardsign-cy" format="2">
  <advance width="702"/>
  <unicode hex="042A"/>
  <outline>
    <contour>
      <point x="154" y="0" type="line"/>
      <point x="401" y="0" type="line" smooth="yes"/>
      <point x="560" y="0"/>
      <point x="653" y="76"/>
      <point x="653" y="213" type="curve" smooth="yes"/>
      <point x="653" y="335"/>
      <point x="579" y="403"/>
      <point x="438" y="403" type="curve" smooth="yes"/>
      <point x="281" y="403" type="line"/>
      <point x="288" y="396" type="line"/>
      <point x="288" y="670" type="line"/>
      <point x="281" y="663" type="line"/>
      <point x="388" y="677" type="line"/>
      <point x="388" y="692" type="line"/>
      <point x="33" y="692" type="line"/>
      <point x="33" y="553" type="line"/>
      <point x="48" y="553" type="line"/>
      <point x="63" y="680" type="line"/>
      <point x="55" y="673" type="line"/>
      <point x="275" y="673" type="line"/>
      <point x="268" y="680" type="line"/>
      <point x="268" y="21" type="line"/>
      <point x="275" y="29" type="line"/>
      <point x="154" y="15" type="line"/>
    </contour>
    <contour>
      <point x="288" y="12" type="line"/>
      <point x="288" y="391" type="line"/>
      <point x="281" y="384" type="line"/>
      <point x="436" y="384" type="line" smooth="yes"/>
      <point x="564" y="384"/>
      <point x="631" y="323"/>
      <point x="631" y="212" type="curve" smooth="yes"/>
      <point x="631" y="88"/>
      <point x="547" y="19"/>
      <point x="402" y="19" type="curve" smooth="yes"/>
      <point x="281" y="19" type="line"/>
    </contour>
  </outline>
</glyph>
<glyph name="Ereversed-cy" format="2">
  <advance width="663"/>
  <unicode hex="042D"/>
  <guideline x="22" y="516" angle="0"/>
  <guideline x="22" y="650" angle="0"/>
  <anchor x="319" y="692" name="top"/>
  <outline>
    <contour>
      <point x="62" y="84" type="line"/>
      <point x="139" y="23"/>
      <point x="217" y="-6"/>
      <point x="291" y="-6" type="curve" smooth="yes"/>
      <point x="452" y="-6"/>
      <point x="582" y="133"/>
      <point x="582" y="361" type="curve" smooth="yes"/>
      <point x="582" y="577"/>
      <point x="466" y="698"/>
      <point x="292" y="698" type="curve" smooth="yes"/>
      <point x="227" y="698"/>
      <point x="154" y="681"/>
      <point x="75" y="646" type="curve"/>
      <point x="80" y="516" type="line"/>
      <point x="95" y="516" type="line"/>
      <point x="106" y="642" type="line"/>
      <point x="102" y="637" type="line"/>
      <point x="169" y="664"/>
      <point x="232" y="678"/>
      <point x="289" y="678" type="curve" smooth="yes"/>
      <point x="452" y="678"/>
      <point x="560" y="564"/>
      <point x="560" y="359" type="curve" smooth="yes"/>
      <point x="560" y="142"/>
      <point x="440" y="15"/>
      <point x="292" y="15" type="curve" smooth="yes"/>
      <point x="223" y="15"/>
      <point x="148" y="43"/>
      <point x="76" y="102" type="curve"/>
    </contour>
    <contour>
      <point x="180" y="352" type="line"/>
      <point x="563" y="352" type="line"/>
      <point x="563" y="371" type="line"/>
      <point x="180" y="371" type="line"/>
    </contour>
  </outline>
</glyph>
<glyph name="Ia-cy" format="2">
  <advance width="644"/>
  <unicode hex="042F"/>
  <guideline x="372" y="333" angle="0"/>
  <outline>
    <contour>
      <point x="584" y="0" type="line"/>
      <point x="584" y="15" type="line"/>
      <point x="477" y="29" type="line"/>
      <point x="484" y="21" type="line"/>
      <point x="484" y="676" type="line"/>
      <point x="477" y="668" type="line"/>
      <point x="584" y="677" type="line"/>
      <point x="584" y="692" type="line"/>
      <point x="338" y="692" type="line" smooth="yes"/>
      <point x="197" y="692"/>
      <point x="122" y="624"/>
      <point x="122" y="506" type="curve" smooth="yes"/>
      <point x="122" y="388"/>
      <point x="196" y="321"/>
      <point x="363" y="321" type="curve"/>
      <point x="360" y="331" type="line"/>
      <point x="250" y="333"/>
      <point x="216" y="304"/>
      <point x="179" y="218" type="curve" smooth="yes"/>
      <point x="92" y="22" type="line"/>
      <point x="102" y="29" type="line"/>
      <point x="21" y="15" type="line"/>
      <point x="21" y="0" type="line"/>
      <point x="103" y="0" type="line"/>
      <point x="197" y="212" type="line" smooth="yes"/>
      <point x="244" y="318"/>
      <point x="298" y="318"/>
      <point x="370" y="318" type="curve" smooth="yes"/>
      <point x="471" y="318" type="line"/>
      <point x="464" y="325" type="line"/>
      <point x="464" y="21" type="line"/>
      <point x="471" y="29" type="line"/>
      <point x="339" y="15" type="line"/>
      <point x="339" y="0" type="line"/>
    </contour>
    <contour>
      <point x="464" y="330" type="line"/>
      <point x="471" y="337" type="line"/>
      <point x="367" y="337" type="line" smooth="yes"/>
      <point x="212" y="337"/>
      <point x="144" y="401"/>
      <point x="144" y="511" type="curve" smooth="yes"/>
      <point x="144" y="613"/>
      <point x="208" y="673"/>
      <point x="336" y="673" type="curve" smooth="yes"/>
      <point x="471" y="673" type="line"/>
      <point x="464" y="680" type="line"/>
    </contour>
  </outline>
</glyph>
<glyph name="ve-cy" format="2">
  <advance width="553"/>
  <unicode hex="0432"/>
  <outline>
    <contour>
      <point x="156" y="522" type="line"/>
      <point x="46" y="520" type="line"/>
      <point x="46" y="505" type="line"/>
      <point x="143" y="491" type="line"/>
      <point x="136" y="499" type="line"/>
      <point x="136" y="21" type="line"/>
      <point x="143" y="29" type="line"/>
      <point x="46" y="15" type="line"/>
      <point x="46" y="0" type="line"/>
      <point x="271" y="0" type="line" smooth="yes"/>
      <point x="426" y="0"/>
      <point x="486" y="48"/>
      <point x="486" y="138" type="curve" smooth="yes"/>
      <point x="486" y="222"/>
      <point x="433" y="274"/>
      <point x="313" y="276" type="curve"/>
      <point x="313" y="274" type="line"/>
      <point x="419" y="285"/>
      <point x="461" y="332"/>
      <point x="461" y="401" type="curve" smooth="yes"/>
      <point x="461" y="480"/>
      <point x="404" y="522"/>
      <point x="279" y="522" type="curve" smooth="yes"/>
    </contour>
    <contour>
      <point x="274" y="503" type="line" smooth="yes"/>
      <point x="386" y="503"/>
      <point x="440" y="470"/>
      <point x="440" y="399" type="curve" smooth="yes"/>
      <point x="440" y="325"/>
      <point x="383" y="282"/>
      <point x="240" y="282" type="curve" smooth="yes"/>
      <point x="150" y="282" type="line"/>
      <point x="156" y="276" type="line"/>
      <point x="156" y="510" type="line"/>
      <point x="150" y="503" type="line"/>
    </contour>
    <contour>
      <point x="271" y="19" type="curve" smooth="yes"/>
      <point x="150" y="19" type="line"/>
      <point x="156" y="12" type="line"/>
      <point x="156" y="270" type="line"/>
      <point x="150" y="263" type="line"/>
      <point x="290" y="263" type="line" smooth="yes"/>
      <point x="410" y="263"/>
      <point x="464" y="216"/>
      <point x="464" y="137" type="curve" smooth="yes"/>
      <point x="464" y="56"/>
      <point x="407" y="19"/>
    </contour>
  </outline>
</glyph>
<glyph name="ze-cy" format="2">
  <advance width="491"/>
  <unicode hex="0437"/>
  <anchor x="236" y="0" name="bottom"/>
  <anchor x="233" y="522" name="top"/>
  <outline>
    <contour>
      <point x="98" y="9"/>
      <point x="159" y="-6"/>
      <point x="217" y="-6" type="curve" smooth="yes"/>
      <point x="322" y="-6"/>
      <point x="419" y="42"/>
      <point x="419" y="144" type="curve" smooth="yes"/>
      <point x="419" y="219"/>
      <point x="371" y="274"/>
      <point x="257" y="278" type="curve"/>
      <point x="257" y="273" type="line"/>
      <point x="363" y="286"/>
      <point x="405" y="325"/>
      <point x="405" y="401" type="curve" smooth="yes"/>
      <point x="405" y="490"/>
      <point x="333" y="528"/>
      <point x="235" y="528" type="curve" smooth="yes"/>
      <point x="182" y="528"/>
      <point x="123" y="517"/>
      <point x="63" y="499" type="curve"/>
      <point x="66" y="395" type="line"/>
      <point x="85" y="395" type="line"/>
      <point x="97" y="501" type="line"/>
      <point x="86" y="488" type="line"/>
      <point x="135" y="501"/>
      <point x="185" y="509"/>
      <point x="230" y="509" type="curve" smooth="yes"/>
      <point x="318" y="509"/>
      <point x="385" y="478"/>
      <point x="385" y="401" type="curve" smooth="yes"/>
      <point x="385" y="331"/>
      <point x="331" y="285"/>
      <point x="213" y="285" type="curve" smooth="yes"/>
      <point x="144" y="285" type="line"/>
      <point x="144" y="266" type="line"/>
      <point x="208" y="266" type="line" smooth="yes"/>
      <point x="352" y="266"/>
      <point x="398" y="211"/>
      <point x="398" y="144" type="curve" smooth="yes"/>
      <point x="398" y="54"/>
      <point x="313" y="13"/>
      <point x="220" y="13" type="curve" smooth="yes"/>
      <point x="165" y="13"/>
      <point x="106" y="28"/>
      <point x="58" y="58" type="curve"/>
      <point x="49" y="40" type="line"/>
    </contour>
  </outline>
</glyph>
<glyph name="el-cy" format="2">
  <advance width="558"/>
  <unicode hex="043B"/>
  <anchor x="513" y="0" name="bottomright"/>
  <outline>
    <contour>
      <point x="43" y="-6" type="curve" smooth="yes"/>
      <point x="169" y="-6"/>
      <point x="198" y="181"/>
      <point x="200" y="511" type="curve"/>
      <point x="190" y="503" type="line"/>
      <point x="409" y="503" type="line"/>
      <point x="403" y="510" type="line"/>
      <point x="403" y="21" type="line"/>
      <point x="410" y="29" type="line"/>
      <point x="313" y="15" type="line"/>
      <point x="313" y="0" type="line"/>
      <point x="513" y="0" type="line"/>
      <point x="513" y="15" type="line"/>
      <point x="416" y="29" type="line"/>
      <point x="423" y="21" type="line"/>
      <point x="423" y="502" type="line"/>
      <point x="415" y="495" type="line"/>
      <point x="513" y="508" type="line"/>
      <point x="513" y="522" type="line"/>
      <point x="80" y="522" type="line"/>
      <point x="80" y="508" type="line"/>
      <point x="186" y="497" type="line"/>
      <point x="180" y="504" type="line"/>
      <point x="176" y="205"/>
      <point x="161" y="17"/>
      <point x="35" y="17" type="curve" smooth="yes"/>
      <point x="26" y="17"/>
      <point x="17" y="18"/>
      <point x="8" y="20" type="curve"/>
      <point x="5" y="-1" type="line"/>
      <point x="19" y="-4"/>
      <point x="31" y="-6"/>
    </contour>
  </outline>
</glyph>
<glyph name="softsign-cy" format="2">
  <advance width="486"/>
  <unicode hex="044C"/>
  <outline>
    <contour>
      <point x="45" y="0" type="line"/>
      <point x="242" y="0" type="line" smooth="yes"/>
      <point x="393" y="0"/>
      <point x="456" y="61"/>
      <point x="456" y="160" type="curve" smooth="yes"/>
      <point x="456" y="257"/>
      <point x="396" y="312"/>
      <point x="284" y="312" type="curve" smooth="yes"/>
      <point x="149" y="312" type="line"/>
      <point x="155" y="306" type="line"/>
      <point x="155" y="502" type="line"/>
      <point x="147" y="495" type="line"/>
      <point x="255" y="511" type="line"/>
      <point x="255" y="525" type="line"/>
      <point x="45" y="520" type="line"/>
      <point x="45" y="506" type="line"/>
      <point x="141" y="495" type="line"/>
      <point x="135" y="502" type="line"/>
      <point x="135" y="21" type="line"/>
      <point x="142" y="29" type="line"/>
      <point x="45" y="15" type="line"/>
    </contour>
    <contour>
      <point x="155" y="12" type="line"/>
      <point x="155" y="300" type="line"/>
      <point x="149" y="293" type="line"/>
      <point x="279" y="293" type="line" smooth="yes"/>
      <point x="383" y="293"/>
      <point x="435" y="244"/>
      <point x="435" y="158" type="curve" smooth="yes"/>
      <point x="435" y="68"/>
      <point x="378" y="19"/>
      <point x="245" y="19" type="curve" smooth="yes"/>
      <point x="149" y="19" type="line"/>
    </contour>
  </outline>
</glyph>
<glyph name="ia-cy" format="2">
  <advance width="528"/>
  <unicode hex="044F"/>
  <outline>
    <contour>
      <point x="10" y="0" type="line"/>
      <point x="105" y="0" type="line"/>
      <point x="167" y="147" type="line" smooth="yes"/>
      <point x="192" y="207"/>
      <point x="227" y="224"/>
      <point x="285" y="224" type="curve" smooth="yes"/>
      <point x="379" y="224" type="line"/>
      <point x="373" y="230" type="line"/>
      <point x="373" y="21" type="line"/>
      <point x="380" y="29" type="line"/>
      <point x="283" y="15" type="line"/>
      <point x="283" y="0" type="line"/>
      <point x="483" y="0" type="line"/>
      <point x="483" y="15" type="line"/>
      <point x="386" y="29" type="line"/>
      <point x="393" y="21" type="line"/>
      <point x="393" y="499" type="line"/>
      <point x="385" y="492" type="line"/>
      <point x="483" y="508" type="line"/>
      <point x="483" y="522" type="line"/>
      <point x="266" y="522" type="line" smooth="yes"/>
      <point x="166" y="522"/>
      <point x="86" y="483"/>
      <point x="86" y="373" type="curve" smooth="yes"/>
      <point x="86" y="273"/>
      <point x="146" y="235"/>
      <point x="237" y="229" type="curve"/>
      <point x="237" y="233" type="line"/>
      <point x="197" y="228"/>
      <point x="172" y="207"/>
      <point x="152" y="159" type="curve" smooth="yes"/>
      <point x="95" y="24" type="line"/>
      <point x="105" y="31" type="line"/>
      <point x="10" y="14" type="line"/>
    </contour>
    <contour>
      <point x="373" y="237" type="line"/>
      <point x="379" y="243" type="line"/>
      <point x="286" y="243" type="line" smooth="yes"/>
      <point x="163" y="243"/>
      <point x="107" y="277"/>
      <point x="107" y="375" type="curve" smooth="yes"/>
      <point x="107" y="469"/>
      <point x="172" y="503"/>
      <point x="263" y="503" type="curve" smooth="yes"/>
      <point x="382" y="503" type="line"/>
      <point x="373" y="512" type="line"/>
    </contour>
  </outline>
</glyph>
<glyph name="je-cy" format="2">
  <advance width="294"/>
  <unicode hex="0458"/>
  <outline>
    <contour>
      <point x="46" y="-236" type="curve" smooth="yes"/>
      <point x="175" y="-236"/>
      <point x="175" y="-134"/>
      <point x="175" y="-68" type="curve" smooth="yes"/>
      <point x="175" y="525" type="line"/>
      <point x="65" y="520" type="line"/>
      <point x="65" y="505" type="line"/>
      <point x="162" y="491" type="line"/>
      <point x="155" y="499" type="line"/>
      <point x="155" y="-77" type="line" smooth="yes"/>
      <point x="155" y="-179"/>
      <point x="125" y="-217"/>
      <point x="45" y="-217" type="curve" smooth="yes"/>
      <point x="33" y="-217"/>
      <point x="21" y="-216"/>
      <point x="6" y="-214" type="curve"/>
      <point x="21" y="-206" type="line"/>
      <point x="17" y="-243" type="line"/>
      <point x="4" y="-233" type="line"/>
      <point x="18" y="-235"/>
      <point x="33" y="-236"/>
    </contour>
    <contour>
      <point x="157" y="663" type="curve" smooth="yes"/>
      <point x="172" y="663"/>
      <point x="184" y="673"/>
      <point x="184" y="692" type="curve" smooth="yes"/>
      <point x="184" y="710"/>
      <point x="174" y="722"/>
      <point x="158" y="722" type="curve" smooth="yes"/>
      <point x="143" y="722"/>
      <point x="132" y="711"/>
      <point x="132" y="692" type="curve" smooth="yes"/>
      <point x="132" y="674"/>
      <point x="142" y="663"/>
    </contour>
  </outline>
</glyph>
<glyph name="fita-cy" format="2">
  <advance width="574"/>
  <unicode hex="0473"/>
  <anchor x="287" y="522" name="top"/>
  <outline>
    <contour>
      <point x="77" y="256" type="line"/>
      <point x="502" y="256" type="line"/>
      <point x="502" y="275" type="line"/>
      <point x="77" y="275" type="line"/>
    </contour>
    <contour>
      <point x="293" y="528" type="curve" smooth="yes"/>
      <point x="151" y="528"/>
      <point x="64" y="418"/>
      <point x="64" y="249" type="curve" smooth="yes"/>
      <point x="64" y="84"/>
      <point x="146" y="-6"/>
      <point x="277" y="-6" type="curve" smooth="yes"/>
      <point x="424" y="-6"/>
      <point x="511" y="106"/>
      <point x="511" y="270" type="curve" smooth="yes"/>
      <point x="511" y="432"/>
      <point x="426" y="528"/>
    </contour>
    <contour>
      <point x="291" y="509" type="curve" smooth="yes"/>
      <point x="414" y="509"/>
      <point x="490" y="418"/>
      <point x="490" y="267" type="curve" smooth="yes"/>
      <point x="490" y="116"/>
      <point x="413" y="13"/>
      <point x="279" y="13" type="curve" smooth="yes"/>
      <point x="158" y="13"/>
      <point x="85" y="98"/>
      <point x="85" y="251" type="curve" smooth="yes"/>
      <point x="85" y="407"/>
      <point x="161" y="509"/>
    </contour>
  </outline>
</glyph>
<glyph name="Izhitsa-cy" format="2">
  <advance width="675"/>
  <unicode hex="0474"/>
  <anchor x="357" y="692" name="top"/>
  <outline>
    <contour>
      <point x="325" y="-2" type="line"/>
      <point x="345" y="-2" type="line"/>
      <point x="541" y="573" type="line" smooth="yes"/>
      <point x="571" y="661"/>
      <point x="603" y="679"/>
      <point x="647" y="677" type="curve" smooth="yes"/>
      <point x="668" y="676" type="line"/>
      <point x="670" y="692" type="line"/>
      <point x="657" y="695"/>
      <point x="645" y="696"/>
      <point x="634" y="696" type="curve" smooth="yes"/>
      <point x="593" y="696"/>
      <point x="557" y="672"/>
      <point x="522" y="571" type="curve" smooth="yes"/>
      <point x="333" y="19" type="line"/>
      <point x="338" y="19" type="line"/>
      <point x="120" y="670" type="line"/>
      <point x="117" y="663" type="line"/>
      <point x="239" y="677" type="line"/>
      <point x="239" y="692" type="line"/>
      <point x="6" y="687" type="line"/>
      <point x="6" y="672" type="line"/>
      <point x="108" y="663" type="line"/>
      <point x="99" y="670" type="line"/>
    </contour>
  </outline>
</glyph>
<glyph name="semisoftsign-cy" format="2">
  <advance width="498"/>
  <unicode hex="048D"/>
  <outline>
    <contour>
      <point x="56" y="0" type="line"/>
      <point x="253" y="0" type="line" smooth="yes"/>
      <point x="404" y="0"/>
      <point x="467" y="61"/>
      <point x="467" y="160" type="curve" smooth="yes"/>
      <point x="467" y="257"/>
      <point x="407" y="312"/>
      <point x="295" y="312" type="curve" smooth="yes"/>
      <point x="160" y="312" type="line"/>
      <point x="166" y="306" type="line"/>
      <point x="166" y="765" type="line"/>
      <point x="56" y="760" type="line"/>
      <point x="56" y="745" type="line"/>
      <point x="153" y="731" type="line"/>
      <point x="146" y="739" type="line"/>
      <point x="146" y="21" type="line"/>
      <point x="153" y="29" type="line"/>
      <point x="56" y="15" type="line"/>
    </contour>
    <contour>
      <point x="166" y="12" type="line"/>
      <point x="166" y="300" type="line"/>
      <point x="160" y="293" type="line"/>
      <point x="290" y="293" type="line" smooth="yes"/>
      <point x="394" y="293"/>
      <point x="446" y="244"/>
      <point x="446" y="158" type="curve" smooth="yes"/>
      <point x="446" y="68"/>
      <point x="389" y="19"/>
      <point x="256" y="19" type="curve" smooth="yes"/>
      <point x="160" y="19" type="line"/>
    </contour>
    <contour>
      <point x="41" y="503" type="line"/>
      <point x="321" y="503" type="line"/>
      <point x="321" y="522" type="line"/>
      <point x="41" y="522" type="line"/>
    </contour>
  </outline>
</glyph>
<glyph name="ghemiddlehook-cy" format="2">
  <advance width="556"/>
  <unicode hex="0495"/>
  <guideline x="92" y="-237" angle="0"/>
  <outline>
    <contour>
      <point x="350" y="-236" type="curve" smooth="yes"/>
      <point x="484" y="-236"/>
      <point x="484" y="-73"/>
      <point x="484" y="43" type="curve" smooth="yes"/>
      <point x="484" y="150" type="line" smooth="yes"/>
      <point x="484" y="257"/>
      <point x="424" y="303"/>
      <point x="344" y="303" type="curve" smooth="yes"/>
      <point x="285" y="303"/>
      <point x="214" y="277"/>
      <point x="151" y="232" type="curve"/>
      <point x="156" y="229" type="line"/>
      <point x="156" y="514" type="line"/>
      <point x="152" y="503" type="line"/>
      <point x="402" y="503" type="line"/>
      <point x="397" y="512" type="line"/>
      <point x="410" y="398" type="line"/>
      <point x="425" y="398" type="line"/>
      <point x="426" y="522" type="line"/>
      <point x="151" y="522" type="line"/>
      <point x="46" y="520" type="line"/>
      <point x="46" y="505" type="line"/>
      <point x="143" y="491" type="line"/>
      <point x="136" y="499" type="line"/>
      <point x="136" y="21" type="line"/>
      <point x="143" y="29" type="line"/>
      <point x="46" y="15" type="line"/>
      <point x="46" y="0" type="line"/>
      <point x="256" y="0" type="line"/>
      <point x="256" y="15" type="line"/>
      <point x="149" y="29" type="line"/>
      <point x="156" y="21" type="line"/>
      <point x="156" y="222" type="line"/>
      <point x="152" y="212" type="line"/>
      <point x="214" y="257"/>
      <point x="285" y="285"/>
      <point x="343" y="285" type="curve" smooth="yes"/>
      <point x="412" y="285"/>
      <point x="464" y="245"/>
      <point x="464" y="145" type="curve" smooth="yes"/>
      <point x="464" y="38" type="line" smooth="yes"/>
      <point x="464" y="-77"/>
      <point x="464" y="-217"/>
      <point x="350" y="-217" type="curve" smooth="yes"/>
      <point x="333" y="-217"/>
      <point x="311" y="-214"/>
      <point x="303" y="-213" type="curve"/>
      <point x="299" y="-231" type="line"/>
      <point x="318" y="-234"/>
      <point x="335" y="-236"/>
    </contour>
  </outline>
</glyph>
<glyph name="kaverticalstroke-cy" format="2">
  <advance width="567"/>
  <unicode hex="049D"/>
  <outline>
    <contour>
      <point x="45" y="0" type="line"/>
      <point x="259" y="0" type="line"/>
      <point x="259" y="15" type="line"/>
      <point x="148" y="29" type="line"/>
      <point x="155" y="21" type="line"/>
      <point x="155" y="270" type="line"/>
      <point x="148" y="263" type="line"/>
      <point x="308" y="263" type="line"/>
      <point x="296" y="269" type="line"/>
      <point x="471" y="0" type="line"/>
      <point x="564" y="0" type="line"/>
      <point x="564" y="14" type="line"/>
      <point x="470" y="31" type="line"/>
      <point x="480" y="24" type="line"/>
      <point x="309" y="284" type="line"/>
      <point x="312" y="272" type="line"/>
      <point x="440" y="502" type="line"/>
      <point x="430" y="495" type="line"/>
      <point x="526" y="511" type="line"/>
      <point x="526" y="525" type="line"/>
      <point x="327" y="520" type="line"/>
      <point x="327" y="506" type="line"/>
      <point x="424" y="495" type="line"/>
      <point x="421" y="502" type="line"/>
      <point x="293" y="276" type="line"/>
      <point x="303" y="282" type="line"/>
      <point x="148" y="282" type="line"/>
      <point x="155" y="275" type="line"/>
      <point x="155" y="502" type="line"/>
      <point x="147" y="495" type="line"/>
      <point x="245" y="511" type="line"/>
      <point x="245" y="525" type="line"/>
      <point x="45" y="520" type="line"/>
      <point x="45" y="506" type="line"/>
      <point x="141" y="495" type="line"/>
      <point x="135" y="502" type="line"/>
      <point x="135" y="21" type="line"/>
      <point x="142" y="29" type="line"/>
      <point x="45" y="15" type="line"/>
    </contour>
    <contour>
      <point x="228" y="143" type="line"/>
      <point x="248" y="143" type="line"/>
      <point x="248" y="412" type="line"/>
      <point x="228" y="412" type="line"/>
    </contour>
  </outline>
</glyph>
<glyph name="Tetse-cy" format="2">
  <advance width="882"/>
  <unicode hex="04B4"/>
  <outline>
    <contour>
      <point x="284" y="680" type="line"/>
      <point x="277" y="673" type="line"/>
      <point x="474" y="673" type="line"/>
      <point x="466" y="680" type="line"/>
      <point x="481" y="547" type="line"/>
      <point x="496" y="547" type="line"/>
      <point x="496" y="692" type="line"/>
      <point x="33" y="692" type="line"/>
      <point x="33" y="547" type="line"/>
      <point x="48" y="547" type="line"/>
      <point x="63" y="680" type="line"/>
      <point x="55" y="673" type="line"/>
      <point x="271" y="673" type="line"/>
      <point x="264" y="680" type="line"/>
      <point x="264" y="21" type="line"/>
      <point x="271" y="29" type="line"/>
      <point x="164" y="15" type="line"/>
      <point x="164" y="0" type="line"/>
      <point x="802" y="0" type="line"/>
      <point x="798" y="3" type="line"/>
      <point x="813" y="-163" type="line"/>
      <point x="828" y="-163" type="line"/>
      <point x="828" y="19" type="line"/>
      <point x="713" y="19" type="line"/>
      <point x="720" y="8" type="line"/>
      <point x="720" y="671" type="line"/>
      <point x="713" y="663" type="line"/>
      <point x="820" y="677" type="line"/>
      <point x="820" y="692" type="line"/>
      <point x="610" y="687" type="line"/>
      <point x="610" y="672" type="line"/>
      <point x="707" y="664" type="line"/>
      <point x="700" y="671" type="line"/>
      <point x="700" y="11" type="line"/>
      <point x="707" y="19" type="line"/>
      <point x="277" y="19" type="line"/>
      <point x="284" y="11" type="line"/>
    </contour>
  </outline>
</glyph>
<glyph name="tetse-cy" format="2">
  <advance width="705"/>
  <unicode hex="04B5"/>
  <outline>
    <contour>
      <point x="659" y="-145" type="line"/>
      <point x="675" y="-145" type="line"/>
      <point x="675" y="19" type="line"/>
      <point x="558" y="29" type="line"/>
      <point x="565" y="21" type="line"/>
      <point x="565" y="502" type="line"/>
      <point x="557" y="495" type="line"/>
      <point x="655" y="511" type="line"/>
      <point x="655" y="525" type="line"/>
      <point x="545" y="522" type="line"/>
      <point x="545" y="13" type="line"/>
      <point x="554" y="19" type="line"/>
      <point x="216" y="19" type="line"/>
      <point x="224" y="13" type="line"/>
      <point x="224" y="510" type="line"/>
      <point x="219" y="503" type="line"/>
      <point x="387" y="503" type="line"/>
      <point x="380" y="510" type="line"/>
      <point x="394" y="393" type="line"/>
      <point x="409" y="393" type="line"/>
      <point x="409" y="522" type="line"/>
      <point x="19" y="522" type="line"/>
      <point x="19" y="393" type="line"/>
      <point x="34" y="393" type="line"/>
      <point x="48" y="510" type="line"/>
      <point x="40" y="503" type="line"/>
      <point x="212" y="503" type="line"/>
      <point x="204" y="510" type="line"/>
      <point x="204" y="21" type="line"/>
      <point x="211" y="29" type="line"/>
      <point x="114" y="15" type="line"/>
      <point x="114" y="0" type="line"/>
      <point x="649" y="0" type="line"/>
      <point x="644" y="9" type="line"/>
    </contour>
  </outline>
</glyph>
<glyph name="Shha-cy" format="2">
  <advance width="677"/>
  <unicode hex="04BA"/>
  <guideline x="609" y="458" angle="0"/>
  <anchor x="655" y="0" name="bottomright"/>
  <outline>
    <contour>
      <point x="174" y="395" type="curve"/>
      <point x="181" y="388" type="line"/>
      <point x="181" y="671" type="line"/>
      <point x="174" y="663" type="line"/>
      <point x="306" y="677" type="line"/>
      <point x="306" y="692" type="line"/>
      <point x="61" y="687" type="line"/>
      <point x="61" y="672" type="line"/>
      <point x="168" y="663" type="line"/>
      <point x="161" y="671" type="line"/>
      <point x="161" y="21" type="line"/>
      <point x="168" y="29" type="line"/>
      <point x="61" y="15" type="line"/>
      <point x="61" y="0" type="line"/>
      <point x="281" y="0" type="line"/>
      <point x="281" y="15" type="line"/>
      <point x="174" y="28" type="line"/>
      <point x="181" y="21" type="line"/>
      <point x="181" y="383" type="line"/>
      <point x="174" y="376" type="line"/>
      <point x="249" y="402"/>
      <point x="319" y="419"/>
      <point x="377" y="419" type="curve" smooth="yes"/>
      <point x="472" y="419"/>
      <point x="535" y="372"/>
      <point x="535" y="234" type="curve" smooth="yes"/>
      <point x="535" y="21" type="line"/>
      <point x="542" y="29" type="line"/>
      <point x="435" y="15" type="line"/>
      <point x="435" y="0" type="line"/>
      <point x="655" y="0" type="line"/>
      <point x="655" y="15" type="line"/>
      <point x="548" y="29" type="line"/>
      <point x="555" y="21" type="line"/>
      <point x="555" y="235" type="line" smooth="yes"/>
      <point x="555" y="384"/>
      <point x="486" y="439"/>
      <point x="379" y="439" type="curve" smooth="yes"/>
      <point x="320" y="439"/>
      <point x="250" y="422"/>
    </contour>
  </outline>
</glyph>
<glyph name="Enhook-cy" format="2">
  <advance width="792"/>
  <unicode hex="04C7"/>
  <outline>
    <contour>
      <point x="518" y="-236" type="curve" smooth="yes"/>
      <point x="612" y="-236"/>
      <point x="644" y="-187"/>
      <point x="644" y="-68" type="curve" smooth="yes"/>
      <point x="644" y="671" type="line"/>
      <point x="637" y="663" type="line"/>
      <point x="744" y="677" type="line"/>
      <point x="744" y="692" type="line"/>
      <point x="524" y="687" type="line"/>
      <point x="524" y="672" type="line"/>
      <point x="631" y="664" type="line"/>
      <point x="624" y="671" type="line"/>
      <point x="624" y="354" type="line"/>
      <point x="631" y="361" type="line"/>
      <point x="174" y="361" type="line"/>
      <point x="181" y="354" type="line"/>
      <point x="181" y="671" type="line"/>
      <point x="174" y="663" type="line"/>
      <point x="281" y="677" type="line"/>
      <point x="281" y="692" type="line"/>
      <point x="61" y="687" type="line"/>
      <point x="61" y="672" type="line"/>
      <point x="168" y="663" type="line"/>
      <point x="161" y="671" type="line"/>
      <point x="161" y="21" type="line"/>
      <point x="168" y="29" type="line"/>
      <point x="61" y="15" type="line"/>
      <point x="61" y="0" type="line"/>
      <point x="281" y="0" type="line"/>
      <point x="281" y="15" type="line"/>
      <point x="174" y="29" type="line"/>
      <point x="181" y="21" type="line"/>
      <point x="181" y="349" type="line"/>
      <point x="174" y="342" type="line"/>
      <point x="631" y="342" type="line"/>
      <point x="624" y="349" type="line"/>
      <point x="624" y="-77" type="line" smooth="yes"/>
      <point x="624" y="-178"/>
      <point x="594" y="-217"/>
      <point x="516" y="-217" type="curve" smooth="yes"/>
      <point x="503" y="-217"/>
      <point x="494" y="-216"/>
      <point x="482" y="-215" type="curve"/>
      <point x="480" y="-234" type="line"/>
      <point x="493" y="-235"/>
      <point x="504" y="-236"/>
    </contour>
  </outline>
</glyph>
<glyph name="Chekhakassian-cy" format="2">
  <advance width="688"/>
  <unicode hex="04CB"/>
  <guideline x="216" y="-160" angle="0" identifier="FR2RUEfmGT"/>
  <outline>
    <contour>
      <point x="494" y="29" type="line"/>
      <point x="369" y="16" type="line"/>
      <point x="370" y="-160" type="line"/>
      <point x="385" y="-160" type="line"/>
      <point x="401" y="0" type="line"/>
      <point x="494" y="0" type="line"/>
    </contour>
    <component base="Che-cy"/>
  </outline>
</glyph>
<glyph name="chekhakassian-cy" format="2">
  <advance width="565"/>
  <unicode hex="04CC"/>
  <outline>
    <contour>
      <point x="420" y="30" type="line"/>
      <point x="290" y="17" type="line"/>
      <point x="290" y="-145" type="line"/>
      <point x="306" y="-145" type="line"/>
      <point x="320" y="0" type="line"/>
      <point x="403" y="0" type="line"/>
    </contour>
    <component base="che-cy"/>
  </outline>
</glyph>
<glyph name="Schwa-cy" format="2">
  <advance width="708"/>
  <unicode hex="04D8"/>
  <guideline x="75" y="471" angle="90"/>
  <guideline x="784" y="471" angle="90"/>
  <anchor x="342" y="692" name="top"/>
  <outline>
    <contour>
      <point x="338" y="-6" type="curve" smooth="yes"/>
      <point x="491" y="-6"/>
      <point x="626" y="113"/>
      <point x="626" y="352" type="curve" smooth="yes"/>
      <point x="626" y="579"/>
      <point x="504" y="698"/>
      <point x="344" y="698" type="curve" smooth="yes"/>
      <point x="261" y="698"/>
      <point x="167" y="666"/>
      <point x="75" y="600" type="curve"/>
      <point x="86" y="584" type="line"/>
      <point x="177" y="647"/>
      <point x="266" y="677"/>
      <point x="343" y="677" type="curve" smooth="yes"/>
      <point x="495" y="677"/>
      <point x="604" y="562"/>
      <point x="604" y="351" type="curve" smooth="yes"/>
      <point x="604" y="126"/>
      <point x="481" y="14"/>
      <point x="341" y="14" type="curve" smooth="yes"/>
      <point x="208" y="14"/>
      <point x="97" y="115"/>
      <point x="97" y="312" type="curve"/>
      <point x="87" y="305" type="line"/>
      <point x="617" y="305" type="line"/>
      <point x="617" y="324" type="line"/>
      <point x="75" y="324" type="line"/>
      <point x="75" y="318"/>
      <point x="75" y="313"/>
      <point x="75" y="307" type="curve" smooth="yes"/>
      <point x="75" y="99"/>
      <point x="194" y="-6"/>
    </contour>
  </outline>
</glyph>
<glyph name="schwa-cy" format="2">
  <advance width="569"/>
  <unicode hex="04D9"/>
  <anchor x="288" y="522" name="top"/>
  <outline>
    <contour>
      <point x="281" y="528" type="curve" smooth="yes"/>
      <point x="219" y="528"/>
      <point x="149" y="505"/>
      <point x="77" y="455" type="curve"/>
      <point x="88" y="440" type="line"/>
      <point x="155" y="487"/>
      <point x="221" y="509"/>
      <point x="278" y="509" type="curve" smooth="yes"/>
      <point x="391" y="509"/>
      <point x="472" y="422"/>
      <point x="472" y="266" type="curve" smooth="yes"/>
      <point x="472" y="114"/>
      <point x="396" y="13"/>
      <point x="269" y="13" type="curve" smooth="yes"/>
      <point x="142" y="13"/>
      <point x="97" y="114"/>
      <point x="99" y="232" type="curve"/>
      <point x="90" y="226" type="line"/>
      <point x="484" y="226" type="line"/>
      <point x="484" y="245" type="line"/>
      <point x="79" y="245" type="line"/>
      <point x="78" y="231"/>
      <point x="78" y="224"/>
      <point x="78" y="217" type="curve" smooth="yes"/>
      <point x="78" y="86"/>
      <point x="143" y="-6"/>
      <point x="269" y="-6" type="curve" smooth="yes"/>
      <point x="405" y="-6"/>
      <point x="493" y="102"/>
      <point x="493" y="268" type="curve" smooth="yes"/>
      <point x="493" y="435"/>
      <point x="404" y="528"/>
    </contour>
  </outline>
</glyph>
<glyph name="gestrokehook-cy" format="2">
  <advance width="457"/>
  <unicode hex="04FB"/>
  <guideline x="65" y="265" angle="0"/>
  <guideline x="65" y="364" angle="90"/>
  <anchor x="251" y="522" name="top"/>
  <outline>
    <contour>
      <point x="274" y="0" type="line"/>
      <point x="264" y="5" type="line"/>
      <point x="264" y="-77" type="line" smooth="yes"/>
      <point x="264" y="-178"/>
      <point x="234" y="-217"/>
      <point x="156" y="-217" type="curve" smooth="yes"/>
      <point x="143" y="-217"/>
      <point x="134" y="-216"/>
      <point x="122" y="-215" type="curve"/>
      <point x="120" y="-234" type="line"/>
      <point x="133" y="-235"/>
      <point x="143" y="-236"/>
      <point x="156" y="-236" type="curve" smooth="yes"/>
      <point x="249" y="-236"/>
      <point x="284" y="-187"/>
      <point x="284" y="-68" type="curve" smooth="yes"/>
      <point x="284" y="15" type="line"/>
      <point x="162" y="29" type="line"/>
      <point x="169" y="21" type="line"/>
      <point x="169" y="514" type="line"/>
      <point x="165" y="503" type="line"/>
      <point x="415" y="503" type="line"/>
      <point x="410" y="512" type="line"/>
      <point x="423" y="388" type="line"/>
      <point x="438" y="388" type="line"/>
      <point x="439" y="522" type="line"/>
      <point x="164" y="522" type="line"/>
      <point x="59" y="520" type="line"/>
      <point x="59" y="505" type="line"/>
      <point x="156" y="491" type="line"/>
      <point x="149" y="499" type="line"/>
      <point x="149" y="21" type="line"/>
      <point x="156" y="29" type="line"/>
      <point x="59" y="15" type="line"/>
      <point x="59" y="0" type="line"/>
    </contour>
    <contour>
      <point x="65" y="270" type="line"/>
      <point x="328" y="270" type="line"/>
      <point x="328" y="289" type="line"/>
      <point x="65" y="289" type="line"/>
    </contour>
  </outline>
</glyph>
<glyph name="hastroke-cy" format="2">
  <advance width="543"/>
  <unicode hex="04FF"/>
  <outline>
    <contour>
      <point x="132" y="261" type="line"/>
      <point x="412" y="261" type="line"/>
      <point x="412" y="280" type="line"/>
      <point x="132" y="280" type="line"/>
    </contour>
    <contour>
      <point x="13" y="0" type="line"/>
      <point x="109" y="0" type="line"/>
      <point x="274" y="262" type="line"/>
      <point x="279" y="268" type="line"/>
      <point x="434" y="503" type="line"/>
      <point x="423" y="494" type="line"/>
      <point x="511" y="510" type="line"/>
      <point x="511" y="525" type="line"/>
      <point x="424" y="520" type="line"/>
      <point x="269" y="282" type="line"/>
      <point x="263" y="276" type="line"/>
      <point x="101" y="21" type="line"/>
      <point x="112" y="29" type="line"/>
      <point x="13" y="14" type="line"/>
    </contour>
    <contour>
      <point x="338" y="0" type="line"/>
      <point x="518" y="0" type="line"/>
      <point x="518" y="15" type="line"/>
      <point x="436" y="26" type="line"/>
      <point x="447" y="21" type="line"/>
      <point x="275" y="278" type="line"/>
      <point x="112" y="504" type="line"/>
      <point x="108" y="497" type="line"/>
      <point x="202" y="510" type="line"/>
      <point x="202" y="525" type="line"/>
      <point x="22" y="520" type="line"/>
      <point x="22" y="505" type="line"/>
      <point x="100" y="497" type="line"/>
      <point x="89" y="504" type="line"/>
      <point x="263" y="262" type="line"/>
      <point x="424" y="21" type="line"/>
      <point x="428" y="26" type="line"/>
      <point x="338" y="15" type="line"/>
    </contour>
  </outline>
</glyph>
<glyph name="llinebelow" format="2">
  <advance width="266"/>
  <unicode hex="1E3B"/>
  <outline>
    <contour>
      <point x="240" y="-107" type="line"/>
      <point x="26" y="-107" type="line"/>
      <point x="26" y="-128" type="line"/>
      <point x="240" y="-128" type="line"/>
    </contour>
    <component base="l"/>
  </outline>
</glyph>
<glyph name="rlinebelow" format="2">
  <advance width="414"/>
  <unicode hex="1E5F"/>
  <guideline x="52" y="89" angle="90"/>
  <guideline x="277" y="89" angle="90"/>
  <outline>
    <contour>
      <point x="258.38" y="-107" type="line"/>
      <point x="32.980000000000004" y="-107" type="line"/>
      <point x="32.980000000000004" y="-128" type="line"/>
      <point x="258.38" y="-128" type="line"/>
    </contour>
    <component base="r"/>
  </outline>
</glyph>
<glyph name="Tlinebelow" format="2">
  <advance width="558"/>
  <unicode hex="1E6E"/>
  <guideline x="155" y="191" angle="90"/>
  <guideline x="405" y="191" angle="90"/>
  <outline>
    <contour>
      <point x="415" y="-107" type="line"/>
      <point x="166" y="-107" type="line"/>
      <point x="166" y="-128" type="line"/>
      <point x="415" y="-128" type="line"/>
    </contour>
    <component base="T"/>
  </outline>
</glyph>
<glyph name="tlinebelow" format="2">
  <advance width="328"/>
  <unicode hex="1E6F"/>
  <guideline x="300" y="388" angle="90"/>
  <outline>
    <contour>
      <point x="299.90000000000003" y="-107" type="line"/>
      <point x="92.9" y="-107" type="line"/>
      <point x="92.9" y="-128" type="line"/>
      <point x="299.90000000000003" y="-128" type="line"/>
    </contour>
    <component base="t"/>
  </outline>
</glyph>
<glyph name="endash" format="2">
  <advance width="630"/>
  <unicode hex="2013"/>
  <outline>
    <contour>
      <point x="540" y="303" type="line"/>
      <point x="90" y="303" type="line"/>
      <point x="90" y="284" type="line"/>
      <point x="540" y="284" type="line"/>
    </contour>
  </outline>
</glyph>
<glyph name="emdash" format="2">
  <advance width="880"/>
  <unicode hex="2014"/>
  <outline>
    <contour>
      <point x="790" y="301" type="line"/>
      <point x="90" y="301" type="line"/>
      <point x="90" y="282" type="line"/>
      <point x="790" y="282" type="line"/>
    </contour>
  </outline>
</glyph>
<glyph name="quotereversed" format="2">
  <advance width="180"/>
  <unicode hex="201B"/>
  <outline>
    <contour>
      <point x="110" y="746" type="curve" smooth="yes"/>
      <point x="110" y="728"/>
      <point x="94" y="724"/>
      <point x="94" y="705" type="curve" smooth="yes"/>
      <point x="94" y="691"/>
      <point x="99" y="663"/>
      <point x="125" y="614" type="curve"/>
      <point x="113" y="606" type="line"/>
      <point x="75" y="667"/>
      <point x="60" y="721"/>
      <point x="60" y="742" type="curve" smooth="yes"/>
      <point x="60" y="762"/>
      <point x="73" y="772"/>
      <point x="86" y="772" type="curve" smooth="yes"/>
      <point x="98" y="772"/>
      <point x="110" y="763"/>
    </contour>
  </outline>
</glyph>
<glyph name="daggerdbl" format="2">
  <advance width="465"/>
  <unicode hex="2021"/>
  <outline>
    <contour>
      <point x="233" y="496" type="line"/>
      <point x="424" y="509" type="line"/>
      <point x="424" y="522" type="line"/>
      <point x="233" y="522" type="line"/>
      <point x="241" y="513" type="line"/>
      <point x="243" y="696" type="line"/>
      <point x="223" y="696" type="line"/>
      <point x="224" y="513" type="line"/>
      <point x="232" y="522" type="line"/>
      <point x="41" y="522" type="line"/>
      <point x="41" y="509" type="line"/>
    </contour>
    <contour>
      <point x="233" y="-51" type="line"/>
      <point x="241" y="-40" type="line"/>
      <point x="243" y="308" type="line"/>
      <point x="233" y="305" type="line"/>
      <point x="223" y="308" type="line"/>
      <point x="223" y="-40" type="line"/>
    </contour>
    <contour>
      <point x="233" y="388" type="line"/>
      <point x="387" y="416" type="line"/>
      <point x="387" y="429" type="line"/>
      <point x="233" y="411" type="line"/>
      <point x="78" y="429" type="line"/>
      <point x="78" y="416" type="line"/>
    </contour>
  </outline>
</glyph>
<glyph name="guilsinglright" format="2">
  <advance width="302"/>
  <unicode hex="203A"/>
  <guideline x="114" y="81" angle="0"/>
  <guideline x="114" y="460" angle="0"/>
  <outline>
    <contour>
      <point x="93" y="460" type="line"/>
      <point x="81" y="450" type="line"/>
      <point x="220" y="263" type="line"/>
      <point x="220" y="277" type="line"/>
      <point x="81" y="91" type="line"/>
      <point x="93" y="81" type="line"/>
      <point x="235" y="260" type="line"/>
      <point x="235" y="281" type="line"/>
    </contour>
  </outline>
</glyph>
<glyph name="lira" format="2">
  <advance width="726"/>
  <unicode hex="20A4"/>
  <outline>
    <contour>
      <point x="114" y="0" type="line"/>
      <point x="596" y="0" type="line"/>
      <point x="596" y="142" type="line"/>
      <point x="581" y="142" type="line"/>
      <point x="566" y="12" type="line"/>
      <point x="574" y="19" type="line"/>
      <point x="204" y="22" type="line"/>
      <point x="207" y="15" type="line"/>
      <point x="260" y="45"/>
      <point x="276" y="108"/>
      <point x="276" y="184" type="curve" smooth="yes"/>
      <point x="276" y="223"/>
      <point x="272" y="265"/>
      <point x="267" y="308" type="curve"/>
      <point x="259" y="297" type="line"/>
      <point x="462" y="297" type="line"/>
      <point x="462" y="316" type="line"/>
      <point x="114" y="316" type="line"/>
      <point x="114" y="297" type="line"/>
      <point x="251" y="297" type="line"/>
      <point x="243" y="308" type="line"/>
      <point x="249" y="264"/>
      <point x="253" y="222"/>
      <point x="253" y="183" type="curve" smooth="yes"/>
      <point x="253" y="109"/>
      <point x="238" y="48"/>
      <point x="187" y="21" type="curve"/>
      <point x="210" y="33" type="line"/>
      <point x="114" y="15" type="line"/>
    </contour>
    <contour>
      <point x="114" y="397" type="line"/>
      <point x="462" y="397" type="line"/>
      <point x="462" y="416" type="line"/>
      <point x="245" y="416" type="line"/>
      <point x="253" y="410" type="line"/>
      <point x="247" y="455"/>
      <point x="242" y="498"/>
      <point x="242" y="536" type="curve" smooth="yes"/>
      <point x="242" y="640"/>
      <point x="308" y="678"/>
      <point x="414" y="678" type="curve" smooth="yes"/>
      <point x="458" y="678"/>
      <point x="511" y="672"/>
      <point x="568" y="660" type="curve"/>
      <point x="559" y="673" type="line"/>
      <point x="570" y="543" type="line"/>
      <point x="585" y="543" type="line"/>
      <point x="590" y="675" type="line"/>
      <point x="528" y="689"/>
      <point x="469" y="698"/>
      <point x="418" y="698" type="curve" smooth="yes"/>
      <point x="300" y="698"/>
      <point x="220" y="654"/>
      <point x="220" y="533" type="curve" smooth="yes"/>
      <point x="220" y="495"/>
      <point x="225" y="452"/>
      <point x="230" y="407" type="curve"/>
      <point x="235" y="416" type="line"/>
      <point x="114" y="416" type="line"/>
    </contour>
  </outline>
</glyph>
<glyph name="naira" format="2">
  <advance width="964"/>
  <unicode hex="20A6"/>
  <guideline x="137" y="454" angle="90"/>
  <guideline x="840" y="454" angle="90"/>
  <outline>
    <contour>
      <point x="135" y="0" type="line"/>
      <point x="355" y="0" type="line"/>
      <point x="355" y="15" type="line"/>
      <point x="248" y="29" type="line"/>
      <point x="255" y="21" type="line"/>
      <point x="255" y="304" type="line"/>
      <point x="235" y="304" type="line"/>
      <point x="235" y="21" type="line"/>
      <point x="242" y="29" type="line"/>
      <point x="135" y="15" type="line"/>
    </contour>
    <contour>
      <point x="718" y="0" type="line"/>
      <point x="738" y="0" type="line"/>
      <point x="738" y="304" type="line"/>
      <point x="718" y="304" type="line"/>
      <point x="718" y="30" type="line"/>
      <point x="722" y="31" type="line"/>
      <point x="532" y="304" type="line"/>
      <point x="506" y="304" type="line"/>
    </contour>
    <contour>
      <point x="82" y="295" type="line"/>
      <point x="891" y="295" type="line"/>
      <point x="891" y="314" type="line"/>
      <point x="82" y="314" type="line"/>
    </contour>
    <contour>
      <point x="82" y="395" type="line"/>
      <point x="891" y="395" type="line"/>
      <point x="891" y="414" type="line"/>
      <point x="82" y="414" type="line"/>
    </contour>
    <contour>
      <point x="718" y="405" type="line"/>
      <point x="738" y="405" type="line"/>
      <point x="738" y="671" type="line"/>
      <point x="731" y="663" type="line"/>
      <point x="838" y="677" type="line"/>
      <point x="838" y="692" type="line"/>
      <point x="618" y="687" type="line"/>
      <point x="618" y="672" type="line"/>
      <point x="725" y="665" type="line"/>
      <point x="718" y="672" type="line"/>
    </contour>
    <contour>
      <point x="235" y="405" type="line"/>
      <point x="255" y="405" type="line"/>
      <point x="255" y="670" type="line"/>
      <point x="251" y="669" type="line"/>
      <point x="436" y="405" type="line"/>
      <point x="461" y="405" type="line"/>
      <point x="260" y="692" type="line"/>
      <point x="135" y="687" type="line"/>
      <point x="135" y="672" type="line"/>
      <point x="242" y="663" type="line"/>
      <point x="235" y="671" type="line"/>
    </contour>
  </outline>
</glyph>
<glyph name="dong" format="2">
  <advance width="726"/>
  <unicode hex="20AB"/>
  <guideline x="604" y="308" angle="90"/>
  <outline>
    <contour>
      <point x="315" y="-7" type="curve" smooth="yes"/>
      <point x="373" y="-7"/>
      <point x="437" y="21"/>
      <point x="498" y="80" type="curve"/>
      <point x="494" y="83" type="line"/>
      <point x="499" y="-2" type="line"/>
      <point x="604" y="2" type="line"/>
      <point x="604" y="17" type="line"/>
      <point x="507" y="27" type="line"/>
      <point x="514" y="19" type="line"/>
      <point x="514" y="637" type="line"/>
      <point x="509" y="632" type="line"/>
      <point x="604" y="632" type="line"/>
      <point x="604" y="651" type="line"/>
      <point x="509" y="651" type="line"/>
      <point x="514" y="646" type="line"/>
      <point x="514" y="762" type="line"/>
      <point x="494" y="762" type="line"/>
      <point x="494" y="646" type="line"/>
      <point x="499" y="651" type="line"/>
      <point x="269" y="651" type="line"/>
      <point x="269" y="632" type="line"/>
      <point x="499" y="632" type="line"/>
      <point x="494" y="637" type="line"/>
      <point x="494" y="502" type="line"/>
      <point x="501" y="506" type="line"/>
      <point x="451" y="520"/>
      <point x="405" y="528"/>
      <point x="363" y="528" type="curve" smooth="yes"/>
      <point x="213" y="528"/>
      <point x="118" y="431"/>
      <point x="118" y="256" type="curve" smooth="yes"/>
      <point x="118" y="88"/>
      <point x="206" y="-7"/>
    </contour>
    <contour>
      <point x="127" y="-96" type="line"/>
      <point x="604" y="-96" type="line"/>
      <point x="604" y="-76" type="line"/>
      <point x="127" y="-76" type="line"/>
    </contour>
    <contour>
      <point x="317" y="12" type="curve" smooth="yes"/>
      <point x="218" y="12"/>
      <point x="139" y="101"/>
      <point x="139" y="257" type="curve" smooth="yes"/>
      <point x="139" y="417"/>
      <point x="222" y="509"/>
      <point x="362" y="509" type="curve" smooth="yes"/>
      <point x="403" y="509"/>
      <point x="449" y="501"/>
      <point x="499" y="484" type="curve"/>
      <point x="494" y="491" type="line"/>
      <point x="494" y="92" type="line"/>
      <point x="498" y="104" type="line"/>
      <point x="438" y="41"/>
      <point x="374" y="12"/>
    </contour>
  </outline>
</glyph>
<glyph name="euro" format="2">
  <advance width="759"/>
  <unicode hex="20AC"/>
  <outline>
    <contour>
      <point x="186" y="403" type="line"/>
      <point x="201" y="576"/>
      <point x="290" y="678"/>
      <point x="442" y="678" type="curve" smooth="yes"/>
      <point x="493" y="678"/>
      <point x="549" y="665"/>
      <point x="610" y="639" type="curve"/>
      <point x="605" y="648" type="line"/>
      <point x="616" y="521" type="line"/>
      <point x="631" y="521" type="line"/>
      <point x="636" y="652" type="line"/>
      <point x="567" y="683"/>
      <point x="503" y="698"/>
      <point x="445" y="698" type="curve" smooth="yes"/>
      <point x="282" y="698"/>
      <point x="181" y="590"/>
      <point x="164" y="404" type="curve"/>
      <point x="171" y="410" type="line"/>
      <point x="93" y="410" type="line"/>
      <point x="93" y="391" type="line"/>
      <point x="514" y="391" type="line"/>
      <point x="514" y="410" type="line"/>
      <point x="181" y="410" type="line"/>
    </contour>
    <contour>
      <point x="162" y="302" type="line"/>
      <point x="175" y="107"/>
      <point x="278" y="-5"/>
      <point x="413" y="-5" type="curve" smooth="yes"/>
      <point x="484" y="-5"/>
      <point x="564" y="26"/>
      <point x="645" y="93" type="curve"/>
      <point x="632" y="109" type="line"/>
      <point x="558" y="46"/>
      <point x="483" y="16"/>
      <point x="417" y="16" type="curve" smooth="yes"/>
      <point x="292" y="16"/>
      <point x="197" y="121"/>
      <point x="184" y="304" type="curve"/>
      <point x="179" y="291" type="line"/>
      <point x="514" y="291" type="line"/>
      <point x="514" y="310" type="line"/>
      <point x="93" y="310" type="line"/>
      <point x="93" y="291" type="line"/>
      <point x="169" y="291" type="line"/>
    </contour>
  </outline>
</glyph>
<glyph name="hryvnia" format="2">
  <advance width="751"/>
  <unicode hex="20B4"/>
  <outline>
    <contour>
      <point x="389" y="-6" type="curve" smooth="yes"/>
      <point x="451" y="-6"/>
      <point x="516" y="8"/>
      <point x="573" y="35" type="curve"/>
      <point x="567" y="169" type="line"/>
      <point x="552" y="169" type="line"/>
      <point x="540" y="39" type="line"/>
      <point x="546" y="47" type="line"/>
      <point x="497" y="26"/>
      <point x="443" y="15"/>
      <point x="391" y="15" type="curve" smooth="yes"/>
      <point x="286" y="15"/>
      <point x="195" y="60"/>
      <point x="195" y="154" type="curve" smooth="yes"/>
      <point x="195" y="203"/>
      <point x="226" y="256"/>
      <point x="295" y="299" type="curve"/>
      <point x="271" y="291" type="line"/>
      <point x="611" y="291" type="line"/>
      <point x="611" y="310" type="line"/>
      <point x="148" y="310" type="line"/>
      <point x="148" y="291" type="line"/>
      <point x="259" y="291" type="line"/>
      <point x="264" y="302" type="line"/>
      <point x="200" y="257"/>
      <point x="171" y="202"/>
      <point x="171" y="152" type="curve" smooth="yes"/>
      <point x="171" y="44"/>
      <point x="273" y="-6"/>
    </contour>
    <contour>
      <point x="148" y="391" type="line"/>
      <point x="611" y="391" type="line"/>
      <point x="611" y="410" type="line"/>
      <point x="463" y="410" type="line"/>
      <point x="461" y="403" type="line"/>
      <point x="517" y="440"/>
      <point x="562" y="494"/>
      <point x="562" y="557" type="curve" smooth="yes"/>
      <point x="562" y="653"/>
      <point x="472" y="698"/>
      <point x="362" y="698" type="curve" smooth="yes"/>
      <point x="305" y="698"/>
      <point x="243" y="686"/>
      <point x="185" y="662" type="curve"/>
      <point x="192" y="527" type="line"/>
      <point x="207" y="527" type="line"/>
      <point x="216" y="653" type="line"/>
      <point x="208" y="648" type="line"/>
      <point x="257" y="668"/>
      <point x="310" y="677"/>
      <point x="359" y="677" type="curve" smooth="yes"/>
      <point x="457" y="677"/>
      <point x="540" y="638"/>
      <point x="540" y="553" type="curve" smooth="yes"/>
      <point x="540" y="491"/>
      <point x="490" y="440"/>
      <point x="425" y="403" type="curve"/>
      <point x="449" y="410" type="line"/>
      <point x="148" y="410" type="line"/>
    </contour>
  </outline>
</glyph>
<glyph name="cedi" format="2">
  <advance width="728"/>
  <unicode hex="20B5"/>
  <outline>
    <contour>
      <point x="634" y="103" type="curve"/>
      <point x="621" y="119" type="line"/>
      <point x="544" y="55"/>
      <point x="465" y="25"/>
      <point x="391" y="25" type="curve" smooth="yes"/>
      <point x="242" y="25"/>
      <point x="120" y="147"/>
      <point x="120" y="345" type="curve" smooth="yes"/>
      <point x="120" y="541"/>
      <point x="239" y="668"/>
      <point x="405" y="668" type="curve" smooth="yes"/>
      <point x="464" y="668"/>
      <point x="532" y="652"/>
      <point x="595" y="629" type="curve"/>
      <point x="605" y="506" type="line"/>
      <point x="620" y="506" type="line"/>
      <point x="625" y="640" type="line"/>
      <point x="549" y="673"/>
      <point x="478" y="688"/>
      <point x="403" y="688" type="curve"/>
      <point x="412" y="679" type="line"/>
      <point x="412" y="824" type="line"/>
      <point x="393" y="824" type="line"/>
      <point x="393" y="678" type="line"/>
      <point x="399" y="687" type="line"/>
      <point x="217" y="680"/>
      <point x="98" y="547"/>
      <point x="98" y="340" type="curve" smooth="yes"/>
      <point x="98" y="140"/>
      <point x="209" y="4"/>
      <point x="402" y="4" type="curve"/>
      <point x="393" y="13" type="line"/>
      <point x="393" y="-144" type="line"/>
      <point x="412" y="-144" type="line"/>
      <point x="412" y="14" type="line"/>
      <point x="407" y="5" type="line"/>
      <point x="480" y="10"/>
      <point x="559" y="43"/>
    </contour>
  </outline>
</glyph>
<glyph name="rupeeIndian" format="2">
  <advance width="671"/>
  <unicode hex="20B9"/>
  <outline>
    <contour>
      <point x="491" y="0" type="line"/>
      <point x="574" y="0" type="line"/>
      <point x="574" y="15" type="line"/>
      <point x="494" y="30" type="line"/>
      <point x="507" y="20" type="line"/>
      <point x="404" y="203" type="line" smooth="yes"/>
      <point x="361" y="279"/>
      <point x="346" y="324"/>
      <point x="274" y="336" type="curve"/>
      <point x="277" y="334" type="line"/>
      <point x="409" y="345"/>
      <point x="476" y="414"/>
      <point x="476" y="528" type="curve" smooth="yes"/>
      <point x="476" y="546"/>
      <point x="473" y="563"/>
      <point x="470" y="579" type="curve"/>
      <point x="462" y="573" type="line"/>
      <point x="564" y="573" type="line"/>
      <point x="564" y="592" type="line"/>
      <point x="108" y="592" type="line"/>
      <point x="108" y="573" type="line"/>
      <point x="457" y="573" type="line"/>
      <point x="446" y="578" type="line"/>
      <point x="451" y="563"/>
      <point x="454" y="546"/>
      <point x="454" y="527" type="curve" smooth="yes"/>
      <point x="454" y="407"/>
      <point x="370" y="347"/>
      <point x="225" y="347" type="curve" smooth="yes"/>
      <point x="108" y="347" type="line"/>
      <point x="108" y="328" type="line"/>
      <point x="198" y="328" type="line" smooth="yes"/>
      <point x="287" y="328"/>
      <point x="321" y="317"/>
      <point x="385" y="197" type="curve" smooth="yes"/>
    </contour>
    <contour>
      <point x="108" y="673" type="line"/>
      <point x="564" y="673" type="line"/>
      <point x="564" y="692" type="line"/>
      <point x="108" y="692" type="line"/>
    </contour>
  </outline>
</glyph>
<glyph name="careof" format="2">
  <advance width="1077"/>
  <unicode hex="2105"/>
  <outline>
    <contour>
      <point x="261" y="272" type="curve" smooth="yes"/>
      <point x="312" y="272"/>
      <point x="364" y="290"/>
      <point x="414" y="327" type="curve"/>
      <point x="402" y="342" type="line"/>
      <point x="355" y="308"/>
      <point x="308" y="291"/>
      <point x="262" y="291" type="curve" smooth="yes"/>
      <point x="174" y="291"/>
      <point x="110" y="353"/>
      <point x="110" y="480" type="curve" smooth="yes"/>
      <point x="110" y="608"/>
      <point x="174" y="679"/>
      <point x="276" y="679" type="curve" smooth="yes"/>
      <point x="309" y="679"/>
      <point x="342" y="672"/>
      <point x="378" y="657" type="curve"/>
      <point x="369" y="663" type="line"/>
      <point x="378" y="576" type="line"/>
      <point x="397" y="576" type="line"/>
      <point x="399" y="667" type="line"/>
      <point x="357" y="688"/>
      <point x="315" y="698"/>
      <point x="274" y="698" type="curve" smooth="yes"/>
      <point x="166" y="698"/>
      <point x="89" y="619"/>
      <point x="89" y="479" type="curve" smooth="yes"/>
      <point x="89" y="343"/>
      <point x="164" y="272"/>
    </contour>
    <contour>
      <point x="792" y="-6" type="curve" smooth="yes"/>
      <point x="896" y="-6"/>
      <point x="990" y="73"/>
      <point x="990" y="214" type="curve" smooth="yes"/>
      <point x="990" y="355"/>
      <point x="895" y="420"/>
      <point x="801" y="420" type="curve" smooth="yes"/>
      <point x="703" y="420"/>
      <point x="606" y="349"/>
      <point x="606" y="204" type="curve" smooth="yes"/>
      <point x="606" y="63"/>
      <point x="697" y="-6"/>
    </contour>
    <contour>
      <point x="794" y="13" type="curve" smooth="yes"/>
      <point x="708" y="13"/>
      <point x="627" y="75"/>
      <point x="627" y="205" type="curve" smooth="yes"/>
      <point x="627" y="339"/>
      <point x="713" y="401"/>
      <point x="800" y="401" type="curve" smooth="yes"/>
      <point x="887" y="401"/>
      <point x="969" y="339"/>
      <point x="969" y="212" type="curve" smooth="yes"/>
      <point x="969" y="79"/>
      <point x="882" y="13"/>
    </contour>
    <contour>
      <point x="270" y="-4" type="line"/>
      <point x="292" y="-4" type="line"/>
      <point x="743" y="696" type="line"/>
      <point x="721" y="696" type="line"/>
    </contour>
  </outline>
</glyph>
<glyph name="literSign" format="2">
  <advance width="468"/>
  <unicode hex="2113"/>
  <outline>
    <contour>
      <point x="293" y="-6" type="curve" smooth="yes"/>
      <point x="315" y="-6"/>
      <point x="340" y="-2"/>
      <point x="369" y="6" type="curve"/>
      <point x="364" y="24" type="line"/>
      <point x="339" y="17"/>
      <point x="317" y="13"/>
      <point x="298" y="13" type="curve" smooth="yes"/>
      <point x="208" y="13"/>
      <point x="177" y="87"/>
      <point x="177" y="218" type="curve" smooth="yes"/>
      <point x="177" y="314" type="line"/>
      <point x="170" y="299" type="line"/>
      <point x="335" y="437"/>
      <point x="378" y="556"/>
      <point x="378" y="642" type="curve" smooth="yes"/>
      <point x="378" y="715"/>
      <point x="341" y="768"/>
      <point x="275" y="768" type="curve" smooth="yes"/>
      <point x="194" y="768"/>
      <point x="157" y="691"/>
      <point x="157" y="568" type="curve" smooth="yes"/>
      <point x="157" y="304" type="line"/>
      <point x="161" y="317" type="line"/>
      <point x="137" y="297"/>
      <point x="111" y="275"/>
      <point x="82" y="255" type="curve"/>
      <point x="93" y="240" type="line"/>
      <point x="118" y="257"/>
      <point x="140" y="274"/>
      <point x="161" y="292" type="curve"/>
      <point x="157" y="297" type="line"/>
      <point x="157" y="217" type="line" smooth="yes"/>
      <point x="157" y="72"/>
      <point x="194" y="-6"/>
    </contour>
    <contour>
      <point x="177" y="321" type="line"/>
      <point x="177" y="570" type="line" smooth="yes"/>
      <point x="177" y="668"/>
      <point x="202" y="749"/>
      <point x="274" y="749" type="curve" smooth="yes"/>
      <point x="327" y="749"/>
      <point x="358" y="702"/>
      <point x="358" y="637" type="curve" smooth="yes"/>
      <point x="358" y="538"/>
      <point x="292" y="431"/>
      <point x="171" y="325" type="curve"/>
    </contour>
  </outline>
</glyph>
<glyph name="leftRightArrow" format="2">
  <advance width="1073"/>
  <unicode hex="2194"/>
  <outline>
    <contour>
      <point x="339" y="44" type="line"/>
      <point x="353" y="57" type="line"/>
      <point x="79" y="348" type="line"/>
      <point x="79" y="336" type="line"/>
      <point x="994" y="336" type="line"/>
      <point x="994" y="348" type="line"/>
      <point x="720" y="57" type="line"/>
      <point x="734" y="44" type="line"/>
      <point x="1014" y="339" type="line"/>
      <point x="1014" y="353" type="line"/>
      <point x="734" y="648" type="line"/>
      <point x="720" y="635" type="line"/>
      <point x="994" y="344" type="line"/>
      <point x="994" y="356" type="line"/>
      <point x="79" y="356" type="line"/>
      <point x="79" y="344" type="line"/>
      <point x="353" y="635" type="line"/>
      <point x="339" y="648" type="line"/>
      <point x="59" y="353" type="line"/>
      <point x="59" y="339" type="line"/>
    </contour>
  </outline>
</glyph>
<glyph name="partialdiff" format="2">
  <advance width="617"/>
  <unicode hex="2202"/>
  <guideline x="301" y="407" angle="0" identifier="EXB9PDyUkm"/>
  <outline>
    <contour>
      <point x="283" y="-6" type="curve" smooth="yes"/>
      <point x="420" y="-6"/>
      <point x="505" y="104"/>
      <point x="505" y="292" type="curve" smooth="yes"/>
      <point x="505" y="505"/>
      <point x="396" y="672"/>
      <point x="206" y="747" type="curve"/>
      <point x="197" y="729" type="line"/>
      <point x="369" y="660"/>
      <point x="468" y="521"/>
      <point x="483" y="332" type="curve"/>
      <point x="486" y="334" type="line"/>
      <point x="444" y="390"/>
      <point x="375" y="425"/>
      <point x="296" y="425" type="curve" smooth="yes"/>
      <point x="157" y="425"/>
      <point x="85" y="314"/>
      <point x="85" y="202" type="curve" smooth="yes"/>
      <point x="85" y="95"/>
      <point x="152" y="-6"/>
    </contour>
    <contour>
      <point x="283" y="13" type="curve" smooth="yes"/>
      <point x="166" y="13"/>
      <point x="106" y="105"/>
      <point x="106" y="205" type="curve" smooth="yes"/>
      <point x="106" y="306"/>
      <point x="169" y="406"/>
      <point x="295" y="406" type="curve" smooth="yes"/>
      <point x="377" y="406"/>
      <point x="452" y="363"/>
      <point x="487" y="307" type="curve"/>
      <point x="484" y="319" type="line"/>
      <point x="484" y="285" type="line" smooth="yes"/>
      <point x="484" y="117"/>
      <point x="408" y="13"/>
    </contour>
  </outline>
</glyph>
<glyph name="emptyset" format="2">
  <advance width="951"/>
  <unicode hex="2205"/>
  <guideline x="501" y="727" angle="0"/>
  <guideline x="475" y="362" angle="90"/>
  <guideline x="390" y="362" angle="0"/>
  <outline>
    <contour>
      <point x="474" y="-6" type="curve" smooth="yes"/>
      <point x="678" y="-6"/>
      <point x="846" y="162"/>
      <point x="846" y="363" type="curve" smooth="yes"/>
      <point x="846" y="567"/>
      <point x="675" y="733"/>
      <point x="475" y="733" type="curve" smooth="yes"/>
      <point x="273" y="733"/>
      <point x="106" y="564"/>
      <point x="105" y="362" type="curve" smooth="yes"/>
      <point x="104" y="160"/>
      <point x="272" y="-6"/>
    </contour>
    <contour>
      <point x="475" y="14" type="curve" smooth="yes"/>
      <point x="283" y="14"/>
      <point x="127" y="175"/>
      <point x="127" y="363" type="curve" smooth="yes"/>
      <point x="127" y="554"/>
      <point x="286" y="713"/>
      <point x="474" y="713" type="curve" smooth="yes"/>
      <point x="664" y="713"/>
      <point x="823" y="552"/>
      <point x="824" y="362" type="curve" smooth="yes"/>
      <point x="825" y="172"/>
      <point x="665" y="14"/>
    </contour>
    <contour>
      <point x="196" y="0" type="line"/>
      <point x="221" y="0" type="line"/>
      <point x="756" y="727" type="line"/>
      <point x="732" y="727" type="line"/>
    </contour>
  </outline>
</glyph>
<glyph name="increment" format="2">
  <advance width="691"/>
  <unicode hex="2206"/>
  <outline>
    <contour>
      <point x="355" y="693" type="line"/>
      <point x="337" y="693" type="line"/>
      <point x="67" y="17" type="line"/>
      <point x="67" y="0" type="line"/>
      <point x="625" y="0" type="line"/>
      <point x="625" y="14" type="line"/>
    </contour>
    <contour>
      <point x="611" y="19" type="line"/>
      <point x="79" y="19" type="line"/>
      <point x="85" y="11" type="line"/>
      <point x="346" y="670" type="line"/>
      <point x="343" y="670" type="line"/>
      <point x="605" y="11" type="line"/>
    </contour>
  </outline>
</glyph>
<glyph name="product" format="2">
  <advance width="825"/>
  <unicode hex="220F"/>
  <outline>
    <contour>
      <point x="91" y="-230" type="line"/>
      <point x="311" y="-230" type="line"/>
      <point x="311" y="-215" type="line"/>
      <point x="204" y="-201" type="line"/>
      <point x="211" y="-209" type="line"/>
      <point x="211" y="681" type="line"/>
      <point x="204" y="672" type="line"/>
      <point x="621" y="673" type="line"/>
      <point x="614" y="681" type="line"/>
      <point x="614" y="-209" type="line"/>
      <point x="621" y="-201" type="line"/>
      <point x="514" y="-215" type="line"/>
      <point x="514" y="-230" type="line"/>
      <point x="734" y="-230" type="line"/>
      <point x="734" y="-215" type="line"/>
      <point x="627" y="-201" type="line"/>
      <point x="634" y="-209" type="line"/>
      <point x="634" y="671" type="line"/>
      <point x="627" y="663" type="line"/>
      <point x="734" y="677" type="line"/>
      <point x="734" y="692" type="line"/>
      <point x="211" y="692" type="line"/>
      <point x="91" y="687" type="line"/>
      <point x="91" y="672" type="line"/>
      <point x="198" y="663" type="line"/>
      <point x="191" y="671" type="line"/>
      <point x="191" y="-209" type="line"/>
      <point x="198" y="-201" type="line"/>
      <point x="91" y="-215" type="line"/>
    </contour>
  </outline>
</glyph>
<glyph name="infinity" format="2">
  <advance width="1066"/>
  <unicode hex="221E"/>
  <outline>
    <contour>
      <point x="304" y="165" type="curve" smooth="yes"/>
      <point x="496" y="165"/>
      <point x="573" y="501"/>
      <point x="761" y="501" type="curve" smooth="yes"/>
      <point x="849" y="501"/>
      <point x="913" y="441"/>
      <point x="912" y="343" type="curve" smooth="yes"/>
      <point x="911" y="242"/>
      <point x="850" y="182"/>
      <point x="760" y="184" type="curve" smooth="yes"/>
      <point x="677" y="184"/>
      <point x="608" y="251"/>
      <point x="542" y="349" type="curve"/>
      <point x="526" y="337" type="line"/>
      <point x="594" y="234"/>
      <point x="670" y="165"/>
      <point x="759" y="165" type="curve" smooth="yes"/>
      <point x="861" y="165"/>
      <point x="933" y="233"/>
      <point x="933" y="343" type="curve" smooth="yes"/>
      <point x="933" y="452"/>
      <point x="861" y="520"/>
      <point x="761" y="520" type="curve" smooth="yes"/>
      <point x="561" y="520"/>
      <point x="483" y="187"/>
      <point x="304" y="184" type="curve" smooth="yes"/>
      <point x="216" y="183"/>
      <point x="154" y="244"/>
      <point x="154" y="342" type="curve" smooth="yes"/>
      <point x="154" y="442"/>
      <point x="215" y="501"/>
      <point x="306" y="501" type="curve" smooth="yes"/>
      <point x="388" y="501"/>
      <point x="458" y="434"/>
      <point x="524" y="336" type="curve"/>
      <point x="540" y="348" type="line"/>
      <point x="472" y="451"/>
      <point x="395" y="520"/>
      <point x="307" y="520" type="curve" smooth="yes"/>
      <point x="204" y="520"/>
      <point x="134" y="452"/>
      <point x="133" y="342" type="curve" smooth="yes"/>
      <point x="132" y="233"/>
      <point x="204" y="165"/>
    </contour>
  </outline>
</glyph>
<glyph name="integral" format="2">
  <advance width="345"/>
  <unicode hex="222B"/>
  <outline>
    <contour>
      <point x="-20" y="-222" type="line"/>
      <point x="12" y="-231"/>
      <point x="43" y="-237"/>
      <point x="70" y="-237" type="curve" smooth="yes"/>
      <point x="143" y="-237"/>
      <point x="193" y="-196"/>
      <point x="191" y="-86" type="curve" smooth="yes"/>
      <point x="186" y="159"/>
      <point x="177" y="488"/>
      <point x="174" y="713" type="curve" smooth="yes"/>
      <point x="173" y="811"/>
      <point x="212" y="845"/>
      <point x="274" y="845" type="curve" smooth="yes"/>
      <point x="299" y="845"/>
      <point x="328" y="839"/>
      <point x="360" y="830" type="curve"/>
      <point x="365" y="849" type="line"/>
      <point x="333" y="858"/>
      <point x="302" y="864"/>
      <point x="275" y="864" type="curve" smooth="yes"/>
      <point x="202" y="864"/>
      <point x="152" y="823"/>
      <point x="154" y="713" type="curve" smooth="yes"/>
      <point x="159" y="486"/>
      <point x="166" y="161"/>
      <point x="171" y="-86" type="curve" smooth="yes"/>
      <point x="173" y="-184"/>
      <point x="133" y="-218"/>
      <point x="71" y="-218" type="curve" smooth="yes"/>
      <point x="46" y="-218"/>
      <point x="17" y="-212"/>
      <point x="-15" y="-203" type="curve"/>
    </contour>
  </outline>
</glyph>
<glyph name="notequal" format="2">
  <advance width="570"/>
  <unicode hex="2260"/>
  <outline>
    <contour>
      <point x="149" y="93" type="line"/>
      <point x="438" y="594" type="line"/>
      <point x="422" y="604" type="line"/>
      <point x="133" y="103" type="line"/>
    </contour>
    <contour>
      <point x="68" y="252" type="line"/>
      <point x="502" y="252" type="line"/>
      <point x="502" y="271" type="line"/>
      <point x="68" y="271" type="line"/>
    </contour>
    <contour>
      <point x="68" y="426" type="line"/>
      <point x="502" y="426" type="line"/>
      <point x="502" y="445" type="line"/>
      <point x="68" y="445" type="line"/>
    </contour>
  </outline>
</glyph>
<glyph name="lessequal" format="2">
  <advance width="647"/>
  <unicode hex="2264"/>
  <guideline x="104" y="365" angle="90"/>
  <outline>
    <contour>
      <point x="516" y="168" type="line"/>
      <point x="523" y="186" type="line"/>
      <point x="116" y="365" type="line"/>
      <point x="116" y="357" type="line"/>
      <point x="523" y="524" type="line"/>
      <point x="516" y="541" type="line"/>
      <point x="104" y="371" type="line"/>
      <point x="104" y="350" type="line"/>
    </contour>
    <contour>
      <point x="538" y="67" type="line"/>
      <point x="104" y="67" type="line"/>
      <point x="104" y="48" type="line"/>
      <point x="538" y="48" type="line"/>
    </contour>
  </outline>
</glyph>
<glyph name="logicalnotReversed" format="2">
  <advance width="635"/>
  <unicode hex="2310"/>
  <outline>
    <contour>
      <point x="134" y="112" type="line"/>
      <point x="114" y="112" type="line"/>
      <point x="114" y="358" type="line"/>
      <point x="584" y="358" type="line"/>
      <point x="584" y="339" type="line"/>
      <point x="126" y="339" type="line"/>
      <point x="134" y="349" type="line"/>
    </contour>
  </outline>
</glyph>
<glyph name="whiteSquare" format="2">
  <advance width="764"/>
  <unicode hex="25A1"/>
  <outline>
    <contour>
      <point x="172" y="522" type="line"/>
      <point x="171" y="100" type="line"/>
      <point x="593" y="101" type="line"/>
      <point x="593" y="523" type="line"/>
    </contour>
    <contour>
      <point x="182" y="502" type="line"/>
      <point x="583" y="504" type="line"/>
      <point x="574" y="513" type="line"/>
      <point x="574" y="111" type="line"/>
      <point x="583" y="120" type="line"/>
      <point x="182" y="120" type="line"/>
      <point x="191" y="111" type="line"/>
      <point x="191" y="511" type="line"/>
    </contour>
  </outline>
</glyph>
<glyph name="rightBlackTriangle" format="2">
  <advance width="681"/>
  <unicode hex="25B6"/>
  <outline>
    <contour>
      <point x="593" y="317" type="line"/>
      <point x="202" y="545" type="line"/>
      <point x="201" y="91" type="line"/>
    </contour>
  </outline>
</glyph>
<glyph name="rightWhiteTriangle" format="2">
  <advance width="682"/>
  <unicode hex="25B7"/>
  <outline>
    <contour>
      <point x="593" y="323" type="line"/>
      <point x="202" y="95" type="line"/>
      <point x="201" y="549" type="line"/>
    </contour>
    <contour>
      <point x="563" y="318" type="line"/>
      <point x="215" y="520" type="line"/>
      <point x="221" y="523" type="line"/>
      <point x="221" y="120" type="line"/>
      <point x="215" y="123" type="line"/>
      <point x="563" y="326" type="line"/>
    </contour>
  </outline>
</glyph>
<glyph name="downBlackTriangle" format="2">
  <advance width="657"/>
  <unicode hex="25BC"/>
  <outline>
    <contour>
      <point x="327" y="86" type="line"/>
      <point x="555" y="477" type="line"/>
      <point x="101" y="478" type="line"/>
    </contour>
  </outline>
</glyph>
<glyph name="leftBlackTriangle" format="2">
  <advance width="682"/>
  <unicode hex="25C0"/>
  <outline>
    <contour>
      <point x="89" y="320" type="line"/>
      <point x="480" y="92" type="line"/>
      <point x="481" y="546" type="line"/>
    </contour>
  </outline>
</glyph>
<glyph name="leftWhiteTriangle" format="2">
  <advance width="681"/>
  <unicode hex="25C1"/>
  <outline>
    <contour>
      <point x="88" y="320" type="line"/>
      <point x="479" y="548" type="line"/>
      <point x="480" y="94" type="line"/>
    </contour>
    <contour>
      <point x="118" y="325" type="line"/>
      <point x="466" y="123" type="line"/>
      <point x="460" y="120" type="line"/>
      <point x="460" y="523" type="line"/>
      <point x="466" y="520" type="line"/>
      <point x="118" y="317" type="line"/>
    </contour>
  </outline>
</glyph>
<glyph name="blackDiamond" format="2">
  <advance width="705"/>
  <unicode hex="25C6"/>
  <outline>
    <contour>
      <point x="55" y="316" type="line"/>
      <point x="352" y="17" type="line"/>
      <point x="650" y="316" type="line"/>
      <point x="352" y="614" type="line"/>
    </contour>
  </outline>
</glyph>
<glyph name="fi" format="2">
  <advance width="599"/>
  <unicode hex="FB01"/>
  <guideline x="442" y="585" angle="90"/>
  <outline>
    <contour>
      <point x="46" y="0" type="line"/>
      <point x="266" y="0" type="line"/>
      <point x="266" y="15" type="line"/>
      <point x="149" y="29" type="line"/>
      <point x="156" y="21" type="line"/>
      <point x="156" y="510" type="line"/>
      <point x="149" y="503" type="line"/>
      <point x="464" y="503" type="line"/>
      <point x="457" y="514" type="line"/>
      <point x="457" y="21" type="line"/>
      <point x="464" y="29" type="line"/>
      <point x="367" y="15" type="line"/>
      <point x="367" y="0" type="line"/>
      <point x="567" y="0" type="line"/>
      <point x="567" y="15" type="line"/>
      <point x="470" y="29" type="line"/>
      <point x="477" y="21" type="line"/>
      <point x="477" y="525" type="line"/>
      <point x="149" y="522" type="line"/>
      <point x="156" y="513" type="line"/>
      <point x="156" y="615" type="line" smooth="yes"/>
      <point x="156" y="705"/>
      <point x="201" y="749"/>
      <point x="278" y="749" type="curve" smooth="yes"/>
      <point x="308" y="749"/>
      <point x="342" y="742"/>
      <point x="380" y="730" type="curve"/>
      <point x="386" y="747" type="line"/>
      <point x="347" y="761"/>
      <point x="311" y="768"/>
      <point x="279" y="768" type="curve" smooth="yes"/>
      <point x="193" y="768"/>
      <point x="136" y="719"/>
      <point x="136" y="612" type="curve" smooth="yes"/>
      <point x="136" y="513" type="line"/>
      <point x="143" y="522" type="line"/>
      <point x="46" y="517" type="line"/>
      <point x="46" y="503" type="line"/>
      <point x="143" y="503" type="line"/>
      <point x="136" y="510" type="line"/>
      <point x="136" y="21" type="line"/>
      <point x="143" y="29" type="line"/>
      <point x="46" y="15" type="line"/>
    </contour>
    <contour>
      <point x="464" y="663" type="curve" smooth="yes"/>
      <point x="479" y="663"/>
      <point x="491" y="673"/>
      <point x="491" y="692" type="curve" smooth="yes"/>
      <point x="491" y="710"/>
      <point x="481" y="722"/>
      <point x="465" y="722" type="curve" smooth="yes"/>
      <point x="450" y="722"/>
      <point x="439" y="711"/>
      <point x="439" y="692" type="curve" smooth="yes"/>
      <point x="439" y="674"/>
      <point x="449" y="663"/>
    </contour>
  </outline>
</glyph>
<glyph name="El-cy.loclBGR" format="2">
  <advance width="687"/>
  <outline>
    <contour>
      <point x="348" y="670" type="line"/>
      <point x="567" y="22" type="line"/>
      <point x="570" y="29" type="line"/>
      <point x="447" y="15" type="line"/>
      <point x="447" y="0" type="line"/>
      <point x="681" y="0" type="line"/>
      <point x="681" y="15" type="line"/>
      <point x="579" y="29" type="line"/>
      <point x="588" y="22" type="line"/>
      <point x="359" y="693" type="line"/>
      <point x="341" y="691" type="line"/>
      <point x="98" y="22" type="line"/>
      <point x="106" y="29" type="line"/>
      <point x="6" y="15" type="line"/>
      <point x="6" y="0" type="line"/>
      <point x="235" y="0" type="line"/>
      <point x="235" y="15" type="line"/>
      <point x="113" y="29" type="line"/>
      <point x="118" y="22" type="line"/>
      <point x="350" y="670" type="line"/>
    </contour>
  </outline>
</glyph>
<glyph name="Esdescender-cy.loclBSH" format="2">
  <advance width="660"/>
  <outline>
    <contour>
      <point x="386" y="-182" type="curve"/>
      <point x="403" y="-182"/>
      <point x="420" y="-168"/>
      <point x="420" y="-138" type="curve" smooth="yes"/>
      <point x="420" y="-94"/>
      <point x="386" y="-40"/>
      <point x="352" y="-4" type="curve"/>
      <point x="327" y="-4" type="line"/>
      <point x="358" y="-36"/>
      <point x="383" y="-74"/>
      <point x="392" y="-115" type="curve"/>
      <point x="397" y="-102" type="line"/>
      <point x="354" y="-151" type="line"/>
      <point x="356" y="-171"/>
      <point x="371" y="-182"/>
    </contour>
    <contour>
      <point x="360" y="-6" type="curve" smooth="yes"/>
      <point x="438" y="-6"/>
      <point x="524" y="26"/>
      <point x="597" y="93" type="curve"/>
      <point x="584" y="109" type="line"/>
      <point x="516" y="45"/>
      <point x="437" y="15"/>
      <point x="366" y="15" type="curve" smooth="yes"/>
      <point x="219" y="15"/>
      <point x="103" y="138"/>
      <point x="103" y="347" type="curve" smooth="yes"/>
      <point x="103" y="551"/>
      <point x="216" y="678"/>
      <point x="378" y="678" type="curve" smooth="yes"/>
      <point x="432" y="678"/>
      <point x="501" y="664"/>
      <point x="563" y="637" type="curve"/>
      <point x="558" y="646" type="line"/>
      <point x="569" y="516" type="line"/>
      <point x="583" y="516" type="line"/>
      <point x="588" y="650" type="line"/>
      <point x="514" y="683"/>
      <point x="442" y="698"/>
      <point x="381" y="698" type="curve" smooth="yes"/>
      <point x="204" y="698"/>
      <point x="81" y="566"/>
      <point x="81" y="343" type="curve" smooth="yes"/>
      <point x="81" y="122"/>
      <point x="203" y="-6"/>
    </contour>
  </outline>
</glyph>
<glyph name="Zedescender-cy.loclBSH" format="2">
  <advance width="570"/>
  <anchor x="268" y="692" name="top"/>
  <outline>
    <contour>
      <point x="275" y="-151" type="line"/>
      <point x="277" y="-171"/>
      <point x="292" y="-182"/>
      <point x="307" y="-182" type="curve" smooth="yes"/>
      <point x="324" y="-182"/>
      <point x="341" y="-168"/>
      <point x="341" y="-138" type="curve" smooth="yes"/>
      <point x="341" y="-93"/>
      <point x="304" y="-35"/>
      <point x="270" y="0" type="curve"/>
      <point x="242" y="2" type="line"/>
      <point x="278" y="-32"/>
      <point x="306" y="-75"/>
      <point x="315" y="-121" type="curve"/>
      <point x="316" y="-105" type="line"/>
    </contour>
    <contour>
      <point x="57" y="43" type="line"/>
      <point x="120" y="11"/>
      <point x="187" y="-6"/>
      <point x="250" y="-6" type="curve" smooth="yes"/>
      <point x="374" y="-6"/>
      <point x="477" y="59"/>
      <point x="477" y="192" type="curve" smooth="yes"/>
      <point x="477" y="292"/>
      <point x="419" y="361"/>
      <point x="298" y="369" type="curve"/>
      <point x="298" y="367" type="line"/>
      <point x="408" y="375"/>
      <point x="457" y="437"/>
      <point x="457" y="531" type="curve" smooth="yes"/>
      <point x="457" y="649"/>
      <point x="380" y="698"/>
      <point x="268" y="698" type="curve" smooth="yes"/>
      <point x="211" y="698"/>
      <point x="144" y="685"/>
      <point x="75" y="661" type="curve"/>
      <point x="82" y="524" type="line"/>
      <point x="97" y="524" type="line"/>
      <point x="108" y="659" type="line"/>
      <point x="102" y="651" type="line"/>
      <point x="159" y="668"/>
      <point x="215" y="678"/>
      <point x="265" y="678" type="curve" smooth="yes"/>
      <point x="365" y="678"/>
      <point x="435" y="638"/>
      <point x="435" y="530" type="curve" smooth="yes"/>
      <point x="435" y="434"/>
      <point x="380" y="378"/>
      <point x="253" y="378" type="curve" smooth="yes"/>
      <point x="174" y="378" type="line"/>
      <point x="174" y="358" type="line"/>
      <point x="248" y="358" type="line" smooth="yes"/>
      <point x="402" y="358"/>
      <point x="456" y="282"/>
      <point x="456" y="190" type="curve" smooth="yes"/>
      <point x="456" y="71"/>
      <point x="365" y="14"/>
      <point x="254" y="14" type="curve" smooth="yes"/>
      <point x="194" y="14"/>
      <point x="128" y="31"/>
      <point x="67" y="62" type="curve"/>
    </contour>
  </outline>
</glyph>
<glyph name=".notdef" format="2">
  <advance width="495"/>
  <outline>
    <contour>
      <point x="93" y="-230" type="line"/>
      <point x="407" y="-230" type="line"/>
      <point x="407" y="761" type="line"/>
      <point x="93" y="761" type="line"/>
    </contour>
    <contour>
      <point x="165" y="-161" type="line"/>
      <point x="165" y="-130" type="line"/>
      <point x="235" y="-83" type="line"/>
      <point x="165" y="-83" type="line"/>
      <point x="165" y="-50" type="line"/>
      <point x="330" y="-50" type="line"/>
      <point x="330" y="-83" type="line"/>
      <point x="298" y="-83" type="line"/>
      <point x="229" y="-130" type="line"/>
      <point x="330" y="-130" type="line"/>
      <point x="330" y="-161" type="line"/>
    </contour>
    <contour>
      <point x="165" y="-27" type="line"/>
      <point x="165" y="85" type="line"/>
      <point x="330" y="85" type="line"/>
      <point x="330" y="-27" type="line"/>
    </contour>
    <contour>
      <point x="198" y="6" type="line"/>
      <point x="298" y="6" type="line"/>
      <point x="298" y="53" type="line"/>
      <point x="198" y="53" type="line"/>
    </contour>
    <contour>
      <point x="165" y="145" type="line"/>
      <point x="165" y="258" type="line"/>
      <point x="198" y="258" type="line"/>
      <point x="198" y="178" type="line"/>
      <point x="298" y="178" type="line"/>
      <point x="298" y="225" type="line"/>
      <point x="265" y="225" type="line"/>
      <point x="265" y="202" type="line"/>
      <point x="231" y="202" type="line"/>
      <point x="231" y="258" type="line"/>
      <point x="330" y="258" type="line"/>
      <point x="330" y="145" type="line"/>
    </contour>
    <contour>
      <point x="165" y="278" type="line"/>
      <point x="165" y="312" type="line"/>
      <point x="298" y="312" type="line"/>
      <point x="298" y="378" type="line"/>
      <point x="330" y="378" type="line"/>
      <point x="330" y="278" type="line"/>
    </contour>
    <contour>
      <point x="165" y="335" type="line"/>
      <point x="165" y="368" type="line"/>
      <point x="231" y="368" type="line"/>
      <point x="231" y="405" type="line"/>
      <point x="165" y="405" type="line"/>
      <point x="165" y="438" type="line"/>
      <point x="330" y="438" type="line"/>
      <point x="330" y="405" type="line"/>
      <point x="265" y="405" type="line"/>
      <point x="265" y="335" type="line"/>
    </contour>
    <contour>
      <point x="198" y="497" type="line"/>
      <point x="231" y="497" type="line"/>
      <point x="231" y="533" type="line"/>
      <point x="198" y="533" type="line"/>
    </contour>
    <contour>
      <point x="165" y="465" type="line"/>
      <point x="165" y="567" type="line"/>
      <point x="265" y="567" type="line"/>
      <point x="265" y="497" type="line"/>
      <point x="330" y="497" type="line"/>
      <point x="330" y="465" type="line"/>
    </contour>
    <contour>
      <point x="165" y="593" type="line"/>
      <point x="165" y="626" type="line"/>
      <point x="231" y="626" type="line"/>
      <point x="231" y="663" type="line"/>
      <point x="166" y="663" type="line"/>
      <point x="166" y="694" type="line"/>
      <point x="330" y="694" type="line"/>
      <point x="330" y="663" type="line"/>
      <point x="265" y="663" type="line"/>
      <point x="265" y="626" type="line"/>
      <point x="330" y="626" type="line"/>
      <point x="330" y="593" type="line"/>
    </contour>
  </outline>
</glyph>
<glyph name="a.sc.ogonekAccent" format="2">
  <advance width="605"/>
  <anchor x="304" y="0" name="bottom"/>
  <anchor x="543" y="0" name="ogonek"/>
  <anchor x="308" y="568" name="top"/>
  <outline>
    <contour>
      <point x="527" y="20" type="line"/>
      <point x="318" y="570" type="line"/>
      <point x="300" y="568" type="line"/>
      <point x="77" y="20" type="line"/>
      <point x="86" y="26" type="line"/>
      <point x="-6" y="14" type="line"/>
      <point x="-6" y="0" type="line"/>
      <point x="200" y="0" type="line"/>
      <point x="200" y="14" type="line"/>
      <point x="94" y="26" type="line"/>
      <point x="96" y="20" type="line"/>
      <point x="158" y="174" type="line"/>
      <point x="149" y="168" type="line"/>
      <point x="455" y="168" type="line"/>
      <point x="447" y="177" type="line"/>
      <point x="514" y="0" type="line"/>
      <point x="611" y="0" type="line"/>
      <point x="611" y="14" type="line"/>
      <point x="518" y="26" type="line"/>
    </contour>
    <contour>
      <point x="161" y="181" type="line"/>
      <point x="312" y="557" type="line"/>
      <point x="305" y="556" type="line"/>
      <point x="446" y="180" type="line"/>
      <point x="447" y="186" type="line"/>
      <point x="157" y="186" type="line"/>
    </contour>
  </outline>
</glyph>
<glyph name="acutedbl" format="2">
  <advance width="167"/>
  <anchor x="41" y="522" name="_top"/>
  <anchor x="27" y="522" name="_topright"/>
  <outline>
    <contour>
      <point x="61" y="599" type="line"/>
      <point x="172" y="702" type="line"/>
      <point x="149" y="722" type="line"/>
      <point x="48" y="612" type="line"/>
    </contour>
  </outline>
</glyph>
<glyph name="acutedotaccentcomb.case" format="2">
  <advance width="393"/>
  <guideline x="-25" y="747" angle="0"/>
  <guideline x="-25" y="868" angle="0"/>
  <guideline x="-25" y="834" angle="0"/>
  <guideline x="-25" y="775" angle="0"/>
  <anchor x="185" y="692" name="_top"/>
  <outline>
    <contour>
      <point x="89" y="731" type="line"/>
      <point x="272" y="811" type="line"/>
      <point x="257" y="840" type="line"/>
      <point x="80" y="747" type="line"/>
    </contour>
    <contour>
      <point x="162" y="847" type="curve" smooth="yes"/>
      <point x="177" y="847"/>
      <point x="189" y="857"/>
      <point x="189" y="876" type="curve" smooth="yes"/>
      <point x="189" y="894"/>
      <point x="179" y="906"/>
      <point x="163" y="906" type="curve" smooth="yes"/>
      <point x="148" y="906"/>
      <point x="137" y="895"/>
      <point x="137" y="876" type="curve" smooth="yes"/>
      <point x="137" y="858"/>
      <point x="147" y="847"/>
    </contour>
  </outline>
</glyph>
<glyph name="acutedotaccentcomb" format="2">
  <advance width="373"/>
  <anchor x="167" y="522" name="_top"/>
  <outline>
    <contour>
      <point x="96" y="600" type="line"/>
      <point x="265" y="706" type="line"/>
      <point x="247" y="733" type="line"/>
      <point x="86" y="614" type="line"/>
    </contour>
    <contour>
      <point x="154" y="739" type="curve" smooth="yes"/>
      <point x="169" y="739"/>
      <point x="181" y="749"/>
      <point x="181" y="768" type="curve" smooth="yes"/>
      <point x="181" y="786"/>
      <point x="171" y="798"/>
      <point x="155" y="798" type="curve" smooth="yes"/>
      <point x="140" y="798"/>
      <point x="129" y="787"/>
      <point x="129" y="768" type="curve" smooth="yes"/>
      <point x="129" y="750"/>
      <point x="139" y="739"/>
    </contour>
  </outline>
</glyph>
<glyph name="ae.sc" format="2">
  <advance width="863"/>
  <anchor x="436" y="0" name="bottom"/>
  <anchor x="544" y="568" name="top"/>
  <outline>
    <contour>
      <point x="0" y="0" type="line"/>
      <point x="210" y="0" type="line"/>
      <point x="210" y="14" type="line"/>
      <point x="101" y="26" type="line"/>
      <point x="103" y="19" type="line"/>
      <point x="206" y="191" type="line"/>
      <point x="197" y="184" type="line"/>
      <point x="446" y="184" type="line"/>
      <point x="440" y="191" type="line"/>
      <point x="440" y="19" type="line"/>
      <point x="446" y="26" type="line"/>
      <point x="349" y="14" type="line"/>
      <point x="349" y="0" type="line"/>
      <point x="787" y="0" type="line"/>
      <point x="787" y="117" type="line"/>
      <point x="772" y="117" type="line"/>
      <point x="758" y="12" type="line"/>
      <point x="765" y="19" type="line"/>
      <point x="453" y="19" type="line"/>
      <point x="460" y="12" type="line"/>
      <point x="460" y="299" type="line"/>
      <point x="453" y="292" type="line"/>
      <point x="708" y="292" type="line"/>
      <point x="708" y="311" type="line"/>
      <point x="453" y="311" type="line"/>
      <point x="460" y="305" type="line"/>
      <point x="460" y="556" type="line"/>
      <point x="453" y="549" type="line"/>
      <point x="754" y="549" type="line"/>
      <point x="745" y="556" type="line"/>
      <point x="760" y="455" type="line"/>
      <point x="775" y="455" type="line"/>
      <point x="775" y="568" type="line"/>
      <point x="458" y="568" type="line"/>
      <point x="314" y="564" type="line"/>
      <point x="314" y="550" type="line"/>
      <point x="406" y="543" type="line"/>
      <point x="401" y="549" type="line"/>
      <point x="82" y="19" type="line"/>
      <point x="92" y="26" type="line"/>
      <point x="0" y="14" type="line"/>
    </contour>
    <contour>
      <point x="210" y="197" type="line"/>
      <point x="425" y="556" type="line"/>
      <point x="418" y="549" type="line"/>
      <point x="446" y="549" type="line"/>
      <point x="440" y="556" type="line"/>
      <point x="440" y="197" type="line"/>
      <point x="446" y="203" type="line"/>
      <point x="206" y="203" type="line"/>
    </contour>
  </outline>
</glyph>
<glyph name="b.sc" format="2">
  <advance width="576"/>
  <anchor x="282" y="0" name="bottom"/>
  <anchor x="282" y="568" name="top"/>
  <outline>
    <contour>
      <point x="326" y="292" type="line"/>
      <point x="433" y="307"/>
      <point x="475" y="362"/>
      <point x="475" y="431" type="curve" smooth="yes"/>
      <point x="475" y="515"/>
      <point x="419" y="568"/>
      <point x="291" y="568" type="curve" smooth="yes"/>
      <point x="166" y="568" type="line"/>
      <point x="52" y="564" type="line"/>
      <point x="52" y="550" type="line"/>
      <point x="151" y="541" type="line"/>
      <point x="145" y="548" type="line"/>
      <point x="145" y="19" type="line"/>
      <point x="151" y="26" type="line"/>
      <point x="52" y="14" type="line"/>
      <point x="52" y="0" type="line"/>
      <point x="283" y="0" type="line" smooth="yes"/>
      <point x="440" y="0"/>
      <point x="499" y="60"/>
      <point x="499" y="150" type="curve" smooth="yes"/>
      <point x="499" y="238"/>
      <point x="446" y="289"/>
      <point x="326" y="294" type="curve"/>
    </contour>
    <contour>
      <point x="286" y="549" type="line" smooth="yes"/>
      <point x="400" y="549"/>
      <point x="454" y="505"/>
      <point x="454" y="429" type="curve" smooth="yes"/>
      <point x="454" y="355"/>
      <point x="397" y="300"/>
      <point x="254" y="300" type="curve" smooth="yes"/>
      <point x="159" y="300" type="line"/>
      <point x="165" y="294" type="line"/>
      <point x="165" y="556" type="line"/>
      <point x="159" y="549" type="line"/>
    </contour>
    <contour>
      <point x="283" y="19" type="curve" smooth="yes"/>
      <point x="159" y="19" type="line"/>
      <point x="165" y="12" type="line"/>
      <point x="165" y="288" type="line"/>
      <point x="159" y="281" type="line"/>
      <point x="303" y="281" type="line" smooth="yes"/>
      <point x="423" y="281"/>
      <point x="477" y="232"/>
      <point x="477" y="149" type="curve" smooth="yes"/>
      <point x="477" y="68"/>
      <point x="422" y="19"/>
    </contour>
  </outline>
</glyph>
<glyph name="braceleft.case" format="2">
  <advance width="320"/>
  <guideline x="120" y="-94" angle="0"/>
  <guideline x="120" y="798" angle="0"/>
  <outline>
    <contour>
      <point x="250" y="-94" type="curve" smooth="yes"/>
      <point x="279" y="-94" type="line"/>
      <point x="279" y="-78" type="line"/>
      <point x="181" y="-78"/>
      <point x="162" y="-59"/>
      <point x="162" y="31" type="curve" smooth="yes"/>
      <point x="162" y="241" type="line" smooth="yes"/>
      <point x="162" y="346"/>
      <point x="108" y="358"/>
      <point x="63" y="358" type="curve"/>
      <point x="63" y="350" type="line"/>
      <point x="108" y="350"/>
      <point x="162" y="362"/>
      <point x="162" y="467" type="curve" smooth="yes"/>
      <point x="162" y="673" type="line" smooth="yes"/>
      <point x="162" y="763"/>
      <point x="181" y="782"/>
      <point x="279" y="782" type="curve"/>
      <point x="279" y="798" type="line"/>
      <point x="250" y="798" type="line" smooth="yes"/>
      <point x="170" y="798"/>
      <point x="142" y="768"/>
      <point x="142" y="678" type="curve" smooth="yes"/>
      <point x="142" y="471" type="line" smooth="yes"/>
      <point x="142" y="409"/>
      <point x="121" y="364"/>
      <point x="50" y="364" type="curve"/>
      <point x="50" y="344" type="line"/>
      <point x="121" y="344"/>
      <point x="142" y="299"/>
      <point x="142" y="237" type="curve" smooth="yes"/>
      <point x="142" y="26" type="line" smooth="yes"/>
      <point x="142" y="-64"/>
      <point x="169" y="-94"/>
    </contour>
  </outline>
</glyph>
<glyph name="bracketright.case" format="2">
  <advance width="341"/>
  <guideline x="120" y="-94" angle="0"/>
  <outline>
    <contour>
      <point x="203" y="-94" type="line"/>
      <point x="19" y="-89" type="line"/>
      <point x="19" y="-73" type="line"/>
      <point x="183" y="-71" type="line"/>
      <point x="183" y="775" type="line"/>
      <point x="19" y="777" type="line"/>
      <point x="19" y="793" type="line"/>
      <point x="203" y="798" type="line"/>
    </contour>
  </outline>
</glyph>
<glyph name="brevecomb.case" format="2">
  <anchor x="212" y="692" name="_top"/>
  <anchor x="212" y="840" name="top"/>
  <outline>
    <contour>
      <point x="213" y="756" type="curve" smooth="yes"/>
      <point x="269" y="756"/>
      <point x="324" y="787"/>
      <point x="324" y="850" type="curve"/>
      <point x="309" y="849" type="line"/>
      <point x="305" y="801"/>
      <point x="260" y="777"/>
      <point x="214" y="777" type="curve" smooth="yes"/>
      <point x="168" y="777"/>
      <point x="121" y="801"/>
      <point x="115" y="850" type="curve"/>
      <point x="100" y="848" type="line"/>
      <point x="102" y="787"/>
      <point x="158" y="756"/>
    </contour>
  </outline>
</glyph>
<glyph name="brevecomb_gravecomb.case" format="2">
  <guideline x="1" y="737" angle="0"/>
  <guideline x="1" y="945" angle="0"/>
  <guideline x="1" y="834" angle="0"/>
  <guideline x="1" y="775" angle="0"/>
  <guideline x="100" y="957" angle="90"/>
  <anchor x="212" y="692" name="_top"/>
  <anchor x="212" y="920" name="top"/>
  <outline>
    <contour>
      <point x="241" y="822" type="line"/>
      <point x="130" y="925" type="line"/>
      <point x="153" y="945" type="line"/>
      <point x="254" y="835" type="line"/>
    </contour>
    <component base="brevecomb.case" yOffset="-20"/>
  </outline>
</glyph>
<glyph name="brevecomb_gravecomb" format="2">
  <anchor x="212" y="522" name="_top"/>
  <anchor x="212" y="762" name="top"/>
  <outline>
    <contour>
      <point x="242" y="697" type="line"/>
      <point x="131" y="800" type="line"/>
      <point x="154" y="820" type="line"/>
      <point x="255" y="710" type="line"/>
    </contour>
    <component base="brevecomb.case" xOffset="1" yOffset="-163"/>
  </outline>
</glyph>
<glyph name="brevecomb_tildecomb.case" format="2">
  <guideline y="747"/>
  <guideline y="868"/>
  <guideline y="834"/>
  <guideline y="775"/>
  <guideline x="128" y="823" angle="90"/>
  <guideline x="352" y="823" angle="90"/>
  <anchor x="240" y="692" name="_top"/>
  <anchor x="240" y="920" name="top"/>
  <outline>
    <contour>
      <point x="127" y="853" type="line"/>
      <point x="143" y="885"/>
      <point x="159" y="898"/>
      <point x="181" y="898" type="curve" smooth="yes"/>
      <point x="224" y="898"/>
      <point x="254" y="856"/>
      <point x="297" y="856" type="curve" smooth="yes"/>
      <point x="324" y="856"/>
      <point x="347" y="871"/>
      <point x="366" y="914" type="curve"/>
      <point x="353" y="921" type="line"/>
      <point x="336" y="887"/>
      <point x="319" y="877"/>
      <point x="299" y="877" type="curve" smooth="yes"/>
      <point x="265" y="877"/>
      <point x="227" y="919"/>
      <point x="183" y="919" type="curve" smooth="yes"/>
      <point x="155" y="919"/>
      <point x="132" y="902"/>
      <point x="114" y="860" type="curve"/>
    </contour>
    <component base="brevecomb.case" xOffset="28" yOffset="-20"/>
  </outline>
</glyph>
<glyph name="brevecomb_tildecomb" format="2">
  <anchor x="240" y="522" name="_top"/>
  <anchor x="240" y="762" name="top"/>
  <outline>
    <contour>
      <point x="127" y="723" type="line"/>
      <point x="143" y="755"/>
      <point x="159" y="768"/>
      <point x="181" y="768" type="curve" smooth="yes"/>
      <point x="224" y="768"/>
      <point x="254" y="726"/>
      <point x="297" y="726" type="curve" smooth="yes"/>
      <point x="324" y="726"/>
      <point x="347" y="741"/>
      <point x="366" y="784" type="curve"/>
      <point x="353" y="791" type="line"/>
      <point x="336" y="757"/>
      <point x="319" y="747"/>
      <point x="299" y="747" type="curve" smooth="yes"/>
      <point x="265" y="747"/>
      <point x="227" y="789"/>
      <point x="183" y="789" type="curve" smooth="yes"/>
      <point x="155" y="789"/>
      <point x="132" y="772"/>
      <point x="114" y="730" type="curve"/>
    </contour>
    <component base="brevecomb.case" xOffset="29" yOffset="-163"/>
  </outline>
</glyph>
